<svg xmlns="http://www.w3.org/2000/svg" xmlns:svg="http://www.w3.org/2000/svg" id="svg2" width="490.913" height="326.602" version="1.1"><metadata id="metadata7"/><g id="layer1" transform="translate(-223.11497,-374.77565)"><g id="g2989" transform="translate(186.29955,360.58613)"><path id="path2991" d="m 287.49975,36.027725 0,5.007498 -1.24719,0 0,-5.007498 1.24719,0 z m 0,8.758432 0,4.998121 -1.24719,0 0,-4.998121 1.24719,0 z m 0,8.749055 0,4.99812 -1.24719,0 0,-4.99812 1.24719,0 z m 0,8.749055 0,5.007497 -1.24719,0 0,-5.007497 1.24719,0 z m 0,8.758432 0,4.99812 -1.24719,0 0,-4.99812 1.24719,0 z m 0,8.749054 0,4.99812 -1.24719,0 0,-4.99812 1.24719,0 z m 0,8.749055 0,5.007497 -1.24719,0 0,-5.007497 1.24719,0 z m 0,8.758432 0,4.99812 -1.24719,0 0,-4.99812 1.24719,0 z m 0,8.74905 0,4.99812 -1.24719,0 0,-4.99812 1.24719,0 z m 0,8.74906 0,5.0075 -1.24719,0 0,-5.0075 1.24719,0 z m 0,8.75843 0,4.99812 -1.24719,0 0,-4.99812 1.24719,0 z m 0,8.74906 0,4.99812 -1.24719,0 0,-4.99812 1.24719,0 z m 0,8.74905 0,5.0075 -1.24719,0 0,-5.0075 1.24719,0 z m 0,8.75843 0,4.99812 -1.24719,0 0,-4.99812 1.24719,0 z m 0,8.74906 0,4.99812 -1.24719,0 0,-4.99812 1.24719,0 z m 0,8.74905 0,5.0075 -1.24719,0 0,-5.0075 1.24719,0 z m 0,8.75843 0,4.99812 -1.24719,0 0,-4.99812 1.24719,0 z m 0,8.74906 0,4.99812 -1.24719,0 0,-4.99812 1.24719,0 z m 0,8.74905 0,5.0075 -1.24719,0 0,-5.0075 1.24719,0 z m 0,8.75843 0,4.99812 -1.24719,0 0,-4.99812 1.24719,0 z m 0,8.74906 0,4.99812 -1.24719,0 0,-4.99812 1.24719,0 z m 0,8.74905 0,5.0075 -1.24719,0 0,-5.0075 1.24719,0 z m 0,8.75844 0,4.99812 -1.24719,0 0,-4.99812 1.24719,0 z m 0,8.74905 0,4.99812 -1.24719,0 0,-4.99812 1.24719,0 z m 0,8.74905 0,5.0075 -1.24719,0 0,-5.0075 1.24719,0 z m 0,8.75844 0,4.99812 -1.24719,0 0,-4.99812 1.24719,0 z m 0,8.74905 0,4.99812 -1.24719,0 0,-4.99812 1.24719,0 z m 0,8.74906 0,5.00749 -1.24719,0 0,-5.00749 1.24719,0 z m 0,8.75843 0,4.99812 -1.24719,0 0,-4.99812 1.24719,0 z m 0,8.74905 0,4.36984 -1.24719,0 0,-4.36984 1.24719,0 z" style="fill:#000;fill-opacity:1;fill-rule:nonzero;stroke:#000;stroke-width:.00937734px;stroke-linecap:butt;stroke-linejoin:round;stroke-opacity:1;stroke-dasharray:none"/><path id="path2993" d="m 315.47234,50.731388 0,21.399082 20.16127,0 0,-21.399082 -20.16127,0 z" style="fill:#5b9bd5;fill-opacity:1;fill-rule:evenodd;stroke:none"/><text id="text2995" x="321.229" y="67.309" xml:space="preserve" style="font-size:15.00373745px;font-style:normal;font-weight:400;text-align:start;text-anchor:start;fill:#000;font-family:Verdana">a</text><path id="path2997" d="m 315.47234,73.855899 0,21.249044 20.16127,0 0,-21.249044 -20.16127,0 z" style="fill:#5b9bd5;fill-opacity:1;fill-rule:evenodd;stroke:none"/><text id="text2999" x="321.079" y="90.392" xml:space="preserve" style="font-size:15.00373745px;font-style:normal;font-weight:400;text-align:start;text-anchor:start;fill:#000;font-family:Verdana">b</text><path id="path3001" d="m 315.47234,96.830373 0,21.417837 20.16127,0 0,-21.417837 -20.16127,0 z" style="fill:#5b9bd5;fill-opacity:1;fill-rule:evenodd;stroke:none"/><text id="text3003" x="321.829" y="113.474" xml:space="preserve" style="font-size:15.00373745px;font-style:normal;font-weight:400;text-align:start;text-anchor:start;fill:#000;font-family:Verdana">c</text><path id="path3005" d="m 315.47234,119.95488 0,21.41784 20.16127,0 0,-21.41784 -20.16127,0 z" style="fill:#5b9bd5;fill-opacity:1;fill-rule:evenodd;stroke:none"/><text id="text3007" x="321.079" y="136.557" xml:space="preserve" style="font-size:15.00373745px;font-style:normal;font-weight:400;text-align:start;text-anchor:start;fill:#000;font-family:Verdana">d</text><path id="path3009" d="m 315.47234,189.81604 0,21.2678 20.16127,0 0,-21.2678 -20.16127,0 z" style="fill:#548235;fill-opacity:1;fill-rule:evenodd;stroke:none"/><text id="text3011" x="321.079" y="206.382" xml:space="preserve" style="font-size:15.00373745px;font-style:normal;font-weight:400;text-align:start;text-anchor:start;fill:#000;font-family:Verdana">b</text><path id="path3013" d="m 315.47234,212.79051 0,21.41784 20.16127,0 0,-21.41784 -20.16127,0 z" style="fill:#548235;fill-opacity:1;fill-rule:evenodd;stroke:none"/><text id="text3015" x="321.829" y="229.464" xml:space="preserve" style="font-size:15.00373745px;font-style:normal;font-weight:400;text-align:start;text-anchor:start;fill:#000;font-family:Verdana">c</text><path id="path3017" d="m 315.47234,235.93378 0,21.39908 20.16127,0 0,-21.39908 -20.16127,0 z" style="fill:#548235;fill-opacity:1;fill-rule:evenodd;stroke:none"/><text id="text3019" x="321.079" y="252.547" xml:space="preserve" style="font-size:15.00373745px;font-style:normal;font-weight:400;text-align:start;text-anchor:start;fill:#000;font-family:Verdana">d</text><path id="path3021" d="m 48.855921,319.54211 0,21.24904 20.161273,0 0,-21.24904 -20.161273,0 z" style="fill:#5b9bd5;fill-opacity:1;fill-rule:evenodd;stroke:none"/><text id="text3023" x="54.578" y="336.116" xml:space="preserve" style="font-size:15.00373745px;font-style:normal;font-weight:400;text-align:start;text-anchor:start;fill:#000;font-family:Verdana">x</text><path id="path3025" d="m 527.10006,152.40047 c 0,4.68866 -17.04799,8.51462 -38.05323,8.51462 -21.02398,0 -38.07198,-3.82596 -38.07198,-8.51462" style="fill:none;stroke:#000;stroke-width:1.25656307px;stroke-linecap:butt;stroke-linejoin:miter;stroke-miterlimit:4;stroke-opacity:1;stroke-dasharray:none"/><path id="path3027" d="m 450.97485,152.40047 c 0,-4.70743 17.048,-8.53338 38.07198,-8.53338 21.00524,0 38.05323,3.82595 38.05323,8.53338 l 0,34.05848 c 0,4.70742 -17.04799,8.51462 -38.05323,8.51462 -21.02398,0 -38.07198,-3.8072 -38.07198,-8.51462 z" style="fill:none;stroke:#000;stroke-width:1.25656307px;stroke-linecap:butt;stroke-linejoin:miter;stroke-miterlimit:4;stroke-opacity:1;stroke-dasharray:none"/><path id="path3029" d="m 36.815422,50.722011 0,21.408459 20.31131,0 0,-21.408459 -20.31131,0 z" style="fill:#5b9bd5;fill-opacity:1;fill-rule:evenodd;stroke:none"/><text id="text3031" x="42.636" y="67.309" xml:space="preserve" style="font-size:15.00373745px;font-style:normal;font-weight:400;text-align:start;text-anchor:start;fill:#000;font-family:Verdana">a</text><path id="path3033" d="m 36.815422,73.855899 0,67.516821 20.31131,0 0,-67.516821 -20.31131,0 z" style="fill:#c55a11;fill-opacity:1;fill-rule:evenodd;stroke:none"/><path id="path3035" d="m 36.815422,143.39822 0,21.25843 20.31131,0 0,-21.25843 -20.31131,0 z" style="fill:#548235;fill-opacity:1;fill-rule:evenodd;stroke:none"/><text id="text3037" x="42.636" y="159.928" xml:space="preserve" style="font-size:15.00373745px;font-style:normal;font-weight:400;text-align:start;text-anchor:start;fill:#000;font-family:Verdana">a</text><path id="path3039" d="m 248.27435,152.39109 c 0,4.69804 -17.03862,8.51462 -38.06261,8.51462 -21.01461,0 -38.05323,-3.81658 -38.05323,-8.51462" style="fill:none;stroke:#000;stroke-width:1.24718571px;stroke-linecap:butt;stroke-linejoin:miter;stroke-miterlimit:4;stroke-opacity:1;stroke-dasharray:none"/><path id="path3041" d="m 172.15851,152.39109 c 0,-4.70742 17.03862,-8.524 38.05323,-8.524 21.02399,0 38.06261,3.81658 38.06261,8.524 l 0,34.06786 c 0,4.70742 -17.03862,8.51462 -38.06261,8.51462 -21.01461,0 -38.05323,-3.8072 -38.05323,-8.51462 z" style="fill:none;stroke:#000;stroke-width:1.24718571px;stroke-linecap:butt;stroke-linejoin:miter;stroke-miterlimit:4;stroke-opacity:1;stroke-dasharray:none"/><path id="path3043" d="m 36.815422,166.3727 0,21.41783 20.31131,0 0,-21.41783 -20.31131,0 z" style="fill:#5b9bd5;fill-opacity:1;fill-rule:evenodd;stroke:none"/><text id="text3045" x="42.486" y="183.011" xml:space="preserve" style="font-size:15.00373745px;font-style:normal;font-weight:400;text-align:start;text-anchor:start;fill:#000;font-family:Verdana">b</text><path id="path3047" d="m 36.815422,189.50659 0,67.51682 20.31131,0 0,-67.51682 -20.31131,0 z" style="fill:#c55a11;fill-opacity:1;fill-rule:evenodd;stroke:none"/><path id="path3049" d="m 36.815422,259.05829 0,21.24904 20.31131,0 0,-21.24904 -20.31131,0 z" style="fill:#548235;fill-opacity:1;fill-rule:evenodd;stroke:none"/><text id="text3051" x="42.486" y="275.629" xml:space="preserve" style="font-size:15.00373745px;font-style:normal;font-weight:400;text-align:start;text-anchor:start;fill:#000;font-family:Verdana">b</text><path id="path3053" d="m 315.47234,166.3727 0,21.41783 20.16127,0 0,-21.41783 -20.16127,0 z" style="fill:#548235;fill-opacity:1;fill-rule:evenodd;stroke:none"/><text id="text3055" x="321.229" y="183.01" xml:space="preserve" style="font-size:15.00373745px;font-style:normal;font-weight:400;text-align:start;text-anchor:start;fill:#000;font-family:Verdana">a</text><path id="path3057" d="M 335.98995,60.840157 449.64327,136.459 448.94934,137.50926 335.29603,61.871664 z m 110.05242,68.079463 4.29482,8.75843 -9.73367,-0.5814 c -0.35634,-0.0188 -0.61891,-0.31883 -0.60015,-0.65641 0.0187,-0.35634 0.31883,-0.6189 0.65641,-0.58139 l 8.68341,0.50637 -0.60015,0.90023 -3.82595,-7.80195 c -0.15004,-0.31883 -0.0187,-0.69392 0.28132,-0.84396 0.31883,-0.15004 0.69392,-0.0188 0.84396,0.30008 z" style="fill:#000;fill-opacity:1;fill-rule:nonzero;stroke:#000;stroke-width:.01875467px;stroke-linecap:butt;stroke-linejoin:round;stroke-opacity:1;stroke-dasharray:none"/><path id="path3059" d="m 162.30293,159.99611 -103.966522,-5.27944 0.06564,-1.24719 103.966532,5.27007 z m -97.008539,-0.62828 -8.167659,-5.33571 8.664658,-4.48236 c 0.309452,-0.15942 0.684546,-0.0375 0.843961,0.26256 0.159414,0.30945 0.03751,0.68455 -0.262566,0.84396 l -7.717548,3.99475 0.05627,-1.0784 7.267435,4.74494 c 0.290697,0.18754 0.375093,0.58139 0.178169,0.87209 -0.187546,0.28132 -0.572017,0.36571 -0.862715,0.17817 z" style="fill:#000;fill-opacity:1;fill-rule:nonzero;stroke:#000;stroke-width:.00937734px;stroke-linecap:butt;stroke-linejoin:round;stroke-opacity:1;stroke-dasharray:none"/><path id="path3061" d="m 57.154864,177.70052 105.992026,-3.3102 -0.0375,-1.25656 -106.001403,3.31957 z m 98.940276,1.2003 8.27081,-5.17629 -8.57089,-4.65116 c -0.30945,-0.16879 -0.68454,-0.0563 -0.85334,0.25319 -0.15941,0.30007 -0.0469,0.68454 0.25319,0.84396 l 7.63315,4.14478 -0.0281,-1.08777 -7.36121,4.61365 c -0.30007,0.17817 -0.38447,0.57202 -0.19692,0.86271 0.17817,0.2907 0.56264,0.3751 0.85334,0.19693 z" style="fill:#000;fill-opacity:1;fill-rule:nonzero;stroke:#000;stroke-width:.00937734px;stroke-linecap:butt;stroke-linejoin:round;stroke-opacity:1;stroke-dasharray:none"/><path id="path3063" d="m 163.98148,183.86143 -106.273353,84.52731 0.778318,0.97524 106.273355,-84.52731 z m -103.319493,76.69723 -3.535255,9.08664 9.658656,-1.39722 c 0.337584,-0.0469 0.581395,-0.36572 0.525131,-0.7033 -0.04689,-0.34696 -0.365716,-0.5814 -0.7033,-0.53451 l -8.599018,1.24718 0.675168,0.84396 3.141408,-8.09264 c 0.131283,-0.31883 -0.02813,-0.68454 -0.346961,-0.80645 -0.328207,-0.13128 -0.684546,0.0281 -0.815829,0.35634 z" style="fill:#000;fill-opacity:1;fill-rule:nonzero;stroke:#000;stroke-width:.00937734px;stroke-linecap:butt;stroke-linejoin:round;stroke-opacity:1;stroke-dasharray:none"/><text id="text3065" x="104.915" y="29.351" xml:space="preserve" style="font-size:19.95497131px;font-style:normal;font-weight:400;text-align:start;text-anchor:start;fill:#000;font-family:Verdana">Sync. I/O</text><text id="text3067" x="387.677" y="29.351" xml:space="preserve" style="font-size:19.95497131px;font-style:normal;font-weight:400;text-align:start;text-anchor:start;fill:#000;font-family:Verdana">Async</text><text id="text3069" x="446.492" y="29.351" xml:space="preserve" style="font-size:19.95497131px;font-style:normal;font-weight:400;text-align:start;text-anchor:start;fill:#000;font-family:Verdana">. I/O</text><path id="path3071" d="m 335.93369,83.927158 110.5963,58.870912 -0.60015,1.08778 -110.57755,-58.852166 z m 106.26397,51.706632 5.13878,8.28956 -9.75243,0.3751 c -0.35634,0.0188 -0.63766,-0.24381 -0.65641,-0.60015 -0.0188,-0.33759 0.26257,-0.63766 0.60015,-0.63766 l 8.68341,-0.33758 -0.50637,0.93773 -4.57614,-7.37059 c -0.1688,-0.30007 -0.0938,-0.69392 0.2063,-0.86271 0.30007,-0.18755 0.67517,-0.0938 0.86271,0.2063 z" style="fill:#000;fill-opacity:1;fill-rule:nonzero;stroke:#000;stroke-width:.01875467px;stroke-linecap:butt;stroke-linejoin:round;stroke-opacity:1;stroke-dasharray:none"/><path id="path3073" d="m 335.87743,107.03291 110.54003,45.70514 -0.46886,1.14404 -110.54004,-45.68639 z m 105.53254,38.99097 5.92647,7.76443 -9.67741,1.31283 c -0.33758,0.0563 -0.65641,-0.18755 -0.69392,-0.52513 -0.0563,-0.33759 0.18755,-0.65641 0.52513,-0.71268 l 8.60839,-1.18154 -0.4126,1.01275 -5.27006,-6.92047 c -0.2063,-0.26257 -0.15004,-0.65642 0.13128,-0.88147 0.26257,-0.20631 0.65641,-0.15004 0.86272,0.13128 z" style="fill:#000;fill-opacity:1;fill-rule:nonzero;stroke:#000;stroke-width:.01875467px;stroke-linecap:butt;stroke-linejoin:round;stroke-opacity:1;stroke-dasharray:none"/><path id="path3075" d="m 335.80241,129.98863 108.51453,29.68865 -0.33758,1.2003 -108.49578,-29.68865 z m 102.70058,23.64965 6.84546,6.95798 -9.4336,2.51312 c -0.33759,0.0938 -0.67517,-0.0938 -0.76894,-0.43135 -0.0938,-0.33759 0.11252,-0.67517 0.45011,-0.76894 l 8.38334,-2.25057 -0.28132,1.05027 -6.07652,-6.2078 c -0.24381,-0.24381 -0.24381,-0.63766 0,-0.88147 0.24381,-0.24381 0.63766,-0.22506 0.88147,0.0188 z" style="fill:#000;fill-opacity:1;fill-rule:nonzero;stroke:#000;stroke-width:.01875467px;stroke-linecap:butt;stroke-linejoin:round;stroke-opacity:1;stroke-dasharray:none"/><path id="path3077" d="m 440.77231,172.01785 -103.91964,4.44486 0.0563,1.23781 103.91964,-4.44486 z m -96.92415,-0.15003 -8.21455,5.27006 8.62715,4.55738 c 0.31883,0.15004 0.69393,0.0375 0.86272,-0.26256 0.15004,-0.31883 0.0375,-0.69392 -0.26257,-0.84396 l -7.68941,-4.05101 0.0375,1.06902 7.31432,-4.68867 c 0.30007,-0.18755 0.37509,-0.5814 0.18755,-0.86272 -0.18755,-0.30007 -0.56264,-0.37509 -0.86272,-0.18754 z" style="fill:#000;fill-opacity:1;fill-rule:nonzero;stroke:#000;stroke-width:.01875467px;stroke-linecap:butt;stroke-linejoin:round;stroke-opacity:1;stroke-dasharray:none"/><path id="path3079" d="m 440.65978,175.76879 -103.95715,23.85594 0.28132,1.21906 103.95715,-23.85595 z m -97.89939,18.06075 -7.12678,6.67666 9.32108,2.90698 c 0.31883,0.11252 0.67517,-0.075 0.78769,-0.41261 0.0938,-0.31883 -0.0938,-0.67517 -0.4126,-0.78769 l -8.28956,-2.58815 0.24381,1.06902 6.32032,-5.94523 c 0.26257,-0.24381 0.26257,-0.63766 0.0375,-0.88147 -0.24381,-0.26257 -0.63766,-0.28132 -0.88147,-0.0375 z" style="fill:#000;fill-opacity:1;fill-rule:nonzero;stroke:#000;stroke-width:.01875467px;stroke-linecap:butt;stroke-linejoin:round;stroke-opacity:1;stroke-dasharray:none"/><path id="path3081" d="m 440.56601,180.34493 -104.01342,42.23552 0.46887,1.14404 104.01341,-42.23553 z m -98.96841,35.5401 -5.96399,7.72693 9.65866,1.38784 c 0.35634,0.0563 0.65641,-0.18754 0.71268,-0.52513 0.0563,-0.33758 -0.18755,-0.65641 -0.52513,-0.71268 l -8.6084,-1.21905 0.41261,0.994 5.30757,-6.88297 c 0.2063,-0.26256 0.15004,-0.65641 -0.11253,-0.88147 -0.28132,-0.2063 -0.67517,-0.15003 -0.88147,0.11253 z" style="fill:#000;fill-opacity:1;fill-rule:nonzero;stroke:#000;stroke-width:.01875467px;stroke-linecap:butt;stroke-linejoin:round;stroke-opacity:1;stroke-dasharray:none"/><path id="path3083" d="m 440.47223,183.19564 -104.08843,62.26551 0.63766,1.06902 104.10719,-62.26552 z m -100.13119,54.89492 -4.70743,8.53338 9.77119,-0.0938 c 0.33758,-0.0188 0.6189,-0.30008 0.60015,-0.63766 0,-0.33759 -0.28132,-0.61891 -0.61891,-0.61891 l -8.68341,0.0938 0.54389,0.93773 4.20104,-7.6144 c 0.1688,-0.30007 0.0563,-0.67516 -0.24381,-0.84396 -0.30007,-0.16879 -0.69392,-0.0563 -0.86271,0.24381 z" style="fill:#000;fill-opacity:1;fill-rule:nonzero;stroke:#000;stroke-width:.01875467px;stroke-linecap:butt;stroke-linejoin:round;stroke-opacity:1;stroke-dasharray:none"/><path id="path3085" d="m 57.529957,60.868289 106.273353,86.459041 -0.7877,0.97524 L 56.732884,61.834154 z m 103.403883,78.600831 3.43211,9.12415 -9.6399,-1.50038 c -0.33759,-0.0563 -0.57202,-0.37509 -0.51576,-0.71267 0.0469,-0.34696 0.36572,-0.57202 0.71268,-0.52513 l 8.58026,1.34096 -0.68454,0.83458 -3.05701,-8.12077 c -0.12191,-0.32821 0.0469,-0.68455 0.36571,-0.80646 0.32821,-0.1219 0.68455,0.0375 0.80645,0.36572 z" style="fill:#000;fill-opacity:1;fill-rule:nonzero;stroke:#000;stroke-width:.00937734px;stroke-linecap:butt;stroke-linejoin:round;stroke-opacity:1;stroke-dasharray:none"/><text id="text3087" x="178.403" y="180.868" xml:space="preserve" style="font-size:13.80343914px;font-style:normal;font-weight:400;text-align:start;text-anchor:start;fill:#000;font-family:Verdana">database</text><text id="text3089" x="457.831" y="180.868" xml:space="preserve" style="font-size:13.80343914px;font-style:normal;font-weight:400;text-align:start;text-anchor:start;fill:#000;font-family:Verdana">database</text><path id="path3091" d="m 315.47234,142.92936 0,21.2678 20.16127,0 0,-21.2678 -20.16127,0 z" style="fill:#c55a11;fill-opacity:1;fill-rule:evenodd;stroke:none"/><text id="text3093" x="78.076" y="335.541" xml:space="preserve" style="font-size:13.80343914px;font-style:normal;font-weight:400;text-align:start;text-anchor:start;fill:#000;font-family:Verdana">sendRequest</text><text id="text3095" x="166.749" y="335.541" xml:space="preserve" style="font-size:13.80343914px;font-style:normal;font-weight:400;text-align:start;text-anchor:start;fill:#000;font-family:Verdana">(x)</text><path id="path3097" d="m 242.32912,319.54211 0,21.24904 20.16127,0 0,-21.24904 -20.16127,0 z" style="fill:#548235;fill-opacity:1;fill-rule:evenodd;stroke:none"/><text id="text3099" x="248.059" y="336.116" xml:space="preserve" style="font-size:15.00373745px;font-style:normal;font-weight:400;text-align:start;text-anchor:start;fill:#000;font-family:Verdana">x</text><text id="text3101" x="271.557" y="335.541" xml:space="preserve" style="font-size:13.80343914px;font-style:normal;font-weight:400;text-align:start;text-anchor:start;fill:#000;font-family:Verdana">receiveResponse</text><text id="text3103" x="387.236" y="335.541" xml:space="preserve" style="font-size:13.80343914px;font-style:normal;font-weight:400;text-align:start;text-anchor:start;fill:#000;font-family:Verdana">(x)</text><path id="path3105" d="m 457.23891,319.54211 0,21.24904 20.16127,0 0,-21.24904 -20.16127,0 z" style="fill:#c55a11;fill-opacity:1;fill-rule:evenodd;stroke:none"/><text id="text3107" x="486.519" y="335.541" xml:space="preserve" style="font-size:13.80343914px;font-style:normal;font-weight:400;text-align:start;text-anchor:start;fill:#000;font-family:Verdana">wait</text></g></g></svg>