<svg xmlns="http://www.w3.org/2000/svg" xmlns:svg="http://www.w3.org/2000/svg" id="svg2" width="1116.33" height="896.678" version="1.1"><metadata id="metadata7"/><g id="layer1" transform="translate(255.30809,4.5480758)"><g id="g2989" transform="translate(-274.66659,45.499311)"><path id="path2991" d="m 106.07643,701.83735 1003.26247,0 0,1.87546 -1003.26247,0 0,-1.87546 z m 1002.02467,-2.81321 7.5018,3.75094 -7.5018,3.75093 0,-7.50187 z" style="fill:#000;fill-opacity:1;fill-rule:nonzero;stroke:#000;stroke-width:.03750934px;stroke-linecap:butt;stroke-linejoin:round;stroke-opacity:1;stroke-dasharray:none"/><text id="text2993" x="1094.084" y="738.861" xml:space="preserve" style="font-size:22.5056076px;font-style:normal;font-weight:400;text-align:start;text-anchor:start;fill:#000;font-family:Arial">time</text><path id="path2995" d="m 106.07643,664.17796 0,28.91971 210.05233,0 0,-28.91971 -210.05233,0 z" style="fill:#ffc000;fill-opacity:1;fill-rule:evenodd;stroke:none"/><path id="path2997" d="m 316.12876,664.17796 0,28.91971 106.11393,0 0,-28.91971 -106.11393,0 z" style="fill:#70ad47;fill-opacity:1;fill-rule:evenodd;stroke:none"/><path id="path2999" d="m 422.24269,664.17796 0,28.91971 210.05233,0 0,-28.91971 -210.05233,0 z" style="fill:#ffc000;fill-opacity:1;fill-rule:evenodd;stroke:none"/><path id="path3001" d="m 632.29502,664.17796 0,28.91971 106.11394,0 0,-28.91971 -106.11394,0 z" style="fill:#70ad47;fill-opacity:1;fill-rule:evenodd;stroke:none"/><path id="path3003" d="m 738.40896,664.17796 0,28.91971 210.05233,0 0,-28.91971 -210.05233,0 z" style="fill:#ffc000;fill-opacity:1;fill-rule:evenodd;stroke:none"/><path id="path3005" d="m 948.46129,664.17796 0,28.91971 105.96391,0 0,-28.91971 -105.96391,0 z" style="fill:#70ad47;fill-opacity:1;fill-rule:evenodd;stroke:none"/><path id="path3007" d="m 106.07643,388.78436 1003.26247,0 0,1.87546 -1003.26247,0 0,-1.87546 z m 1002.02467,-2.8132 7.5018,3.75093 -7.5018,3.75093 0,-7.50186 z" style="fill:#000;fill-opacity:1;fill-rule:nonzero;stroke:#000;stroke-width:.03750934px;stroke-linecap:butt;stroke-linejoin:round;stroke-opacity:1;stroke-dasharray:none"/><text id="text3009" x="1094.084" y="425.834" xml:space="preserve" style="font-size:22.5056076px;font-style:normal;font-weight:400;text-align:start;text-anchor:start;fill:#000;font-family:Arial">time</text><path id="path3011" d="m 106.05767,351.10622 0,28.9197 210.05233,0 0,-28.9197 -210.05233,0 z" style="fill:#ffc000;fill-opacity:1;fill-rule:evenodd;stroke:none"/><path id="path3013" d="m 316.11,351.10622 0,28.9197 4.51988,0 0,-28.9197 -4.51988,0 z" style="fill:#70ad47;fill-opacity:1;fill-rule:evenodd;stroke:none"/><path id="path3015" d="m 319.22328,351.10622 0,28.9197 210.05233,0 0,-28.9197 -210.05233,0 z" style="fill:#ffc000;fill-opacity:1;fill-rule:evenodd;stroke:none"/><path id="path3017" d="m 106.07643,145.61128 1003.26247,0 0,1.87546 -1003.26247,0 0,-1.87546 z m 1002.02467,-2.81321 7.5018,3.75094 -7.5018,3.75093 0,-7.50187 z" style="fill:#000;fill-opacity:1;fill-rule:nonzero;stroke:#000;stroke-width:.03750934px;stroke-linecap:butt;stroke-linejoin:round;stroke-opacity:1;stroke-dasharray:none"/><text id="text3019" x="1094.084" y="182.719" xml:space="preserve" style="font-size:22.5056076px;font-style:normal;font-weight:400;text-align:start;text-anchor:start;fill:#000;font-family:Arial">time</text><path id="path3021" d="m 106.04829,108.08318 0,28.91032 28.91033,0 0,-28.91032 -28.91033,0 z" style="fill:#ffc000;fill-opacity:1;fill-rule:evenodd;stroke:none"/><path id="path3023" d="m 134.95862,108.08318 0,28.91032 106.12331,0 0,-28.91032 -106.12331,0 z" style="fill:#70ad47;fill-opacity:1;fill-rule:evenodd;stroke:none"/><path id="path3025" d="m 106.04829,161.53399 0,22.73066" style="fill:none;stroke:#000;stroke-width:2.81320095px;stroke-linecap:butt;stroke-linejoin:miter;stroke-miterlimit:4;stroke-opacity:1;stroke-dasharray:none"/><path id="path3027" d="m 239.98479,161.53399 0,22.73066" style="fill:none;stroke:#000;stroke-width:2.81320095px;stroke-linecap:butt;stroke-linejoin:miter;stroke-miterlimit:4;stroke-opacity:1;stroke-dasharray:none"/><path id="path3029" d="m 241.08193,172.93683 -135.03364,0" style="fill:none;stroke:#000;stroke-width:2.81320095px;stroke-linecap:butt;stroke-linejoin:miter;stroke-miterlimit:4;stroke-opacity:1;stroke-dasharray:none"/><text id="text3031" x="452.195" y="-31.806" xml:space="preserve" style="font-size:25.05624199px;font-style:normal;font-weight:700;text-align:start;text-anchor:start;fill:#000;font-family:Arial">Regular Operation</text><text id="text3033" x="407.034" y="-4.199" xml:space="preserve" style="font-size:22.5056076px;font-style:normal;font-weight:400;text-align:start;text-anchor:start;fill:#000;font-family:Arial">(some</text><text id="text3035" x="475.751" y="-4.199" xml:space="preserve" style="font-size:22.5056076px;font-style:normal;font-weight:400;text-align:start;text-anchor:start;fill:#000;font-family:Arial">checkpointing</text><text id="text3037" x="612.885" y="-4.199" xml:space="preserve" style="font-size:22.5056076px;font-style:normal;font-weight:400;text-align:start;text-anchor:start;fill:#000;font-family:Arial">-</text><text id="text3039" x="620.387" y="-4.199" xml:space="preserve" style="font-size:22.5056076px;font-style:normal;font-weight:400;text-align:start;text-anchor:start;fill:#000;font-family:Arial">free time)</text><path id="path3041" d="m 241.08193,108.08318 0,28.91032 28.91033,0 0,-28.91032 -28.91033,0 z" style="fill:#ffc000;fill-opacity:1;fill-rule:evenodd;stroke:none"/><path id="path3043" d="m 269.99226,108.08318 0,28.9197 106.13269,0 0,-28.9197 -106.13269,0 z" style="fill:#70ad47;fill-opacity:1;fill-rule:evenodd;stroke:none"/><path id="path3045" d="m 376.12495,108.08318 0,28.9197 28.90095,0 0,-28.9197 -28.90095,0 z" style="fill:#ffc000;fill-opacity:1;fill-rule:evenodd;stroke:none"/><path id="path3047" d="m 405.0259,108.08318 0,28.9197 106.13269,0 0,-28.9197 -106.13269,0 z" style="fill:#70ad47;fill-opacity:1;fill-rule:evenodd;stroke:none"/><path id="path3049" d="m 106.05767,406.75133 0,22.73066" style="fill:none;stroke:#000;stroke-width:2.81320095px;stroke-linecap:butt;stroke-linejoin:miter;stroke-miterlimit:4;stroke-opacity:1;stroke-dasharray:none"/><path id="path3051" d="m 239.98479,406.75133 0,22.73066" style="fill:none;stroke:#000;stroke-width:2.81320095px;stroke-linecap:butt;stroke-linejoin:miter;stroke-miterlimit:4;stroke-opacity:1;stroke-dasharray:none"/><path id="path3053" d="m 241.09131,418.15417 -135.03364,0" style="fill:none;stroke:#000;stroke-width:2.81320095px;stroke-linecap:butt;stroke-linejoin:miter;stroke-miterlimit:4;stroke-opacity:1;stroke-dasharray:none"/><text id="text3055" x="88.081" y="213.869" xml:space="preserve" style="font-size:19.95497131px;font-style:normal;font-weight:400;text-align:start;text-anchor:start;fill:#000;font-family:Arial">Checkpoint Interval</text><path id="path3057" d="m 241.08193,161.53399 0,22.73066" style="fill:none;stroke:#000;stroke-width:2.81320095px;stroke-linecap:butt;stroke-linejoin:miter;stroke-miterlimit:4;stroke-opacity:1;stroke-dasharray:none"/><path id="path3059" d="m 375.01843,161.53399 0,22.73066" style="fill:none;stroke:#000;stroke-width:2.81320095px;stroke-linecap:butt;stroke-linejoin:miter;stroke-miterlimit:4;stroke-opacity:1;stroke-dasharray:none"/><path id="path3061" d="m 376.12495,172.93683 -135.03364,0" style="fill:none;stroke:#000;stroke-width:2.81320095px;stroke-linecap:butt;stroke-linejoin:miter;stroke-miterlimit:4;stroke-opacity:1;stroke-dasharray:none"/><path id="path3063" d="m 373.93066,161.53399 0,22.73066" style="fill:none;stroke:#000;stroke-width:2.81320095px;stroke-linecap:butt;stroke-linejoin:miter;stroke-miterlimit:4;stroke-opacity:1;stroke-dasharray:none"/><path id="path3065" d="m 507.87652,161.53399 0,22.73066" style="fill:none;stroke:#000;stroke-width:2.81320095px;stroke-linecap:butt;stroke-linejoin:miter;stroke-miterlimit:4;stroke-opacity:1;stroke-dasharray:none"/><path id="path3067" d="m 508.9643,172.93683 -135.03364,0" style="fill:none;stroke:#000;stroke-width:2.81320095px;stroke-linecap:butt;stroke-linejoin:miter;stroke-miterlimit:4;stroke-opacity:1;stroke-dasharray:none"/><path id="path3069" d="m 508.9643,161.53399 0,22.73066" style="fill:none;stroke:#000;stroke-width:2.81320095px;stroke-linecap:butt;stroke-linejoin:miter;stroke-miterlimit:4;stroke-opacity:1;stroke-dasharray:none"/><path id="path3071" d="m 642.91017,161.55275 0,22.73066" style="fill:none;stroke:#000;stroke-width:2.81320095px;stroke-linecap:butt;stroke-linejoin:miter;stroke-miterlimit:4;stroke-opacity:1;stroke-dasharray:none"/><path id="path3073" d="m 643.99794,172.95559 -135.03364,0" style="fill:none;stroke:#000;stroke-width:2.81320095px;stroke-linecap:butt;stroke-linejoin:miter;stroke-miterlimit:4;stroke-opacity:1;stroke-dasharray:none"/><path id="path3075" d="m 507.87652,108.08318 0,28.9197 28.90095,0 0,-28.9197 -28.90095,0 z" style="fill:#ffc000;fill-opacity:1;fill-rule:evenodd;stroke:none"/><path id="path3077" d="m 536.79623,108.10193 0,28.91971 106.11394,0 0,-28.91971 -106.11394,0 z" style="fill:#70ad47;fill-opacity:1;fill-rule:evenodd;stroke:none"/><text id="text3079" x="17.819" y="47.556" xml:space="preserve" style="font-size:19.95497131px;font-style:normal;font-weight:400;text-align:start;text-anchor:start;fill:#000;font-family:Arial">Duration of Checkpoint</text><text id="text3081" x="266.452" y="59.094" xml:space="preserve" style="font-size:19.95497131px;font-style:normal;font-weight:400;text-align:start;text-anchor:start;fill:#000;font-family:Arial">Processing without</text><text id="text3083" x="266.452" y="83.1" xml:space="preserve" style="font-size:19.95497131px;font-style:normal;font-weight:400;text-align:start;text-anchor:start;fill:#000;font-family:Arial">a checkpoint in progress</text><path id="path3085" d="m 106.07643,719.16666 0,22.76817" style="fill:none;stroke:#000;stroke-width:2.81320095px;stroke-linecap:butt;stroke-linejoin:miter;stroke-miterlimit:4;stroke-opacity:1;stroke-dasharray:none"/><path id="path3087" d="m 239.98479,719.16666 0,22.76817" style="fill:none;stroke:#000;stroke-width:2.81320095px;stroke-linecap:butt;stroke-linejoin:miter;stroke-miterlimit:4;stroke-opacity:1;stroke-dasharray:none"/><path id="path3089" d="m 241.11007,730.60701 -135.03364,0" style="fill:none;stroke:#000;stroke-width:2.81320095px;stroke-linecap:butt;stroke-linejoin:miter;stroke-miterlimit:4;stroke-opacity:1;stroke-dasharray:none"/><path id="path3091" d="m 318.60437,646.96117 0,11.25281 -2.8132,0 0,-11.25281 2.8132,0 z m 0,19.69241 0,11.2528 -2.8132,0 0,-11.2528 2.8132,0 z m 0,19.69241 0,11.2528 -2.8132,0 0,-11.2528 2.8132,0 z m 0,19.6924 0,11.25281 -2.8132,0 0,-11.25281 2.8132,0 z m 0,19.69241 0,11.2528 -2.8132,0 0,-11.2528 2.8132,0 z m 0,19.6924 0,11.25281 -2.8132,0 0,-11.25281 2.8132,0 z" style="fill:#000;fill-opacity:1;fill-rule:nonzero;stroke:#000;stroke-width:.03750934px;stroke-linecap:butt;stroke-linejoin:round;stroke-opacity:1;stroke-dasharray:none"/><text id="text3093" x="88.377" y="456.984" xml:space="preserve" style="font-size:19.95497131px;font-style:normal;font-weight:400;text-align:start;text-anchor:start;fill:#000;font-family:Arial">Checkpoint Interval</text><text id="text3095" x="285.337" y="475.222" xml:space="preserve" style="font-size:19.95497131px;font-style:normal;font-weight:400;text-align:start;text-anchor:start;fill:#000;font-family:Arial">Checkpoint completes late,</text><text id="text3097" x="285.337" y="499.228" xml:space="preserve" style="font-size:19.95497131px;font-style:normal;font-weight:400;text-align:start;text-anchor:start;fill:#000;font-family:Arial">Immediately triggers next</text><path id="path3099" d="m 321.60512,453.07537 -4.36984,-21.17402 2.75694,-0.56264 4.36984,21.15527 -2.75694,0.58139 z m -6.8267,-19.22354 2.41935,-9.13352 5.8327,7.42685 -8.25205,1.70667 z" style="fill:#000;fill-opacity:1;fill-rule:nonzero;stroke:#000;stroke-width:.01875467px;stroke-linecap:butt;stroke-linejoin:round;stroke-opacity:1;stroke-dasharray:none"/><text id="text3101" x="102.753" y="767.707" xml:space="preserve" style="font-size:19.95497131px;font-style:normal;font-weight:400;text-align:start;text-anchor:start;fill:#000;font-family:Arial">Base Checkpoint</text><text id="text3103" x="145.664" y="791.713" xml:space="preserve" style="font-size:19.95497131px;font-style:normal;font-weight:400;text-align:start;text-anchor:start;fill:#000;font-family:Arial">Interval</text><path id="path3105" d="m 107.38925,55.288774 12.26556,37.20927 -2.67254,0.881469 -12.26556,-37.218647 2.67254,-0.872092 z m 14.49737,34.986841 -1.3691,9.339827 -6.64853,-6.695418 8.01763,-2.644409 z" style="fill:#000;fill-opacity:1;fill-rule:nonzero;stroke:#000;stroke-width:.00937734px;stroke-linecap:butt;stroke-linejoin:round;stroke-opacity:1;stroke-dasharray:none"/><path id="path3107" d="m 255.01666,76.303384 -50.33754,20.948969 1.08777,2.597522 50.32816,-20.948969 -1.07839,-2.597522 z m -50.12187,17.816939 -6.17028,7.136157 9.41484,0.65641 -3.24456,-7.792567 z" style="fill:#000;fill-opacity:1;fill-rule:nonzero;stroke:#000;stroke-width:.00937734px;stroke-linecap:butt;stroke-linejoin:round;stroke-opacity:1;stroke-dasharray:none"/><path id="path3109" d="m 642.91017,161.55275 0,22.73066" style="fill:none;stroke:#000;stroke-width:2.81320095px;stroke-linecap:butt;stroke-linejoin:miter;stroke-miterlimit:4;stroke-opacity:1;stroke-dasharray:none"/><path id="path3111" d="m 776.85603,161.55275 0,22.73066" style="fill:none;stroke:#000;stroke-width:2.81320095px;stroke-linecap:butt;stroke-linejoin:miter;stroke-miterlimit:4;stroke-opacity:1;stroke-dasharray:none"/><path id="path3113" d="m 777.94381,172.95559 -135.03364,0" style="fill:none;stroke:#000;stroke-width:2.81320095px;stroke-linecap:butt;stroke-linejoin:miter;stroke-miterlimit:4;stroke-opacity:1;stroke-dasharray:none"/><path id="path3115" d="m 641.82239,108.10193 0,28.91971 29.06975,0 0,-28.91971 -29.06975,0 z" style="fill:#ffc000;fill-opacity:1;fill-rule:evenodd;stroke:none"/><path id="path3117" d="m 670.89214,108.10193 0,28.91971 105.96389,0 0,-28.91971 -105.96389,0 z" style="fill:#70ad47;fill-opacity:1;fill-rule:evenodd;stroke:none"/><path id="path3119" d="m 777.94381,161.55275 0,22.73066" style="fill:none;stroke:#000;stroke-width:2.81320095px;stroke-linecap:butt;stroke-linejoin:miter;stroke-miterlimit:4;stroke-opacity:1;stroke-dasharray:none"/><path id="path3121" d="m 911.88967,161.55275 0,22.73066" style="fill:none;stroke:#000;stroke-width:2.81320095px;stroke-linecap:butt;stroke-linejoin:miter;stroke-miterlimit:4;stroke-opacity:1;stroke-dasharray:none"/><path id="path3123" d="m 912.97745,172.95559 -135.03364,0" style="fill:none;stroke:#000;stroke-width:2.81320095px;stroke-linecap:butt;stroke-linejoin:miter;stroke-miterlimit:4;stroke-opacity:1;stroke-dasharray:none"/><path id="path3125" d="m 776.85603,108.10193 0,28.91971 29.06975,0 0,-28.91971 -29.06975,0 z" style="fill:#ffc000;fill-opacity:1;fill-rule:evenodd;stroke:none"/><path id="path3127" d="m 805.92578,108.10193 0,28.91971 105.96389,0 0,-28.91971 -105.96389,0 z" style="fill:#70ad47;fill-opacity:1;fill-rule:evenodd;stroke:none"/><path id="path3129" d="m 911.88967,161.55275 0,22.73066" style="fill:none;stroke:#000;stroke-width:2.81320095px;stroke-linecap:butt;stroke-linejoin:miter;stroke-miterlimit:4;stroke-opacity:1;stroke-dasharray:none"/><path id="path3131" d="m 1045.9856,161.55275 0,22.73066" style="fill:none;stroke:#000;stroke-width:2.81320095px;stroke-linecap:butt;stroke-linejoin:miter;stroke-miterlimit:4;stroke-opacity:1;stroke-dasharray:none"/><path id="path3133" d="m 1046.9233,172.95559 -135.03363,0" style="fill:none;stroke:#000;stroke-width:2.81320095px;stroke-linecap:butt;stroke-linejoin:miter;stroke-miterlimit:4;stroke-opacity:1;stroke-dasharray:none"/><path id="path3135" d="m 910.95194,108.10193 0,28.91971 28.91971,0 0,-28.91971 -28.91971,0 z" style="fill:#ffc000;fill-opacity:1;fill-rule:evenodd;stroke:none"/><path id="path3137" d="m 939.87165,108.10193 0,28.91971 106.11395,0 0,-28.91971 -106.11395,0 z" style="fill:#70ad47;fill-opacity:1;fill-rule:evenodd;stroke:none"/><path id="path3139" d="m 527.40014,351.10622 0,28.9197 4.53863,0 0,-28.9197 -4.53863,0 z" style="fill:#70ad47;fill-opacity:1;fill-rule:evenodd;stroke:none"/><path id="path3141" d="m 530.68221,351.12497 0,28.91971 210.05233,0 0,-28.91971 -210.05233,0 z" style="fill:#ffc000;fill-opacity:1;fill-rule:evenodd;stroke:none"/><path id="path3143" d="m 738.85907,351.12497 0,28.91971 4.38859,0 0,-28.91971 -4.38859,0 z" style="fill:#70ad47;fill-opacity:1;fill-rule:evenodd;stroke:none"/><path id="path3145" d="m 742.00985,351.12497 0,28.91971 210.05233,0 0,-28.91971 -210.05233,0 z" style="fill:#ffc000;fill-opacity:1;fill-rule:evenodd;stroke:none"/><path id="path3147" d="m 950.18672,351.12497 0,28.91971 4.53863,0 0,-28.91971 -4.53863,0 z" style="fill:#70ad47;fill-opacity:1;fill-rule:evenodd;stroke:none"/><path id="path3149" d="m 953.29999,351.12497 0,28.91971 92.68561,0 0,-28.91971 -92.68561,0 z" style="fill:#ffc000;fill-opacity:1;fill-rule:evenodd;stroke:none"/><path id="path3151" d="m 318.60437,329.70714 0,11.2528 -2.8132,0 0,-11.2528 2.8132,0 z m 0,19.6924 0,11.25281 -2.8132,0 0,-11.25281 2.8132,0 z m 0,19.69241 0,11.2528 -2.8132,0 0,-11.2528 2.8132,0 z m 0,19.69241 0,11.2528 -2.8132,0 0,-11.2528 2.8132,0 z m 0,19.6924 0,7.14553 -2.8132,0 0,-7.14553 2.8132,0 z" style="fill:#000;fill-opacity:1;fill-rule:nonzero;stroke:#000;stroke-width:.01875467px;stroke-linecap:butt;stroke-linejoin:round;stroke-opacity:1;stroke-dasharray:none"/><path id="path3153" d="m 530.0633,329.70714 0,11.2528 -2.8132,0 0,-11.2528 2.8132,0 z m 0,19.6924 0,11.25281 -2.8132,0 0,-11.25281 2.8132,0 z m 0,19.69241 0,11.2528 -2.8132,0 0,-11.2528 2.8132,0 z m 0,19.69241 0,11.2528 -2.8132,0 0,-11.2528 2.8132,0 z m 0,19.6924 0,7.14553 -2.8132,0 0,-7.14553 2.8132,0 z" style="fill:#000;fill-opacity:1;fill-rule:nonzero;stroke:#000;stroke-width:.01875467px;stroke-linecap:butt;stroke-linejoin:round;stroke-opacity:1;stroke-dasharray:none"/><path id="path3155" d="m 741.37219,329.70714 0,11.2528 -2.8132,0 0,-11.2528 2.8132,0 z m 0,19.6924 0,11.25281 -2.8132,0 0,-11.25281 2.8132,0 z m 0,19.69241 0,11.2528 -2.8132,0 0,-11.2528 2.8132,0 z m 0,19.69241 0,11.2528 -2.8132,0 0,-11.2528 2.8132,0 z m 0,19.6924 0,7.16429 -2.8132,0 0,-7.16429 2.8132,0 z" style="fill:#000;fill-opacity:1;fill-rule:nonzero;stroke:#000;stroke-width:.03750934px;stroke-linecap:butt;stroke-linejoin:round;stroke-opacity:1;stroke-dasharray:none"/><path id="path3157" d="m 952.66233,329.70714 0,11.2528 -2.8132,0 0,-11.2528 2.8132,0 z m 0,19.6924 0,11.25281 -2.8132,0 0,-11.25281 2.8132,0 z m 0,19.69241 0,11.2528 -2.8132,0 0,-11.2528 2.8132,0 z m 0,19.69241 0,11.2528 -2.8132,0 0,-11.2528 2.8132,0 z m 0,19.6924 0,7.16429 -2.8132,0 0,-7.16429 2.8132,0 z" style="fill:#000;fill-opacity:1;fill-rule:nonzero;stroke:#000;stroke-width:.03750934px;stroke-linecap:butt;stroke-linejoin:round;stroke-opacity:1;stroke-dasharray:none"/><text id="text3159" x="148.777" y="842.665" xml:space="preserve" style="font-size:19.95497131px;font-style:normal;font-weight:400;text-align:start;text-anchor:start;fill:#000;font-family:Arial">Checkpoint completes late</text><path id="path3161" d="m 287.35909,819.16657 26.78167,-53.8259 -2.51313,-1.27532 -26.78167,53.82591 2.51313,1.27531 z m 28.69465,-51.31278 -0.0375,-9.45235 -7.53938,5.70142 7.57689,3.75093 z" style="fill:#000;fill-opacity:1;fill-rule:nonzero;stroke:#000;stroke-width:.03750934px;stroke-linecap:butt;stroke-linejoin:round;stroke-opacity:1;stroke-dasharray:none"/><text id="text3163" x="395.05" y="800.995" xml:space="preserve" style="font-size:19.95497131px;font-style:normal;font-weight:400;text-align:start;text-anchor:start;fill:#000;font-family:Arial">Min.</text><text id="text3165" x="438.561" y="800.995" xml:space="preserve" style="font-size:19.95497131px;font-style:normal;font-weight:400;text-align:start;text-anchor:start;fill:#000;font-family:Arial">t</text><text id="text3167" x="444.112" y="800.995" xml:space="preserve" style="font-size:19.95497131px;font-style:normal;font-weight:400;text-align:start;text-anchor:start;fill:#000;font-family:Arial">ime between checkpoints</text><path id="path3169" d="m 387.20896,784.77051 -9.48986,-10.09002 2.06301,-1.95048 9.48987,10.12752 -2.06302,1.91298 z m -10.57763,-7.16429 -2.70067,-9.03975 8.8522,3.26331 -6.15153,5.77644 z" style="fill:#000;fill-opacity:1;fill-rule:nonzero;stroke:#000;stroke-width:.03750934px;stroke-linecap:butt;stroke-linejoin:round;stroke-opacity:1;stroke-dasharray:none"/><text id="text3171" x="441.105" y="276.309" xml:space="preserve" style="font-size:25.05624199px;font-style:normal;font-weight:700;text-align:start;text-anchor:start;fill:#000;font-family:Arial">Degraded Operation</text><text id="text3173" x="431.652" y="303.915" xml:space="preserve" style="font-size:22.5056076px;font-style:normal;font-weight:400;text-align:start;text-anchor:start;fill:#000;font-family:Arial">(constantly</text><text id="text3175" x="546.731" y="303.915" xml:space="preserve" style="font-size:22.5056076px;font-style:normal;font-weight:400;text-align:start;text-anchor:start;fill:#000;font-family:Arial">checkpointing</text><text id="text3177" x="683.865" y="303.915" xml:space="preserve" style="font-size:22.5056076px;font-style:normal;font-weight:400;text-align:start;text-anchor:start;fill:#000;font-family:Arial">)</text><text id="text3179" x="423.176" y="599.567" xml:space="preserve" style="font-size:25.05624199px;font-style:normal;font-weight:700;text-align:start;text-anchor:start;fill:#000;font-family:Arial">Guaranteeing Progress</text><text id="text3181" x="375.764" y="627.174" xml:space="preserve" style="font-size:22.5056076px;font-style:normal;font-weight:400;text-align:start;text-anchor:start;fill:#000;font-family:Arial">(ensuring some checkpoint</text><text id="text3183" x="644.331" y="627.174" xml:space="preserve" style="font-size:22.5056076px;font-style:normal;font-weight:400;text-align:start;text-anchor:start;fill:#000;font-family:Arial">-</text><text id="text3185" x="651.832" y="627.174" xml:space="preserve" style="font-size:22.5056076px;font-style:normal;font-weight:400;text-align:start;text-anchor:start;fill:#000;font-family:Arial">free time)</text><path id="path3187" d="m 422.24269,722.16741 c 0,9.18979 -11.36533,16.61664 -25.35632,16.61664 l 0,0 c -13.99098,0 -25.35631,7.46436 -25.35631,16.65415 0,-9.18979 -11.32782,-16.65415 -25.31881,-16.65415 l -4.76369,0 c -13.99098,0 -25.3188,-7.42685 -25.3188,-16.61664" style="fill:none;stroke:#000;stroke-width:1.87546718px;stroke-linecap:butt;stroke-linejoin:miter;stroke-miterlimit:4;stroke-opacity:1;stroke-dasharray:none"/></g></g></svg>