<svg xmlns="http://www.w3.org/2000/svg" xmlns:xlink="http://www.w3.org/1999/xlink" width="877" height="397" fill="#000" fill-opacity="1" stroke="#000" stroke-dasharray="none" stroke-dashoffset="0" stroke-linecap="square" stroke-linejoin="miter" stroke-miterlimit="10" stroke-opacity="1" stroke-width="1" color-interpolation="auto" color-rendering="auto" font-family="'Dialog'" font-size="12" font-style="normal" font-weight="normal" image-rendering="auto" shape-rendering="auto" text-rendering="auto"><g><defs id="defs1"><linearGradient id="linearGradient1" x1="336.5" x2="506.5" y1="386.5" y2="426.5" gradientUnits="userSpaceOnUse" spreadMethod="reflect"><stop offset="0%" stop-color="#E8EEF7" stop-opacity="1"/><stop offset="100%" stop-color="#B7C9E3" stop-opacity="1"/></linearGradient><clipPath id="clipPath1" clipPathUnits="userSpaceOnUse"><path d="M0 0 L877 0 L877 397 L0 397 L0 0 Z"/></clipPath><clipPath id="clipPath2" clipPathUnits="userSpaceOnUse"><path d="M77 45 L954 45 L954 442 L77 442 L77 45 Z"/></clipPath></defs><g fill="#fff" stroke="#fff" shape-rendering="geometricPrecision" text-rendering="geometricPrecision" transform="translate(-77,-45)"><rect width="877" height="397" x="77" y="45" stroke="none" clip-path="url(#clipPath2)"/></g><g fill="#099" stroke="#099" shape-rendering="geometricPrecision" text-rendering="geometricPrecision" transform="matrix(1,0,0,1,-77,-45)"><rect width="119" height="117" x="92" y="209" stroke="none" clip-path="url(#clipPath2)" rx="4" ry="4"/></g><g stroke-linecap="butt" stroke-miterlimit="1.45" font-family="sans-serif" shape-rendering="geometricPrecision" text-rendering="geometricPrecision" transform="matrix(1,0,0,1,-77,-45)"><text x="107.924" y="226.139" stroke="none" clip-path="url(#clipPath2)" xml:space="preserve">&quot;Master&quot; Node</text><rect width="119" height="117" x="92" y="209" fill="none" clip-path="url(#clipPath2)" rx="4" ry="4"/></g><g fill="#099" stroke="#099" shape-rendering="geometricPrecision" text-rendering="geometricPrecision" transform="matrix(1,0,0,1,-77,-45)"><rect width="105" height="117" x="369" y="60" stroke="none" clip-path="url(#clipPath2)" rx="4" ry="4"/></g><g stroke-linecap="butt" stroke-miterlimit="1.45" font-family="sans-serif" shape-rendering="geometricPrecision" text-rendering="geometricPrecision" transform="matrix(1,0,0,1,-77,-45)"><text x="375.498" y="115.67" stroke="none" clip-path="url(#clipPath2)" xml:space="preserve">YARN Resource</text><text x="395.449" y="129.639" stroke="none" clip-path="url(#clipPath2)" xml:space="preserve">Manager</text><rect width="105" height="117" x="369" y="60" fill="none" clip-path="url(#clipPath2)" rx="4" ry="4"/></g><g fill="#099" stroke="#099" shape-rendering="geometricPrecision" text-rendering="geometricPrecision" transform="matrix(1,0,0,1,-77,-45)"><rect width="105" height="117" x="369" y="212" stroke="none" clip-path="url(#clipPath2)" rx="4" ry="4"/></g><g stroke-linecap="butt" stroke-miterlimit="1.45" font-family="sans-serif" shape-rendering="geometricPrecision" text-rendering="geometricPrecision" transform="matrix(1,0,0,1,-77,-45)"><text x="373.846" y="229.139" stroke="none" clip-path="url(#clipPath2)" xml:space="preserve">YARN Container</text><rect width="105" height="117" x="369" y="212" fill="none" clip-path="url(#clipPath2)" rx="4" ry="4"/></g><g fill="#099" stroke="#099" shape-rendering="geometricPrecision" text-rendering="geometricPrecision" transform="matrix(1,0,0,1,-77,-45)"><rect width="105" height="117" x="614" y="212" stroke="none" clip-path="url(#clipPath2)" rx="4" ry="4"/></g><g stroke-linecap="butt" stroke-miterlimit="1.45" font-family="sans-serif" shape-rendering="geometricPrecision" text-rendering="geometricPrecision" transform="matrix(1,0,0,1,-77,-45)"><text x="618.846" y="229.139" stroke="none" clip-path="url(#clipPath2)" xml:space="preserve">YARN Container</text><rect width="105" height="117" x="614" y="212" fill="none" clip-path="url(#clipPath2)" rx="4" ry="4"/></g><g fill="url(#linearGradient1)" stroke="url(#linearGradient1)" shape-rendering="geometricPrecision" text-rendering="geometricPrecision" transform="matrix(1,0,0,1,-77,-45)"><path stroke="none" d="M336.5 394.5 C341.6 386.5 501.4 386.5 506.5 394.5 L506.5 418.5 C501.4 426.5 341.6 426.5 336.5 418.5 Z" clip-path="url(#clipPath2)"/></g><g stroke-linecap="butt" stroke-miterlimit="1.45" shape-rendering="geometricPrecision" text-rendering="geometricPrecision"><path fill="none" d="M336.5 394.5 C341.6 386.5 501.4 386.5 506.5 394.5 L506.5 418.5 C501.4 426.5 341.6 426.5 336.5 418.5 Z" clip-path="url(#clipPath2)" transform="matrix(1,0,0,1,-77,-45)"/><path fill="none" d="M506.5 394.5 C501.4 402.5 341.6 402.5 336.5 394.5" clip-path="url(#clipPath2)" transform="matrix(1,0,0,1,-77,-45)"/><text x="405.108" y="410.654" stroke="none" clip-path="url(#clipPath2)" font-family="sans-serif" transform="matrix(1,0,0,1,-77,-45)" xml:space="preserve">HDFS</text></g><g fill="#099" stroke="#099" shape-rendering="geometricPrecision" text-rendering="geometricPrecision" transform="matrix(1,0,0,1,-77,-45)"><rect width="105" height="117" x="791" y="212" stroke="none" clip-path="url(#clipPath2)" rx="4" ry="4"/></g><g stroke-linecap="butt" stroke-miterlimit="1.45" font-family="sans-serif" shape-rendering="geometricPrecision" text-rendering="geometricPrecision" transform="matrix(1,0,0,1,-77,-45)"><text x="795.846" y="229.139" stroke="none" clip-path="url(#clipPath2)" xml:space="preserve">YARN Container</text><rect width="105" height="117" x="791" y="212" fill="none" clip-path="url(#clipPath2)" rx="4" ry="4"/></g><g fill="#396" stroke="#396" shape-rendering="geometricPrecision" text-rendering="geometricPrecision" transform="matrix(1,0,0,1,-77,-45)"><rect width="105" height="30" x="99" y="242.5" stroke="none" clip-path="url(#clipPath2)"/></g><g stroke-linecap="butt" stroke-miterlimit="1.45" font-family="sans-serif" shape-rendering="geometricPrecision" text-rendering="geometricPrecision" transform="matrix(1,0,0,1,-77,-45)"><text x="137.438" y="254.67" stroke="none" clip-path="url(#clipPath2)" xml:space="preserve">Flink</text><text x="115.796" y="268.639" stroke="none" clip-path="url(#clipPath2)" xml:space="preserve">YARN Client</text><rect width="105" height="30" x="99" y="242.5" fill="none" clip-path="url(#clipPath2)"/></g><g fill="#396" stroke="#396" shape-rendering="geometricPrecision" text-rendering="geometricPrecision" transform="matrix(1,0,0,1,-77,-45)"><rect width="93" height="30" x="375" y="252.5" stroke="none" clip-path="url(#clipPath2)"/></g><g stroke-linecap="butt" stroke-miterlimit="1.45" font-family="sans-serif" shape-rendering="geometricPrecision" text-rendering="geometricPrecision" transform="matrix(1,0,0,1,-77,-45)"><text x="407.438" y="264.67" stroke="none" clip-path="url(#clipPath2)" xml:space="preserve">Flink</text><text x="385.951" y="278.639" stroke="none" clip-path="url(#clipPath2)" xml:space="preserve">JobManager</text><rect width="93" height="30" x="375" y="252.5" fill="none" clip-path="url(#clipPath2)"/></g><g fill="#396" stroke="#396" shape-rendering="geometricPrecision" text-rendering="geometricPrecision" transform="matrix(1,0,0,1,-77,-45)"><rect width="93" height="30" x="375" y="282.5" stroke="none" clip-path="url(#clipPath2)"/></g><g stroke-linecap="butt" stroke-miterlimit="1.45" font-family="sans-serif" shape-rendering="geometricPrecision" text-rendering="geometricPrecision" transform="matrix(1,0,0,1,-77,-45)"><text x="389.537" y="294.67" stroke="none" clip-path="url(#clipPath2)" xml:space="preserve">YARN App.</text><text x="401.01" y="308.639" stroke="none" clip-path="url(#clipPath2)" xml:space="preserve">Master</text><rect width="93" height="30" x="375" y="282.5" fill="none" clip-path="url(#clipPath2)"/></g><g fill="#396" stroke="#396" shape-rendering="geometricPrecision" text-rendering="geometricPrecision" transform="matrix(1,0,0,1,-77,-45)"><rect width="93" height="30" x="620" y="255.5" stroke="none" clip-path="url(#clipPath2)"/></g><g stroke-linecap="butt" stroke-miterlimit="1.45" font-family="sans-serif" shape-rendering="geometricPrecision" text-rendering="geometricPrecision" transform="matrix(1,0,0,1,-77,-45)"><text x="652.438" y="267.67" stroke="none" clip-path="url(#clipPath2)" xml:space="preserve">Flink</text><text x="626.258" y="281.639" stroke="none" clip-path="url(#clipPath2)" xml:space="preserve">TaskManager</text><rect width="93" height="30" x="620" y="255.5" fill="none" clip-path="url(#clipPath2)"/></g><g fill="#396" stroke="#396" shape-rendering="geometricPrecision" text-rendering="geometricPrecision" transform="matrix(1,0,0,1,-77,-45)"><rect width="93" height="30" x="797" y="255.5" stroke="none" clip-path="url(#clipPath2)"/></g><g stroke-linecap="butt" stroke-miterlimit="1.45" font-family="sans-serif" shape-rendering="geometricPrecision" text-rendering="geometricPrecision" transform="matrix(1,0,0,1,-77,-45)"><text x="829.438" y="267.67" stroke="none" clip-path="url(#clipPath2)" xml:space="preserve">Flink</text><text x="803.258" y="281.639" stroke="none" clip-path="url(#clipPath2)" xml:space="preserve">TaskManager</text><rect width="93" height="30" x="797" y="255.5" fill="none" clip-path="url(#clipPath2)"/><text x="917.162" y="274.654" stroke="none" clip-path="url(#clipPath2)" font-weight="bold" xml:space="preserve">...</text><path fill="none" d="M210.991 234.6698 L361.997 151.3369" clip-path="url(#clipPath2)"/><path stroke="none" d="M369.0012 147.4715 L356.079 148.8919 L361.1215 151.82 L360.9107 157.6472 Z" clip-path="url(#clipPath2)"/><text x="157.756" y="141.712" stroke="none" clip-path="url(#clipPath2)" font-weight="bold" xml:space="preserve">2. Register resources</text><text x="150.429" y="155.681" stroke="none" clip-path="url(#clipPath2)" font-weight="bold" xml:space="preserve">and request AppMaster</text><text x="199.911" y="169.65" stroke="none" clip-path="url(#clipPath2)" font-weight="bold" xml:space="preserve">container</text><path fill="none" d="M421.5 177.0215 L421.5 204.0303" clip-path="url(#clipPath2)"/><path stroke="none" d="M421.5 212.0303 L426.5 200.0303 L421.5 203.0303 L416.5 200.0303 Z" clip-path="url(#clipPath2)"/><text x="452.566" y="198.654" stroke="none" clip-path="url(#clipPath2)" font-weight="bold" xml:space="preserve">3. Allocate AppMaster Container</text><path fill="none" d="M473.9872 270.5 L606.0008 270.5" clip-path="url(#clipPath2)"/><path stroke="none" d="M614.0008 270.5 L602.0008 265.5 L605.0008 270.5 L602.0008 275.5 Z" clip-path="url(#clipPath2)"/><text x="481.228" y="304.654" stroke="none" clip-path="url(#clipPath2)" font-weight="bold" xml:space="preserve">4. Allocate Worker</text><path fill="none" d="M210.991 298.1268 L380.3388 385.3096" clip-path="url(#clipPath2)"/><path stroke="none" d="M387.4516 388.9714 L379.071 379.0333 L379.4497 384.8519 L374.4938 387.9242 Z" clip-path="url(#clipPath2)"/><text x="207.476" y="355.149" stroke="none" clip-path="url(#clipPath2)" font-weight="bold" xml:space="preserve">1. Store Uberjar</text><text x="201.494" y="369.117" stroke="none" clip-path="url(#clipPath2)" font-weight="bold" xml:space="preserve">and configuration</text><path fill="none" stroke="gray" d="M421.5 388.4707 L421.5 336.9957" clip-path="url(#clipPath2)"/><path fill="gray" stroke="none" d="M421.5 328.9957 L416.5 340.9957 L421.5 337.9957 L426.5 340.9957 Z" clip-path="url(#clipPath2)"/><path fill="none" stroke="gray" d="M453.1718 388.9189 L606.9806 303.5393" clip-path="url(#clipPath2)"/><path fill="gray" stroke="none" d="M613.9752 299.6566 L601.0566 301.109 L606.1063 304.0247 L605.91 309.8523 Z" clip-path="url(#clipPath2)"/><path fill="none" d="M719.0037 270.5 L783.0085 270.5" clip-path="url(#clipPath2)"/><path stroke="none" d="M791.0085 270.5 L779.0085 265.5 L782.0085 270.5 L779.0085 275.5 Z" clip-path="url(#clipPath2)"/><path fill="none" stroke="gray" d="M473.6061 389.7075 L783.3726 289.8775" clip-path="url(#clipPath2)"/><path fill="gray" stroke="none" d="M790.987 287.4236 L778.0318 286.3455 L782.4208 290.1843 L781.0992 295.8634 Z" clip-path="url(#clipPath2)"/><text x="542.072" y="392.136" stroke="none" clip-path="url(#clipPath2)" font-weight="bold" xml:space="preserve">Always Bootstrap containers with</text><text x="593.111" y="406.105" stroke="none" clip-path="url(#clipPath2)" font-weight="bold" xml:space="preserve">Uberjar and config</text></g></g></svg>