<svg xmlns="http://www.w3.org/2000/svg" xmlns:xlink="http://www.w3.org/1999/xlink" width="1000" height="350" version="1.1" viewBox="0 0 1000 350" style="background:#fff"><title>Interval Join (Selected)</title><desc>Created with Sketch.</desc><g id="Page-1" fill="none" fill-rule="evenodd" stroke="none" stroke-width="1"><g id="Interval-Join-(Selected)"><text id="time" fill="#34323B" font-family="Roboto-Regular, Roboto" font-size="16" font-weight="normal"><tspan x="882" y="262">time</tspan></text><g id="Group-3" stroke="#979797" stroke-linecap="square" transform="translate(116.000000, 229.000000)"><path id="Line" stroke-width="2" d="M0.5,5.5 L781.5,5.5"/><path id="Line-decoration-1" stroke-width="2" d="M781.5,5.5 L770.7,2.5 L770.7,8.5 L781.5,5.5 Z"/><path id="Line-3" d="M132.5,0.5 L132.5,10.5"/><path id="Line-3-Copy" d="M31.5,0.5 L31.5,10.5"/><path id="Line-3-Copy" d="M234.5,0.5 L234.5,10.5"/><path id="Line-3-Copy" d="M334.5,0.5 L334.5,10.5"/><path id="Line-3-Copy" d="M435.5,0.5 L435.5,10.5"/><path id="Line-3-Copy" d="M536.5,0.5 L536.5,10.5"/><path id="Line-3-Copy" d="M638.5,0.5 L638.5,10.5"/><path id="Line-3-Copy" d="M739.5,0.5 L739.5,10.5"/></g><g id="Group-3-Copy" stroke="#979797" stroke-linecap="square" transform="translate(116.000000, 93.000000)"><path id="Line" stroke-width="2" d="M0.5,5.5 L781.5,5.5"/><path id="Line-decoration-1" stroke-width="2" d="M781.5,5.5 L770.7,2.5 L770.7,8.5 L781.5,5.5 Z"/><path id="Line-3" d="M132.5,0.5 L132.5,10.5"/><path id="Line-3-Copy" d="M31.5,0.5 L31.5,10.5"/><path id="Line-3-Copy" d="M234.5,0.5 L234.5,10.5"/><path id="Line-3-Copy" d="M334.5,0.5 L334.5,10.5"/><path id="Line-3-Copy" d="M435.5,0.5 L435.5,10.5"/><path id="Line-3-Copy" d="M536.5,0.5 L536.5,10.5"/><path id="Line-3-Copy" d="M638.5,0.5 L638.5,10.5"/><path id="Line-3-Copy" d="M739.5,0.5 L739.5,10.5"/></g><g id="StreamRecord-Copy-7" transform="translate(740.000000, 85.000000)"><circle id="Oval" cx="12.5" cy="12.5" r="12.5" fill="#7ED321" stroke="#979797"/><text id="6" fill="#34323B" font-family="Roboto-Regular, Roboto" font-size="16" font-weight="normal"><tspan x="8" y="18">6</tspan></text></g><g id="StreamRecord-Copy-7" transform="translate(842.000000, 86.000000)"><circle id="Oval" cx="12.5" cy="12.5" r="12.5" fill="#7ED321" stroke="#979797"/><text id="7" fill="#34323B" font-family="Roboto-Regular, Roboto" font-size="16" font-weight="normal"><tspan x="8" y="18">7</tspan></text></g><g id="StreamRecord-Copy" transform="translate(435.000000, 222.000000)"><circle id="Oval" cx="12.5" cy="12.5" r="12.5" fill="#F5A623" stroke="#979797"/><text id="3" fill="#34323B" font-family="Roboto-Regular, Roboto" font-size="16" font-weight="normal"><tspan x="8" y="18">3</tspan></text></g><g id="StreamRecord-Copy-2" transform="translate(540.000000, 222.000000)"><circle id="Oval" cx="12.5" cy="12.5" r="12.5" fill="#F5A623" stroke="#979797"/><text id="4" fill="#34323B" font-family="Roboto-Regular, Roboto" font-size="16" font-weight="normal"><tspan x="8" y="18">4</tspan></text></g><g id="StreamRecord-Copy-3" transform="translate(640.000000, 222.000000)"><circle id="Oval" cx="12.5" cy="12.5" r="12.5" fill="#F5A623" stroke="#979797"/><text id="5" fill="#34323B" font-family="Roboto-Regular, Roboto" font-size="16" font-weight="normal"><tspan x="8" y="18">5</tspan></text></g><g id="StreamRecord-Copy-5" transform="translate(842.000000, 222.000000)"><circle id="Oval" cx="12.5" cy="12.5" r="12.5" fill="#F5A623" stroke="#979797"/><text id="7" fill="#34323B" font-family="Roboto-Regular, Roboto" font-size="16" font-weight="normal"><tspan x="8" y="18">7</tspan></text></g><g id="StreamRecord-Copy-6" transform="translate(136.000000, 222.000000)"><circle id="Oval" cx="12.5" cy="12.5" r="12.5" fill="#F5A623" stroke="#979797"/><text id="0" fill="#34323B" font-family="Roboto-Regular, Roboto" font-size="16" font-weight="normal"><tspan x="8" y="18">0</tspan></text></g><text id="0,0-0,1" fill="#9B9B9B" font-family="AndaleMono, Andale Mono" font-size="20" font-weight="normal"><tspan x="131" y="276">0,0</tspan> <tspan x="131" y="298">0,1</tspan></text><text id="2,0-2,1" fill="#34323B" font-family="AndaleMono, Andale Mono" font-size="20" font-weight="normal"><tspan x="334" y="276">2,0</tspan> <tspan x="334" y="298">2,1</tspan></text><text id="3,1" fill="#9B9B9B" font-family="AndaleMono, Andale Mono" font-size="20" font-weight="normal"><tspan x="429" y="276">3,1</tspan></text><text id="5,6" fill="#9B9B9B" font-family="AndaleMono, Andale Mono" font-size="20" font-weight="normal"><tspan x="634" y="276">5,6</tspan></text><text id="7,6-7,7" fill="#9B9B9B" font-family="AndaleMono, Andale Mono" font-size="20" font-weight="normal"><tspan x="836" y="276">7,6</tspan> <tspan x="836" y="298">7,7</tspan></text><polygon id="Path-3" fill="#9B9B9B" fill-opacity=".1" points="-51 99.838 151.566 235.969 251.678 99.838"/><polygon id="Path-3" fill="#9B9B9B" fill-opacity=".1" points="246 99.838 448.566 235.969 548.678 99.838"/><polygon id="Path-3" fill="#9B9B9B" fill-opacity=".1" points="350 99.838 552.566 235.969 652.678 99.838"/><polygon id="Path-3" fill="#9B9B9B" fill-opacity=".1" points="448 99.838 650.566 235.969 750.678 99.838"/><polygon id="Path-3" fill="#9B9B9B" fill-opacity=".1" points="651 99.838 853.566 235.969 953.678 99.838"/><polygon id="Path-3" fill="#F8E71C" fill-opacity=".5" points="148.285 99.838 350.851 235.969 450.962 99.838"/><g id="StreamRecord-Copy-7" transform="translate(235.000000, 85.000000)"><circle id="Oval" cx="12.5" cy="12.5" r="12.5" fill="#7ED321" stroke="#979797"/><text id="1" fill="#34323B" font-family="Roboto-Regular, Roboto" font-size="16" font-weight="normal"><tspan x="8" y="18">1</tspan></text></g><text id="lower-bound" fill="#34323B" font-family="AndaleMono, Andale Mono" font-size="14" font-weight="normal" transform="translate(246.800863, 159.474217) rotate(34.000000) translate(-246.800863, -159.474217)"><tspan x="200.301" y="164.474">lower bound</tspan></text><text id="upper-bound" fill="#34323B" font-family="AndaleMono, Andale Mono" font-size="14" font-weight="normal" transform="translate(398.500000, 156.000000) rotate(-53.000000) translate(-398.500000, -156.000000)"><tspan x="352" y="161">upper bound</tspan></text><g id="StreamRecord" transform="translate(338.000000, 222.000000)"><circle id="Oval" cx="12.5" cy="12.5" r="12.5" fill="#F5A623" stroke="#979797"/><text id="2" fill="#34323B" font-family="Roboto-Regular, Roboto" font-size="16" font-weight="normal"><tspan x="8" y="18">2</tspan></text></g><g id="StreamRecord-Copy-6" transform="translate(135.000000, 86.000000)"><circle id="Oval" cx="12.5" cy="12.5" r="12.5" fill="#7ED321" stroke="#979797"/><text id="0" fill="#34323B" font-family="Roboto-Regular, Roboto" font-size="16" font-weight="normal"><tspan x="8" y="18">0</tspan></text></g></g></g></svg>