<svg xmlns="http://www.w3.org/2000/svg" xmlns:svg="http://www.w3.org/2000/svg" id="svg2" width="973.232" height="368.075" version="1.1"><metadata id="metadata7"/><g id="layer1" transform="translate(-96.241404,-274.03921)"><g id="g2989" transform="translate(46.930682,85.315634)"><path id="path2991" d="m 282.50163,258.5144 c 0,-23.25579 18.8672,-42.12299 42.12299,-42.12299 23.2558,0 42.123,18.8672 42.123,42.12299 0,23.2558 -18.8672,42.123 -42.123,42.123 -23.25579,0 -42.12299,-18.8672 -42.12299,-42.123" style="fill:#bfbfbf;fill-opacity:1;fill-rule:evenodd;stroke:none"/><text id="text2993" x="295.813" y="255.08" xml:space="preserve" style="font-size:16.6541481px;font-style:normal;font-weight:400;text-align:start;text-anchor:start;fill:#000;font-family:Verdana">Source</text><text id="text2995" x="311.867" y="275.185" xml:space="preserve" style="font-size:16.6541481px;font-style:normal;font-weight:400;text-align:start;text-anchor:start;fill:#000;font-family:Verdana">(1)</text><path id="path2997" d="m 281.41386,489.66574 c 0,-23.2558 18.84844,-42.123 42.12299,-42.123 23.25579,0 42.10424,18.8672 42.10424,42.123 0,23.25579 -18.84845,42.12299 -42.10424,42.12299 -23.27455,0 -42.12299,-18.8672 -42.12299,-42.12299" style="fill:#bfbfbf;fill-opacity:1;fill-rule:evenodd;stroke:none"/><text id="text2999" x="294.689" y="486.298" xml:space="preserve" style="font-size:16.6541481px;font-style:normal;font-weight:400;text-align:start;text-anchor:start;fill:#000;font-family:Verdana">Source</text><text id="text3001" x="310.743" y="506.403" xml:space="preserve" style="font-size:16.6541481px;font-style:normal;font-weight:400;text-align:start;text-anchor:start;fill:#000;font-family:Verdana">(2)</text><path id="path3003" d="m 522.09257,258.5144 c 0,-23.25579 18.88595,-42.12299 42.19801,-42.12299 23.31206,0 42.19801,18.8672 42.19801,42.12299 0,23.2558 -18.88595,42.123 -42.19801,42.123 -23.31206,0 -42.19801,-18.8672 -42.19801,-42.123" style="fill:#bfbfbf;fill-opacity:1;fill-rule:evenodd;stroke:none"/><text id="text3005" x="546.004" y="255.08" xml:space="preserve" style="font-size:16.6541481px;font-style:normal;font-weight:400;text-align:start;text-anchor:start;fill:#000;font-family:Verdana">map</text><text id="text3007" x="551.555" y="275.185" xml:space="preserve" style="font-size:16.6541481px;font-style:normal;font-weight:400;text-align:start;text-anchor:start;fill:#000;font-family:Verdana">(1)</text><path id="path3009" d="m 522.09257,489.66574 c 0,-23.2558 18.88595,-42.123 42.19801,-42.123 23.31206,0 42.19801,18.8672 42.19801,42.123 0,23.25579 -18.88595,42.12299 -42.19801,42.12299 -23.31206,0 -42.19801,-18.8672 -42.19801,-42.12299" style="fill:#bfbfbf;fill-opacity:1;fill-rule:evenodd;stroke:none"/><text id="text3011" x="546.004" y="486.298" xml:space="preserve" style="font-size:16.6541481px;font-style:normal;font-weight:400;text-align:start;text-anchor:start;fill:#000;font-family:Verdana">map</text><text id="text3013" x="551.555" y="506.403" xml:space="preserve" style="font-size:16.6541481px;font-style:normal;font-weight:400;text-align:start;text-anchor:start;fill:#000;font-family:Verdana">(2)</text><path id="path3015" d="m 881.73216,258.5144 c 0,-23.25579 18.8672,-42.12299 42.123,-42.12299 23.25579,0 42.12299,18.8672 42.12299,42.12299 0,23.2558 -18.8672,42.123 -42.12299,42.123 -23.2558,0 -42.123,-18.8672 -42.123,-42.123" style="fill:#bfbfbf;fill-opacity:1;fill-rule:evenodd;stroke:none"/><text id="text3017" x="892.683" y="255.08" xml:space="preserve" style="font-size:16.6541481px;font-style:normal;font-weight:400;text-align:start;text-anchor:start;fill:#000;font-family:Verdana">window</text><text id="text3019" x="911.138" y="275.185" xml:space="preserve" style="font-size:16.6541481px;font-style:normal;font-weight:400;text-align:start;text-anchor:start;fill:#000;font-family:Verdana">(1)</text><path id="path3021" d="m 881.73216,489.68449 c 0,-23.25579 18.8672,-42.12299 42.123,-42.12299 23.25579,0 42.12299,18.8672 42.12299,42.12299 0,23.2558 -18.8672,42.123 -42.12299,42.123 -23.2558,0 -42.123,-18.8672 -42.123,-42.123" style="fill:#bfbfbf;fill-opacity:1;fill-rule:evenodd;stroke:none"/><text id="text3023" x="892.683" y="486.298" xml:space="preserve" style="font-size:16.6541481px;font-style:normal;font-weight:400;text-align:start;text-anchor:start;fill:#000;font-family:Verdana">window</text><text id="text3025" x="911.138" y="506.403" xml:space="preserve" style="font-size:16.6541481px;font-style:normal;font-weight:400;text-align:start;text-anchor:start;fill:#000;font-family:Verdana">(2)</text><path id="path3027" d="m 336.89018,212.30289 c 0,-2.92573 2.36309,-5.28882 5.28882,-5.28882 l 21.15527,0 c 2.92572,0 5.28881,2.36309 5.28881,5.28882 l 0,21.15527 c 0,2.92573 -2.36309,5.28882 -5.28881,5.28882 l -21.15527,0 c -2.92573,0 -5.28882,-2.36309 -5.28882,-5.28882 z" style="fill:#ffd966;fill-opacity:1;fill-rule:evenodd;stroke:none"/><text id="text3029" x="342.153" y="229.519" xml:space="preserve" style="font-size:16.6541481px;font-style:normal;font-weight:400;text-align:start;text-anchor:start;fill:#000;font-family:Verdana">33</text><path id="path3031" d="m 336.89018,446.73629 c 0,-2.92573 2.36309,-5.28881 5.28882,-5.28881 l 21.15527,0 c 2.92572,0 5.28881,2.36308 5.28881,5.28881 l 0,21.15527 c 0,2.92573 -2.36309,5.28882 -5.28881,5.28882 l -21.15527,0 c -2.92573,0 -5.28882,-2.36309 -5.28882,-5.28882 z" style="fill:#ffd966;fill-opacity:1;fill-rule:evenodd;stroke:none"/><text id="text3033" x="342.153" y="463.82" xml:space="preserve" style="font-size:16.6541481px;font-style:normal;font-weight:400;text-align:start;text-anchor:start;fill:#000;font-family:Verdana">17</text><path id="path3035" d="m 381.43252,251.20008 111.51529,0 0,-7.29557 14.60989,14.60989 -14.60989,14.60989 0,-7.29557 -111.51529,0 z" style="fill:#d9d9d9;fill-opacity:1;fill-rule:evenodd;stroke:none"/><path id="path3037" d="m 618.07898,251.20008 238.10932,0 0,-7.27681 14.59113,14.59113 -14.59113,14.62865 0,-7.31433 -238.10932,0 z" style="fill:#d9d9d9;fill-opacity:1;fill-rule:evenodd;stroke:none"/><path id="path3039" d="m 381.43252,480.47595 111.51529,0 0,-7.29557 14.60989,14.60989 -14.60989,14.60989 0,-7.29557 -111.51529,0 z" style="fill:#d9d9d9;fill-opacity:1;fill-rule:evenodd;stroke:none"/><path id="path3041" d="m 618.07898,480.4947 238.10932,0 0,-7.31432 14.59113,14.62865 -14.59113,14.59113 0,-7.27681 -238.10932,0 z" style="fill:#d9d9d9;fill-opacity:1;fill-rule:evenodd;stroke:none"/><path id="path3043" d="m 624.49308,279.18205 237.58419,163.69078 4.16353,-6.039 3.75094,20.36757 -20.36758,3.75093 4.12603,-6.00149 -237.54668,-163.69078 z" style="fill:#d9d9d9;fill-opacity:1;fill-rule:evenodd;stroke:none"/><path id="path3045" d="m 626.21851,467.10387 237.58418,-163.69078 4.16354,6.039 3.75094,-20.36757 -20.36758,-3.75094 4.16354,6.0015 -237.58419,163.69078 z" style="fill:#d9d9d9;fill-opacity:1;fill-rule:evenodd;stroke:none"/><path id="path3047" d="m 585.70841,212.30289 c 0,-2.92573 2.36309,-5.28882 5.28882,-5.28882 l 21.15527,0 c 2.92573,0 5.28882,2.36309 5.28882,5.28882 l 0,21.15527 c 0,2.92573 -2.36309,5.28882 -5.28882,5.28882 l -21.15527,0 c -2.92573,0 -5.28882,-2.36309 -5.28882,-5.28882 z" style="fill:#ffd966;fill-opacity:1;fill-rule:evenodd;stroke:none"/><text id="text3049" x="590.99" y="229.519" xml:space="preserve" style="font-size:16.6541481px;font-style:normal;font-weight:400;text-align:start;text-anchor:start;fill:#000;font-family:Verdana">29</text><path id="path3051" d="m 839.04653,227.94429 c 0,-2.92573 2.36309,-5.28882 5.28882,-5.28882 l 21.15527,0 c 2.92572,0 5.28881,2.36309 5.28881,5.28882 l 0,21.15527 c 0,2.92573 -2.36309,5.28881 -5.28881,5.28881 l -21.15527,0 c -2.92573,0 -5.28882,-2.36308 -5.28882,-5.28881 z" style="fill:#ffd966;fill-opacity:1;fill-rule:evenodd;stroke:none"/><text id="text3053" x="844.216" y="245.062" xml:space="preserve" style="font-size:16.6541481px;font-style:normal;font-weight:400;text-align:start;text-anchor:start;fill:#000;font-family:Verdana">29</text><path id="path3055" d="m 585.85845,446.73629 c 0,-2.92573 2.36309,-5.28881 5.28882,-5.28881 l 21.15527,0 c 2.92573,0 5.28882,2.36308 5.28882,5.28881 l 0,21.15527 c 0,2.92573 -2.36309,5.28882 -5.28882,5.28882 l -21.15527,0 c -2.92573,0 -5.28882,-2.36309 -5.28882,-5.28882 z" style="fill:#ffd966;fill-opacity:1;fill-rule:evenodd;stroke:none"/><text id="text3057" x="591.164" y="463.82" xml:space="preserve" style="font-size:16.6541481px;font-style:normal;font-weight:400;text-align:start;text-anchor:start;fill:#000;font-family:Verdana">17</text><path id="path3059" d="m 849.99926,296.84895 c 0,-2.88822 2.36308,-5.28882 5.28881,-5.28882 l 21.15527,0 c 2.92573,0 5.28882,2.4006 5.28882,5.28882 l 0,21.15527 c 0,2.92573 -2.36309,5.28882 -5.28882,5.28882 l -21.15527,0 c -2.92573,0 -5.28881,-2.36309 -5.28881,-5.28882 z" style="fill:#ffd966;fill-opacity:1;fill-rule:evenodd;stroke:none"/><text id="text3061" x="855.263" y="314.063" xml:space="preserve" style="font-size:16.6541481px;font-style:normal;font-weight:400;text-align:start;text-anchor:start;fill:#000;font-family:Verdana">14</text><path id="path3063" d="m 849.99926,501.91254 c 0,-2.92573 2.36308,-5.28882 5.28881,-5.28882 l 21.15527,0 c 2.92573,0 5.28882,2.36309 5.28882,5.28882 l 0,21.15527 c 0,2.92573 -2.36309,5.28882 -5.28882,5.28882 l -21.15527,0 c -2.92573,0 -5.28881,-2.36309 -5.28881,-5.28882 z" style="fill:#ffd966;fill-opacity:1;fill-rule:evenodd;stroke:none"/><text id="text3065" x="855.263" y="518.985" xml:space="preserve" style="font-size:16.6541481px;font-style:normal;font-weight:400;text-align:start;text-anchor:start;fill:#000;font-family:Verdana">14</text><path id="path3067" d="m 864.36534,420.62979 c 0,-2.88822 2.36308,-5.28882 5.28881,-5.28882 l 21.15527,0 c 2.92573,0 5.28882,2.4006 5.28882,5.28882 l 0,21.15527 c 0,2.92573 -2.36309,5.28882 -5.28882,5.28882 l -21.15527,0 c -2.92573,0 -5.28881,-2.36309 -5.28881,-5.28882 z" style="fill:#ffd966;fill-opacity:1;fill-rule:evenodd;stroke:none"/><text id="text3069" x="869.556" y="437.708" xml:space="preserve" style="font-size:16.6541481px;font-style:normal;font-weight:400;text-align:start;text-anchor:start;fill:#000;font-family:Verdana">29</text><path id="path3071" d="m 945.34801,446.73629 c 0,-2.92573 2.36309,-5.28881 5.28882,-5.28881 l 21.11776,0 c 2.92573,0 5.28882,2.36308 5.28882,5.28881 l 0,21.15527 c 0,2.92573 -2.36309,5.28882 -5.28882,5.28882 l -21.11776,0 c -2.92573,0 -5.28882,-2.36309 -5.28882,-5.28882 z" style="fill:#ffd966;fill-opacity:1;fill-rule:evenodd;stroke:none"/><text id="text3073" x="950.597" y="463.82" xml:space="preserve" style="font-size:16.6541481px;font-style:normal;font-weight:400;text-align:start;text-anchor:start;fill:#000;font-family:Verdana">14</text><path id="path3075" d="m 945.34801,212.30289 c 0,-2.92573 2.36309,-5.28882 5.28882,-5.28882 l 21.11776,0 c 2.92573,0 5.28882,2.36309 5.28882,5.28882 l 0,21.15527 c 0,2.92573 -2.36309,5.28882 -5.28882,5.28882 l -21.11776,0 c -2.92573,0 -5.28882,-2.36309 -5.28882,-5.28882 z" style="fill:#ffd966;fill-opacity:1;fill-rule:evenodd;stroke:none"/><text id="text3077" x="950.618" y="229.519" xml:space="preserve" style="font-size:16.6541481px;font-style:normal;font-weight:400;text-align:start;text-anchor:start;fill:#000;font-family:Verdana">14</text><path id="path3079" d="m 466.44745,234.99604 0,1.87547 -1.87546,0 0,-1.87547 1.87546,0 z m 0,3.75094 0,1.87547 -1.87546,0 0,-1.87547 1.87546,0 z m 0,3.75093 0,1.87547 -1.87546,0 0,-1.87547 1.87546,0 z m 0,3.75094 0,1.87546 -1.87546,0 0,-1.87546 1.87546,0 z m 0,3.75093 0,1.87547 -1.87546,0 0,-1.87547 1.87546,0 z m 0,3.75094 0,1.87546 -1.87546,0 0,-1.87546 1.87546,0 z m 0,3.75093 0,1.87547 -1.87546,0 0,-1.87547 1.87546,0 z m 0,3.75093 0,1.87547 -1.87546,0 0,-1.87547 1.87546,0 z m 0,3.75094 0,1.87547 -1.87546,0 0,-1.87547 1.87546,0 z m 0,3.75093 0,1.87547 -1.87546,0 0,-1.87547 1.87546,0 z m 0,3.75094 0,1.87547 -1.87546,0 0,-1.87547 1.87546,0 z m 0,3.75093 0,1.87547 -1.87546,0 0,-1.87547 1.87546,0 z m 0,3.75094 0,1.87546 -1.87546,0 0,-1.87546 1.87546,0 z m 0,3.75093 0,0.56264 -1.87546,0 0,-0.56264 1.87546,0 z" style="fill:#000;fill-opacity:1;fill-rule:nonzero;stroke:#000;stroke-width:.01875467px;stroke-linecap:butt;stroke-linejoin:round;stroke-opacity:1;stroke-dasharray:none"/><text id="text3081" x="441.74" y="296.423" xml:space="preserve" style="font-size:15.00373745px;font-style:italic;font-weight:400;text-align:start;text-anchor:start;fill:#000;font-family:Verdana">W(33)</text><path id="path3083" d="m 676.18095,396.21121 1.08777,1.50037 -1.50037,1.12528 -1.08777,-1.53788 1.50037,-1.08777 z m 2.21305,3.03825 1.08778,1.50038 -1.50038,1.12528 -1.08777,-1.53789 1.50037,-1.08777 z m 2.21306,3.00075 1.08777,1.53788 -1.50038,1.08777 -1.08777,-1.50037 1.50038,-1.12528 z m 2.21305,3.03826 1.08777,1.53788 -1.50038,1.08777 -1.12528,-1.50037 1.53789,-1.12528 z m 2.21305,3.03825 1.08777,1.50038 -1.50037,1.12528 -1.12528,-1.53788 1.53788,-1.08778 z m 2.21305,3.03826 1.08777,1.50038 -1.50037,1.12528 -1.12528,-1.53789 1.53788,-1.08777 z m 2.21305,3.03826 1.08777,1.50037 -1.50037,1.08777 -1.12528,-1.50037 1.53788,-1.08777 z m 2.21305,3.00075 1.08777,1.53788 -1.50037,1.08777 -1.12528,-1.50037 1.53788,-1.12528 z m 2.21305,3.03825 1.08778,1.50038 -1.50038,1.12528 -1.12528,-1.50038 1.53788,-1.12528 z m 2.21306,3.03826 1.08777,1.50037 -1.50038,1.12528 -1.12528,-1.53788 1.53789,-1.08777 z m 2.17554,3.03826 1.12528,1.50037 -1.50038,1.12528 -1.12528,-1.53788 1.50038,-1.08777 z m 2.21305,3.00074 0.45011,0.60015 -1.53788,1.08777 -0.4126,-0.56264 1.50037,-1.12528 z" style="fill:#000;fill-opacity:1;fill-rule:nonzero;stroke:#000;stroke-width:.03750934px;stroke-linecap:butt;stroke-linejoin:round;stroke-opacity:1;stroke-dasharray:none"/><path id="path3085" d="m 710.27695,463.01535 0,1.87547 -1.87547,0 0,-1.87547 1.87547,0 z m 0,3.75093 0,1.87547 -1.87547,0 0,-1.87547 1.87547,0 z m 0,3.75094 0,1.87546 -1.87547,0 0,-1.87546 1.87547,0 z m 0,3.75093 0,1.87547 -1.87547,0 0,-1.87547 1.87547,0 z m 0,3.75094 0,1.87546 -1.87547,0 0,-1.87546 1.87547,0 z m 0,3.75093 0,1.87547 -1.87547,0 0,-1.87547 1.87547,0 z m 0,3.75094 0,1.87546 -1.87547,0 0,-1.87546 1.87547,0 z m 0,3.75093 0,1.87547 -1.87547,0 0,-1.87547 1.87547,0 z m 0,3.75093 0,1.87547 -1.87547,0 0,-1.87547 1.87547,0 z m 0,3.75094 0,1.87547 -1.87547,0 0,-1.87547 1.87547,0 z m 0,3.75093 0,1.87547 -1.87547,0 0,-1.87547 1.87547,0 z m 0,3.75094 0,1.87546 -1.87547,0 0,-1.87546 1.87547,0 z m 0,3.75093 0,1.87547 -1.87547,0 0,-1.87547 1.87547,0 z m 0,3.75094 0,0.56264 -1.87547,0 0,-0.56264 1.87547,0 z" style="fill:#000;fill-opacity:1;fill-rule:nonzero;stroke:#000;stroke-width:.03750934px;stroke-linecap:butt;stroke-linejoin:round;stroke-opacity:1;stroke-dasharray:none"/><text id="text3087" x="645.609" y="386.919" xml:space="preserve" style="font-size:15.00373745px;font-style:italic;font-weight:400;text-align:start;text-anchor:start;fill:#000;font-family:Verdana">W(17)</text><text id="text3089" x="684.862" y="527.687" xml:space="preserve" style="font-size:15.00373745px;font-style:italic;font-weight:400;text-align:start;text-anchor:start;fill:#000;font-family:Verdana">W(17)</text><path id="path3091" d="m 780.75701,246.28636 c 0,-2.70068 2.17554,-4.87622 4.87621,-4.87622 l 27.90695,0 c 2.70068,0 4.87622,2.17554 4.87622,4.87622 l 0,19.46735 c 0,2.70067 -2.17554,4.87621 -4.87622,4.87621 l -27.90695,0 c -2.70067,0 -4.87621,-2.17554 -4.87621,-4.87621 z" style="fill:#fff;fill-opacity:1;fill-rule:evenodd;stroke:none"/><path id="path3093" d="m 780.75701,246.28636 c 0,-2.70068 2.17554,-4.87622 4.87621,-4.87622 l 27.90695,0 c 2.70068,0 4.87622,2.17554 4.87622,4.87622 l 0,19.46735 c 0,2.70067 -2.17554,4.87621 -4.87622,4.87621 l -27.90695,0 c -2.70067,0 -4.87621,-2.17554 -4.87621,-4.87621 z" style="fill:none;stroke:#000;stroke-width:.63765883px;stroke-linecap:butt;stroke-linejoin:miter;stroke-miterlimit:4;stroke-opacity:1;stroke-dasharray:none"/><text id="text3095" x="783.466" y="261.247" xml:space="preserve" style="font-size:13.3533268px;font-style:italic;font-weight:400;text-align:start;text-anchor:start;fill:#000;font-family:Verdana">A|30</text><path id="path3097" d="m 974.86786,251.20008 33.04574,0 0,-7.27681 14.6286,14.59113 -14.6286,14.62865 0,-7.31433 -33.04574,0 z" style="fill:#d9d9d9;fill-opacity:1;fill-rule:evenodd;stroke:none"/><path id="path3099" d="m 974.86786,480.4947 33.04574,0 0,-7.31432 14.6286,14.62865 -14.6286,14.59113 0,-7.27681 -33.04574,0 z" style="fill:#d9d9d9;fill-opacity:1;fill-rule:evenodd;stroke:none"/><path id="path3101" d="m 684.95814,246.28636 c 0,-2.70068 2.17554,-4.87622 4.87622,-4.87622 l 28.05698,0 c 2.70068,0 4.87622,2.17554 4.87622,4.87622 l 0,19.46735 c 0,2.70067 -2.17554,4.87621 -4.87622,4.87621 l -28.05698,0 c -2.70068,0 -4.87622,-2.17554 -4.87622,-4.87621 z" style="fill:#fff;fill-opacity:1;fill-rule:evenodd;stroke:none"/><path id="path3103" d="m 684.95814,246.28636 c 0,-2.70068 2.17554,-4.87622 4.87622,-4.87622 l 28.05698,0 c 2.70068,0 4.87622,2.17554 4.87622,4.87622 l 0,19.46735 c 0,2.70067 -2.17554,4.87621 -4.87622,4.87621 l -28.05698,0 c -2.70068,0 -4.87622,-2.17554 -4.87622,-4.87621 z" style="fill:none;stroke:#000;stroke-width:.63765883px;stroke-linecap:butt;stroke-linejoin:miter;stroke-miterlimit:4;stroke-opacity:1;stroke-dasharray:none"/><text id="text3105" x="687.779" y="261.247" xml:space="preserve" style="font-size:13.3533268px;font-style:italic;font-weight:400;text-align:start;text-anchor:start;fill:#000;font-family:Verdana">B|73</text><path id="path3107" d="m 640.09696,301.4626 c 0,-2.70067 2.17555,-4.87621 4.87622,-4.87621 l 28.0945,0 c 2.66316,0 4.8387,2.17554 4.8387,4.87621 l 0,19.46735 c 0,2.70067 -2.17554,4.87622 -4.8387,4.87622 l -28.0945,0 c -2.70067,0 -4.87622,-2.17555 -4.87622,-4.87622 z" style="fill:#fff;fill-opacity:1;fill-rule:evenodd;stroke:none"/><path id="path3109" d="m 640.09696,301.4626 c 0,-2.70067 2.17555,-4.87621 4.87622,-4.87621 l 28.0945,0 c 2.66316,0 4.8387,2.17554 4.8387,4.87621 l 0,19.46735 c 0,2.70067 -2.17554,4.87622 -4.8387,4.87622 l -28.0945,0 c -2.70067,0 -4.87622,-2.17555 -4.87622,-4.87622 z" style="fill:none;stroke:#000;stroke-width:.63765883px;stroke-linecap:butt;stroke-linejoin:miter;stroke-miterlimit:4;stroke-opacity:1;stroke-dasharray:none"/><text id="text3111" x="642.778" y="316.44" xml:space="preserve" style="font-size:13.3533268px;font-style:italic;font-weight:400;text-align:start;text-anchor:start;fill:#000;font-family:Verdana">C|33</text><path id="path3113" d="m 759.0391,340.35979 c 0,-2.70067 2.17554,-4.87621 4.87621,-4.87621 l 27.90695,0 c 2.70068,0 4.87622,2.17554 4.87622,4.87621 l 0,19.50486 c 0,2.66316 -2.17554,4.83871 -4.87622,4.83871 l -27.90695,0 c -2.70067,0 -4.87621,-2.17555 -4.87621,-4.83871 z" style="fill:#fff;fill-opacity:1;fill-rule:evenodd;stroke:none"/><path id="path3115" d="m 759.0391,340.35979 c 0,-2.70067 2.17554,-4.87621 4.87621,-4.87621 l 27.90695,0 c 2.70068,0 4.87622,2.17554 4.87622,4.87621 l 0,19.50486 c 0,2.66316 -2.17554,4.83871 -4.87622,4.83871 l -27.90695,0 c -2.70067,0 -4.87621,-2.17555 -4.87621,-4.83871 z" style="fill:none;stroke:#000;stroke-width:.63765883px;stroke-linecap:butt;stroke-linejoin:miter;stroke-miterlimit:4;stroke-opacity:1;stroke-dasharray:none"/><text id="text3117" x="761.166" y="355.325" xml:space="preserve" style="font-size:13.3533268px;font-style:italic;font-weight:400;text-align:start;text-anchor:start;fill:#000;font-family:Verdana">D|18</text><path id="path3119" d="m 810.31437,417.74157 c 0,-2.70067 2.17554,-4.87621 4.83871,-4.87621 l 27.94446,0 c 2.70067,0 4.87621,2.17554 4.87621,4.87621 l 0,19.46735 c 0,2.70067 -2.17554,4.87621 -4.87621,4.87621 l -27.94446,0 c -2.66317,0 -4.83871,-2.17554 -4.83871,-4.87621 z" style="fill:#fff;fill-opacity:1;fill-rule:evenodd;stroke:none"/><path id="path3121" d="m 810.31437,417.74157 c 0,-2.70067 2.17554,-4.87621 4.83871,-4.87621 l 27.94446,0 c 2.70067,0 4.87621,2.17554 4.87621,4.87621 l 0,19.46735 c 0,2.70067 -2.17554,4.87621 -4.87621,4.87621 l -27.94446,0 c -2.66317,0 -4.83871,-2.17554 -4.83871,-4.87621 z" style="fill:none;stroke:#000;stroke-width:.63765883px;stroke-linecap:butt;stroke-linejoin:miter;stroke-miterlimit:4;stroke-opacity:1;stroke-dasharray:none"/><text id="text3123" x="813.386" y="432.754" xml:space="preserve" style="font-size:13.3533268px;font-style:italic;font-weight:400;text-align:start;text-anchor:start;fill:#000;font-family:Verdana">E|31</text><path id="path3125" d="m 740.13439,479.18188 c 0,-2.70068 2.17554,-4.91373 4.87621,-4.91373 l 27.86944,0 c 2.73819,0 4.91373,2.21305 4.91373,4.91373 l 0,19.57987 c 0,2.70068 -2.17554,4.91373 -4.91373,4.91373 l -27.86944,0 c -2.70067,0 -4.87621,-2.21305 -4.87621,-4.91373 z" style="fill:#fff;fill-opacity:1;fill-rule:evenodd;stroke:none"/><path id="path3127" d="m 740.13439,479.18188 c 0,-2.70068 2.17554,-4.91373 4.87621,-4.91373 l 27.86944,0 c 2.73819,0 4.91373,2.21305 4.91373,4.91373 l 0,19.57987 c 0,2.70068 -2.17554,4.91373 -4.91373,4.91373 l -27.86944,0 c -2.70067,0 -4.87621,-2.21305 -4.87621,-4.91373 z" style="fill:none;stroke:#000;stroke-width:.63765883px;stroke-linecap:butt;stroke-linejoin:miter;stroke-miterlimit:4;stroke-opacity:1;stroke-dasharray:none"/><text id="text3129" x="743.667" y="494.224" xml:space="preserve" style="font-size:13.3533268px;font-style:italic;font-weight:400;text-align:start;text-anchor:start;fill:#000;font-family:Verdana">F|15</text><path id="path3131" d="m 625.73089,479.18188 c 0,-2.70068 2.17554,-4.91373 4.87621,-4.91373 l 28.05699,0 c 2.70067,0 4.87621,2.21305 4.87621,4.91373 l 0,19.57987 c 0,2.70068 -2.17554,4.91373 -4.87621,4.91373 l -28.05699,0 c -2.70067,0 -4.87621,-2.21305 -4.87621,-4.91373 z" style="fill:#fff;fill-opacity:1;fill-rule:evenodd;stroke:none"/><path id="path3133" d="m 625.73089,479.18188 c 0,-2.70068 2.17554,-4.91373 4.87621,-4.91373 l 28.05699,0 c 2.70067,0 4.87621,2.21305 4.87621,4.91373 l 0,19.57987 c 0,2.70068 -2.17554,4.91373 -4.87621,4.91373 l -28.05699,0 c -2.70067,0 -4.87621,-2.21305 -4.87621,-4.91373 z" style="fill:none;stroke:#000;stroke-width:.63765883px;stroke-linecap:butt;stroke-linejoin:miter;stroke-miterlimit:4;stroke-opacity:1;stroke-dasharray:none"/><text id="text3135" x="627.944" y="494.224" xml:space="preserve" style="font-size:13.3533268px;font-style:italic;font-weight:400;text-align:start;text-anchor:start;fill:#000;font-family:Verdana">G|91</text><path id="path3137" d="m 414.57203,479.16312 c 0,-2.70067 2.1943,-4.89497 4.89497,-4.89497 l 27.86944,0 c 2.70068,0 4.89497,2.1943 4.89497,4.89497 l 0,19.59863 c 0,2.70068 -2.19429,4.89497 -4.89497,4.89497 l -27.86944,0 c -2.70067,0 -4.89497,-2.19429 -4.89497,-4.89497 z" style="fill:#fff;fill-opacity:1;fill-rule:evenodd;stroke:none"/><path id="path3139" d="m 414.57203,479.16312 c 0,-2.70067 2.1943,-4.89497 4.89497,-4.89497 l 27.86944,0 c 2.70068,0 4.89497,2.1943 4.89497,4.89497 l 0,19.59863 c 0,2.70068 -2.19429,4.89497 -4.89497,4.89497 l -27.86944,0 c -2.70067,0 -4.89497,-2.19429 -4.89497,-4.89497 z" style="fill:none;stroke:#000;stroke-width:.61890417px;stroke-linecap:butt;stroke-linejoin:miter;stroke-miterlimit:4;stroke-opacity:1;stroke-dasharray:none"/><text id="text3141" x="416.916" y="494.224" xml:space="preserve" style="font-size:13.3533268px;font-style:italic;font-weight:400;text-align:start;text-anchor:start;fill:#000;font-family:Verdana">H|94</text><path id="path3143" d="m 389.72209,246.2676 c 0,-2.68192 2.17554,-4.87621 4.87621,-4.87621 l 28.07575,0 c 2.68192,0 4.85746,2.19429 4.85746,4.87621 l 0,19.48611 c 0,2.70067 -2.17554,4.87621 -4.85746,4.87621 l -28.07575,0 c -2.70067,0 -4.87621,-2.17554 -4.87621,-4.87621 z" style="fill:#fff;fill-opacity:1;fill-rule:evenodd;stroke:none"/><path id="path3145" d="m 389.72209,246.2676 c 0,-2.68192 2.17554,-4.87621 4.87621,-4.87621 l 28.07575,0 c 2.68192,0 4.85746,2.19429 4.85746,4.87621 l 0,19.48611 c 0,2.70067 -2.17554,4.87621 -4.85746,4.87621 l -28.07575,0 c -2.70067,0 -4.87621,-2.17554 -4.87621,-4.87621 z" style="fill:none;stroke:#000;stroke-width:.61890417px;stroke-linecap:butt;stroke-linejoin:miter;stroke-miterlimit:4;stroke-opacity:1;stroke-dasharray:none"/><text id="text3147" x="392.41" y="261.247" xml:space="preserve" style="font-size:13.3533268px;font-style:italic;font-weight:400;text-align:start;text-anchor:start;fill:#000;font-family:Verdana">K|77</text><path id="path3149" d="m 208.90829,257.80172 c -3.09452,0 -5.60764,10.04313 -5.60764,22.43059 0,12.38746 2.51312,22.43059 5.60764,22.43059 l -153.67578,0 c -3.094521,0 -5.607647,-10.04313 -5.607647,-22.43059 0,-12.38746 2.513126,-22.43059 5.607647,-22.43059 z" style="fill:#fdb212;fill-opacity:1;fill-rule:evenodd;stroke:none"/><path id="path3151" d="m 208.90829,257.80172 c 3.09453,0 5.60765,10.04313 5.60765,22.43059 0,12.38746 -2.51312,22.43059 -5.60765,22.43059 -3.09452,0 -5.60764,-10.04313 -5.60764,-22.43059 0,-12.38746 2.51312,-22.43059 5.60764,-22.43059" style="fill:#fed171;fill-opacity:1;fill-rule:evenodd;stroke:none"/><path id="path3153" d="m 208.90829,302.6629 c -3.09452,0 -5.60764,-10.04313 -5.60764,-22.43059 0,-12.38746 2.51312,-22.43059 5.60764,-22.43059 3.09453,0 5.60765,10.04313 5.60765,22.43059 0,12.38746 -2.51312,22.43059 -5.60765,22.43059 z m 0,0 -153.67578,0 c -3.094521,0 -5.607647,-10.04313 -5.607647,-22.43059 0,-12.38746 2.513126,-22.43059 5.607647,-22.43059 l 153.67578,0" style="fill:none;stroke:#000;stroke-width:.62828153px;stroke-linecap:butt;stroke-linejoin:miter;stroke-miterlimit:4;stroke-opacity:1;stroke-dasharray:none"/><path id="path3155" d="m 208.90829,490.05959 c -3.09452,0 -5.60764,10.03375 -5.60764,22.43058 0,12.37809 2.51312,22.41184 5.60764,22.41184 l -153.67578,0 c -3.094521,0 -5.607647,-10.03375 -5.607647,-22.41184 0,-12.39683 2.513126,-22.43058 5.607647,-22.43058 z" style="fill:#fdb212;fill-opacity:1;fill-rule:evenodd;stroke:none"/><path id="path3157" d="m 208.90829,490.05959 c 3.09453,0 5.60765,10.03375 5.60765,22.43058 0,12.37809 -2.51312,22.41184 -5.60765,22.41184 -3.09452,0 -5.60764,-10.03375 -5.60764,-22.41184 0,-12.39683 2.51312,-22.43058 5.60764,-22.43058" style="fill:#fed171;fill-opacity:1;fill-rule:evenodd;stroke:none"/><path id="path3159" d="m 208.90829,534.90201 c -3.09452,0 -5.60764,-10.03375 -5.60764,-22.41184 0,-12.39683 2.51312,-22.43058 5.60764,-22.43058 3.09453,0 5.60765,10.03375 5.60765,22.43058 0,12.37809 -2.51312,22.41184 -5.60765,22.41184 z m 0,0 -153.67578,0 c -3.094521,0 -5.607647,-10.03375 -5.607647,-22.41184 0,-12.39683 2.513126,-22.43058 5.607647,-22.43058 l 153.67578,0" style="fill:none;stroke:#000;stroke-width:.61890417px;stroke-linecap:butt;stroke-linejoin:miter;stroke-miterlimit:4;stroke-opacity:1;stroke-dasharray:none"/><path id="path3161" d="m 227.17535,244.43902 23.59337,0 0,-11.79669 23.60276,23.60276 -23.60276,23.59337 0,-11.79668 -23.59337,0 z" style="fill:none;stroke:#000;stroke-width:.93773359px;stroke-linecap:butt;stroke-linejoin:miter;stroke-miterlimit:4;stroke-opacity:1;stroke-dasharray:none"/><path id="path3163" d="m 227.17535,475.4497 23.59337,0 0,-11.81545 23.61214,23.61214 -23.61214,23.59337 0,-11.79669 -23.59337,0 z" style="fill:none;stroke:#000;stroke-width:.93773359px;stroke-linecap:butt;stroke-linejoin:miter;stroke-miterlimit:4;stroke-opacity:1;stroke-dasharray:none"/><text id="text3165" x="160.969" y="360.629" xml:space="preserve" style="font-size:30.0074749px;font-style:normal;font-weight:400;text-align:start;text-anchor:start;fill:#000;font-family:Calibri">Watermark</text><text id="text3167" x="161.119" y="396.638" xml:space="preserve" style="font-size:30.0074749px;font-style:normal;font-weight:400;text-align:start;text-anchor:start;fill:#000;font-family:Calibri">Generation</text><path id="path3169" d="m 208.90829,204.35091 c -3.09452,0 -5.60764,10.04313 -5.60764,22.43059 0,12.38746 2.51312,22.43058 5.60764,22.43058 l -153.67578,0 c -3.094521,0 -5.607647,-10.04312 -5.607647,-22.43058 0,-12.38746 2.513126,-22.43059 5.607647,-22.43059 z" style="fill:#fdb212;fill-opacity:1;fill-rule:evenodd;stroke:none"/><path id="path3171" d="m 208.90829,204.35091 c 3.09453,0 5.60765,10.04313 5.60765,22.43059 0,12.38746 -2.51312,22.43058 -5.60765,22.43058 -3.09452,0 -5.60764,-10.04312 -5.60764,-22.43058 0,-12.38746 2.51312,-22.43059 5.60764,-22.43059" style="fill:#fed171;fill-opacity:1;fill-rule:evenodd;stroke:none"/><path id="path3173" d="m 208.90829,249.21208 c -3.09452,0 -5.60764,-10.04312 -5.60764,-22.43058 0,-12.38746 2.51312,-22.43059 5.60764,-22.43059 3.09453,0 5.60765,10.04313 5.60765,22.43059 0,12.38746 -2.51312,22.43058 -5.60765,22.43058 z m 0,0 -153.67578,0 c -3.094521,0 -5.607647,-10.04312 -5.607647,-22.43058 0,-12.38746 2.513126,-22.43059 5.607647,-22.43059 l 153.67578,0" style="fill:none;stroke:#000;stroke-width:.62828153px;stroke-linecap:butt;stroke-linejoin:miter;stroke-miterlimit:4;stroke-opacity:1;stroke-dasharray:none"/><path id="path3175" d="m 208.90829,440.3597 c -3.09452,0 -5.60764,10.03375 -5.60764,22.43059 0,12.37809 2.51312,22.41184 5.60764,22.41184 l -153.67578,0 c -3.094521,0 -5.607647,-10.03375 -5.607647,-22.41184 0,-12.39684 2.513126,-22.43059 5.607647,-22.43059 z" style="fill:#fdb212;fill-opacity:1;fill-rule:evenodd;stroke:none"/><path id="path3177" d="m 208.90829,440.3597 c 3.09453,0 5.60765,10.03375 5.60765,22.43059 0,12.37809 -2.51312,22.41184 -5.60765,22.41184 -3.09452,0 -5.60764,-10.03375 -5.60764,-22.41184 0,-12.39684 2.51312,-22.43059 5.60764,-22.43059" style="fill:#fed171;fill-opacity:1;fill-rule:evenodd;stroke:none"/><path id="path3179" d="m 208.90829,485.20213 c -3.09452,0 -5.60764,-10.03375 -5.60764,-22.41184 0,-12.39684 2.51312,-22.43059 5.60764,-22.43059 3.09453,0 5.60765,10.03375 5.60765,22.43059 0,12.37809 -2.51312,22.41184 -5.60765,22.41184 z m 0,0 -153.67578,0 c -3.094521,0 -5.607647,-10.03375 -5.607647,-22.41184 0,-12.39684 2.513126,-22.43059 5.607647,-22.43059 l 153.67578,0" style="fill:none;stroke:#000;stroke-width:.61890417px;stroke-linecap:butt;stroke-linejoin:miter;stroke-miterlimit:4;stroke-opacity:1;stroke-dasharray:none"/><path id="path3181" d="m 229.81975,404.08817 -8.34583,14.49736 1.08778,0.6189 8.34582,-14.4786 -1.08777,-0.63766 z m -9.33982,12.47186 -0.33759,5.58889 4.66992,-3.09452 -4.33233,-2.49437 z" style="fill:#000;fill-opacity:1;fill-rule:nonzero;stroke:#000;stroke-width:.01875467px;stroke-linecap:butt;stroke-linejoin:round;stroke-opacity:1;stroke-dasharray:none"/><path id="path3183" d="m 234.45216,420.06715 -20.53637,94.44853 1.23781,0.26256 20.51761,-94.44853 -1.21905,-0.26256 z m -22.09301,92.81687 1.3691,5.4201 3.50712,-4.35108 -4.87622,-1.06902 z" style="fill:#000;fill-opacity:1;fill-rule:nonzero;stroke:#000;stroke-width:.01875467px;stroke-linecap:butt;stroke-linejoin:round;stroke-opacity:1;stroke-dasharray:none"/><path id="path3185" d="m 157.9331,219.07333 c 0,-2.6913 2.18491,-4.87622 4.87621,-4.87622 l 27.92571,0 c 2.69129,0 4.86683,2.18492 4.86683,4.87622 l 0,19.4861 c 0,2.6913 -2.17554,4.86684 -4.86683,4.86684 l -27.92571,0 c -2.6913,0 -4.87621,-2.17554 -4.87621,-4.86684 z" style="fill:#fff;fill-opacity:1;fill-rule:evenodd;stroke:none"/><path id="path3187" d="m 157.9331,219.07333 c 0,-2.6913 2.18491,-4.87622 4.87621,-4.87622 l 27.92571,0 c 2.69129,0 4.86683,2.18492 4.86683,4.87622 l 0,19.4861 c 0,2.6913 -2.17554,4.86684 -4.86683,4.86684 l -27.92571,0 c -2.6913,0 -4.87621,-2.17554 -4.87621,-4.86684 z" style="fill:none;stroke:#000;stroke-width:.62828153px;stroke-linecap:butt;stroke-linejoin:miter;stroke-miterlimit:4;stroke-opacity:1;stroke-dasharray:none"/><text id="text3189" x="161.447" y="234.061" xml:space="preserve" style="font-size:13.3533268px;font-style:italic;font-weight:400;text-align:start;text-anchor:start;fill:#000;font-family:Verdana">L|35</text><path id="path3191" d="m 111.83411,219.07333 c 0,-2.6913 2.17554,-4.87622 4.86684,-4.87622 l 27.92571,0 c 2.69129,0 4.86683,2.18492 4.86683,4.87622 l 0,19.4861 c 0,2.6913 -2.17554,4.86684 -4.86683,4.86684 l -27.92571,0 c -2.6913,0 -4.86684,-2.17554 -4.86684,-4.86684 z" style="fill:#fff;fill-opacity:1;fill-rule:evenodd;stroke:none"/><path id="path3193" d="m 111.83411,219.07333 c 0,-2.6913 2.17554,-4.87622 4.86684,-4.87622 l 27.92571,0 c 2.69129,0 4.86683,2.18492 4.86683,4.87622 l 0,19.4861 c 0,2.6913 -2.17554,4.86684 -4.86683,4.86684 l -27.92571,0 c -2.6913,0 -4.86684,-2.17554 -4.86684,-4.86684 z" style="fill:none;stroke:#000;stroke-width:.62828153px;stroke-linecap:butt;stroke-linejoin:miter;stroke-miterlimit:4;stroke-opacity:1;stroke-dasharray:none"/><text id="text3195" x="114.181" y="234.061" xml:space="preserve" style="font-size:13.3533268px;font-style:italic;font-weight:400;text-align:start;text-anchor:start;fill:#000;font-family:Verdana">N|39</text><path id="path3197" d="m 111.83411,270.35798 c 0,-2.70067 2.1943,-4.89497 4.89497,-4.89497 l 27.86944,0 c 2.71005,0 4.89497,2.1943 4.89497,4.89497 l 0,19.58925 c 0,2.71005 -2.18492,4.89497 -4.89497,4.89497 l -27.86944,0 c -2.70067,0 -4.89497,-2.18492 -4.89497,-4.89497 z" style="fill:#fff;fill-opacity:1;fill-rule:evenodd;stroke:none"/><path id="path3199" d="m 111.83411,270.35798 c 0,-2.70067 2.1943,-4.89497 4.89497,-4.89497 l 27.86944,0 c 2.71005,0 4.89497,2.1943 4.89497,4.89497 l 0,19.58925 c 0,2.71005 -2.18492,4.89497 -4.89497,4.89497 l -27.86944,0 c -2.70067,0 -4.89497,-2.18492 -4.89497,-4.89497 z" style="fill:none;stroke:#000;stroke-width:.62828153px;stroke-linecap:butt;stroke-linejoin:miter;stroke-miterlimit:4;stroke-opacity:1;stroke-dasharray:none"/><text id="text3201" x="113.878" y="285.43" xml:space="preserve" style="font-size:13.3533268px;font-style:italic;font-weight:400;text-align:start;text-anchor:start;fill:#000;font-family:Verdana">O|97</text><path id="path3203" d="m 157.9331,270.35798 c 0,-2.70067 2.19429,-4.89497 4.90434,-4.89497 l 27.86944,0 c 2.70068,0 4.89497,2.1943 4.89497,4.89497 l 0,19.58925 c 0,2.71005 -2.19429,4.89497 -4.89497,4.89497 l -27.86944,0 c -2.71005,0 -4.90434,-2.18492 -4.90434,-4.89497 z" style="fill:#fff;fill-opacity:1;fill-rule:evenodd;stroke:none"/><path id="path3205" d="m 157.9331,270.35798 c 0,-2.70067 2.19429,-4.89497 4.90434,-4.89497 l 27.86944,0 c 2.70068,0 4.89497,2.1943 4.89497,4.89497 l 0,19.58925 c 0,2.71005 -2.19429,4.89497 -4.89497,4.89497 l -27.86944,0 c -2.71005,0 -4.90434,-2.18492 -4.90434,-4.89497 z" style="fill:none;stroke:#000;stroke-width:.62828153px;stroke-linecap:butt;stroke-linejoin:miter;stroke-miterlimit:4;stroke-opacity:1;stroke-dasharray:none"/><text id="text3207" x="159.646" y="285.43" xml:space="preserve" style="font-size:13.3533268px;font-style:italic;font-weight:400;text-align:start;text-anchor:start;fill:#000;font-family:Verdana">M|89</text><path id="path3209" d="m 231.65771,337.88418 -9.6399,-11.90922 0.97524,-0.7877 9.6399,11.90922 -0.97524,0.7877 z m -10.31507,-9.75243 -1.2003,-5.45761 5.10127,2.30682 -3.90097,3.15079 z" style="fill:#000;fill-opacity:1;fill-rule:nonzero;stroke:#000;stroke-width:.01875467px;stroke-linecap:butt;stroke-linejoin:round;stroke-opacity:1;stroke-dasharray:none"/><path id="path3211" d="m 237.67796,333.64562 -21.39908,-97.20547 1.21905,-0.26256 21.39909,97.20546 -1.21906,0.26257 z m -22.95572,-95.57381 1.35034,-5.4201 3.52588,4.35108 -4.87622,1.06902 z" style="fill:#000;fill-opacity:1;fill-rule:nonzero;stroke:#000;stroke-width:.01875467px;stroke-linecap:butt;stroke-linejoin:round;stroke-opacity:1;stroke-dasharray:none"/><path id="path3213" d="m 157.9331,453.9756 c 0,-2.68192 2.19429,-4.87622 4.87621,-4.87622 l 27.92571,0 c 2.70067,0 4.87621,2.1943 4.87621,4.87622 l 0,19.4861 c 0,2.70067 -2.17554,4.87622 -4.87621,4.87622 l -27.92571,0 c -2.68192,0 -4.87621,-2.17555 -4.87621,-4.87622 z" style="fill:#fff;fill-opacity:1;fill-rule:evenodd;stroke:none"/><path id="path3215" d="m 157.9331,453.9756 c 0,-2.68192 2.19429,-4.87622 4.87621,-4.87622 l 27.92571,0 c 2.70067,0 4.87621,2.1943 4.87621,4.87622 l 0,19.4861 c 0,2.70067 -2.17554,4.87622 -4.87621,4.87622 l -27.92571,0 c -2.68192,0 -4.87621,-2.17555 -4.87621,-4.87622 z" style="fill:none;stroke:#000;stroke-width:.61890417px;stroke-linecap:butt;stroke-linejoin:miter;stroke-miterlimit:4;stroke-opacity:1;stroke-dasharray:none"/><text id="text3217" x="162.497" y="468.938" xml:space="preserve" style="font-size:13.3533268px;font-style:italic;font-weight:400;text-align:start;text-anchor:start;fill:#000;font-family:Verdana">I|18</text><path id="path3219" d="m 111.83411,453.9756 c 0,-2.68192 2.17554,-4.87622 4.87622,-4.87622 l 27.9257,0 c 2.68192,0 4.85746,2.1943 4.85746,4.87622 l 0,19.4861 c 0,2.70067 -2.17554,4.87622 -4.85746,4.87622 l -27.9257,0 c -2.70068,0 -4.87622,-2.17555 -4.87622,-4.87622 z" style="fill:#fff;fill-opacity:1;fill-rule:evenodd;stroke:none"/><path id="path3221" d="m 111.83411,453.9756 c 0,-2.68192 2.17554,-4.87622 4.87622,-4.87622 l 27.9257,0 c 2.68192,0 4.85746,2.1943 4.85746,4.87622 l 0,19.4861 c 0,2.70067 -2.17554,4.87622 -4.85746,4.87622 l -27.9257,0 c -2.70068,0 -4.87622,-2.17555 -4.87622,-4.87622 z" style="fill:none;stroke:#000;stroke-width:.61890417px;stroke-linecap:butt;stroke-linejoin:miter;stroke-miterlimit:4;stroke-opacity:1;stroke-dasharray:none"/><text id="text3223" x="113.878" y="468.938" xml:space="preserve" style="font-size:13.3533268px;font-style:italic;font-weight:400;text-align:start;text-anchor:start;fill:#000;font-family:Verdana">Q|23</text><path id="path3225" d="m 111.83411,505.26963 c 0,-2.70068 2.1943,-4.89497 4.89497,-4.89497 l 27.86944,0 c 2.71943,0 4.89497,2.19429 4.89497,4.89497 l 0,19.57987 c 0,2.71943 -2.17554,4.89497 -4.89497,4.89497 l -27.86944,0 c -2.70067,0 -4.89497,-2.17554 -4.89497,-4.89497 z" style="fill:#fff;fill-opacity:1;fill-rule:evenodd;stroke:none"/><path id="path3227" d="m 111.83411,505.26963 c 0,-2.70068 2.1943,-4.89497 4.89497,-4.89497 l 27.86944,0 c 2.71943,0 4.89497,2.19429 4.89497,4.89497 l 0,19.57987 c 0,2.71943 -2.17554,4.89497 -4.89497,4.89497 l -27.86944,0 c -2.70067,0 -4.89497,-2.17554 -4.89497,-4.89497 z" style="fill:none;stroke:#000;stroke-width:.61890417px;stroke-linecap:butt;stroke-linejoin:miter;stroke-miterlimit:4;stroke-opacity:1;stroke-dasharray:none"/><text id="text3229" x="115.078" y="520.307" xml:space="preserve" style="font-size:13.3533268px;font-style:italic;font-weight:400;text-align:start;text-anchor:start;fill:#000;font-family:Verdana">T|99</text><path id="path3231" d="m 157.9331,505.26963 c 0,-2.70068 2.19429,-4.89497 4.91372,-4.89497 l 27.86944,0 c 2.70068,0 4.89497,2.19429 4.89497,4.89497 l 0,19.57987 c 0,2.71943 -2.19429,4.89497 -4.89497,4.89497 l -27.86944,0 c -2.71943,0 -4.91372,-2.17554 -4.91372,-4.89497 z" style="fill:#fff;fill-opacity:1;fill-rule:evenodd;stroke:none"/><path id="path3233" d="m 157.9331,505.26963 c 0,-2.70068 2.19429,-4.89497 4.91372,-4.89497 l 27.86944,0 c 2.70068,0 4.89497,2.19429 4.89497,4.89497 l 0,19.57987 c 0,2.71943 -2.19429,4.89497 -4.89497,4.89497 l -27.86944,0 c -2.71943,0 -4.91372,-2.17554 -4.91372,-4.89497 z" style="fill:none;stroke:#000;stroke-width:.61890417px;stroke-linecap:butt;stroke-linejoin:miter;stroke-miterlimit:4;stroke-opacity:1;stroke-dasharray:none"/><text id="text3235" x="160.697" y="520.307" xml:space="preserve" style="font-size:13.3533268px;font-style:italic;font-weight:400;text-align:start;text-anchor:start;fill:#000;font-family:Verdana">S|97</text><path id="path3237" d="m 189.03772,194.63599 c 0,-2.91635 2.37247,-5.28882 5.28882,-5.28882 l 21.15527,0 c 2.91635,0 5.27944,2.37247 5.27944,5.28882 l 0,21.15527 c 0,2.91635 -2.36309,5.28882 -5.27944,5.28882 l -21.15527,0 c -2.91635,0 -5.28882,-2.37247 -5.28882,-5.28882 z" style="fill:#ffd966;fill-opacity:1;fill-rule:evenodd;stroke:none"/><path id="path3239" d="m 189.03772,194.63599 c 0,-2.91635 2.37247,-5.28882 5.28882,-5.28882 l 21.15527,0 c 2.91635,0 5.27944,2.37247 5.27944,5.28882 l 0,21.15527 c 0,2.91635 -2.36309,5.28882 -5.27944,5.28882 l -21.15527,0 c -2.91635,0 -5.28882,-2.37247 -5.28882,-5.28882 z" style="fill:none;stroke:#000;stroke-width:1.24718571px;stroke-linecap:butt;stroke-linejoin:miter;stroke-miterlimit:4;stroke-opacity:1;stroke-dasharray:none"/><text id="text3241" x="194.329" y="211.751" xml:space="preserve" style="font-size:16.6541481px;font-style:normal;font-weight:400;text-align:start;text-anchor:start;fill:#000;font-family:Verdana">33</text><path id="path3243" d="m 189.0471,296.84895 c 0,-2.90697 2.36309,-5.28882 5.28881,-5.28882 l 21.15527,0 c 2.90698,0 5.27007,2.38185 5.27007,5.28882 l 0,21.15527 c 0,2.92573 -2.36309,5.28882 -5.27007,5.28882 l -21.15527,0 c -2.92572,0 -5.28881,-2.36309 -5.28881,-5.28882 z" style="fill:#ffd966;fill-opacity:1;fill-rule:evenodd;stroke:none"/><path id="path3245" d="m 189.0471,296.84895 c 0,-2.90697 2.36309,-5.28882 5.28881,-5.28882 l 21.15527,0 c 2.90698,0 5.27007,2.38185 5.27007,5.28882 l 0,21.15527 c 0,2.92573 -2.36309,5.28882 -5.27007,5.28882 l -21.15527,0 c -2.92572,0 -5.28881,-2.36309 -5.28881,-5.28882 z" style="fill:none;stroke:#000;stroke-width:1.25656307px;stroke-linecap:butt;stroke-linejoin:miter;stroke-miterlimit:4;stroke-opacity:1;stroke-dasharray:none"/><text id="text3247" x="194.329" y="314.01" xml:space="preserve" style="font-size:16.6541481px;font-style:normal;font-weight:400;text-align:start;text-anchor:start;fill:#000;font-family:Verdana">88</text><path id="path3249" d="m 189.0471,427.51275 c 0,-2.92572 2.36309,-5.28881 5.28881,-5.28881 l 21.15527,0 c 2.90698,0 5.27007,2.36309 5.27007,5.28881 l 0,21.15527 c 0,2.92573 -2.36309,5.28882 -5.27007,5.28882 l -21.15527,0 c -2.92572,0 -5.28881,-2.36309 -5.28881,-5.28882 z" style="fill:#ffd966;fill-opacity:1;fill-rule:evenodd;stroke:none"/><path id="path3251" d="m 189.0471,427.51275 c 0,-2.92572 2.36309,-5.28881 5.28881,-5.28881 l 21.15527,0 c 2.90698,0 5.27007,2.36309 5.27007,5.28881 l 0,21.15527 c 0,2.92573 -2.36309,5.28882 -5.27007,5.28882 l -21.15527,0 c -2.92572,0 -5.28881,-2.36309 -5.28881,-5.28882 z" style="fill:none;stroke:#000;stroke-width:1.25656307px;stroke-linecap:butt;stroke-linejoin:miter;stroke-miterlimit:4;stroke-opacity:1;stroke-dasharray:none"/><text id="text3253" x="194.329" y="444.613" xml:space="preserve" style="font-size:16.6541481px;font-style:normal;font-weight:400;text-align:start;text-anchor:start;fill:#000;font-family:Verdana">17</text><path id="path3255" d="m 189.0471,529.72572 c 0,-2.92573 2.36309,-5.28882 5.28881,-5.28882 l 21.15527,0 c 2.90698,0 5.27007,2.36309 5.27007,5.28882 l 0,21.15527 c 0,2.92573 -2.36309,5.28882 -5.27007,5.28882 l -21.15527,0 c -2.92572,0 -5.28881,-2.36309 -5.28881,-5.28882 z" style="fill:#ffd966;fill-opacity:1;fill-rule:evenodd;stroke:none"/><path id="path3257" d="m 189.0471,529.72572 c 0,-2.92573 2.36309,-5.28882 5.28881,-5.28882 l 21.15527,0 c 2.90698,0 5.27007,2.36309 5.27007,5.28882 l 0,21.15527 c 0,2.92573 -2.36309,5.28882 -5.27007,5.28882 l -21.15527,0 c -2.92572,0 -5.28881,-2.36309 -5.28881,-5.28882 z" style="fill:none;stroke:#000;stroke-width:1.25656307px;stroke-linecap:butt;stroke-linejoin:miter;stroke-miterlimit:4;stroke-opacity:1;stroke-dasharray:none"/><text id="text3259" x="194.329" y="546.872" xml:space="preserve" style="font-size:16.6541481px;font-style:normal;font-weight:400;text-align:start;text-anchor:start;fill:#000;font-family:Verdana">95</text></g></g></svg>