<svg xmlns="http://www.w3.org/2000/svg" xmlns:svg="http://www.w3.org/2000/svg" id="svg2" width="468.91" height="285.2" version="1.1"><metadata id="metadata7"/><g id="layer1" transform="translate(-355.61783,-283.04674)"><g id="g2989" transform="translate(229.75524,151.68574)"><path id="path2991" d="m 127.90999,194.24654 c 0,-13.41733 10.88576,-24.29371 24.30309,-24.29371 13.41733,0 24.30308,10.87638 24.30308,24.29371 0,13.42671 -10.88575,24.30309 -24.30308,24.30309 -13.41733,0 -24.30309,-10.87638 -24.30309,-24.30309" style="fill:#bfbfbf;fill-opacity:1;fill-rule:evenodd;stroke:none"/><text id="text2993" x="134.831" y="192.208" xml:space="preserve" style="font-size:10.05127621px;font-style:normal;font-weight:400;text-align:start;text-anchor:start;fill:#000;font-family:Verdana">Source</text><text id="text2995" x="144.432" y="204.21" xml:space="preserve" style="font-size:10.05127621px;font-style:normal;font-weight:400;text-align:start;text-anchor:start;fill:#000;font-family:Verdana">(1)</text><path id="path2997" d="m 127.29116,327.47283 c 0,-13.37044 10.83888,-24.22807 24.22808,-24.22807 13.37045,0 24.20932,10.85763 24.20932,24.22807 0,13.3892 -10.83887,24.22808 -24.20932,24.22808 -13.3892,0 -24.22808,-10.83888 -24.22808,-24.22808" style="fill:#bfbfbf;fill-opacity:1;fill-rule:evenodd;stroke:none"/><text id="text2999" x="134.183" y="325.449" xml:space="preserve" style="font-size:10.05127621px;font-style:normal;font-weight:400;text-align:start;text-anchor:start;fill:#000;font-family:Verdana">Source</text><text id="text3001" x="143.785" y="337.451" xml:space="preserve" style="font-size:10.05127621px;font-style:normal;font-weight:400;text-align:start;text-anchor:start;fill:#000;font-family:Verdana">(2)</text><path id="path3003" d="m 266.05878,194.25592 c 0,-13.42671 10.83888,-24.30309 24.22808,-24.30309 13.37045,0 24.20933,10.87638 24.20933,24.30309 0,13.4267 -10.83888,24.30308 -24.20933,24.30308 -13.3892,0 -24.22808,-10.87638 -24.22808,-24.30308" style="fill:#bfbfbf;fill-opacity:1;fill-rule:evenodd;stroke:none"/><text id="text3005" x="279.258" y="192.208" xml:space="preserve" style="font-size:10.05127621px;font-style:normal;font-weight:400;text-align:start;text-anchor:start;fill:#000;font-family:Verdana">map</text><text id="text3007" x="282.559" y="204.21" xml:space="preserve" style="font-size:10.05127621px;font-style:normal;font-weight:400;text-align:start;text-anchor:start;fill:#000;font-family:Verdana">(1)</text><path id="path3009" d="m 266.05878,327.47283 c 0,-13.37044 10.83888,-24.22807 24.22808,-24.22807 13.37045,0 24.20933,10.85763 24.20933,24.22807 0,13.3892 -10.83888,24.22808 -24.20933,24.22808 -13.3892,0 -24.22808,-10.83888 -24.22808,-24.22808" style="fill:#bfbfbf;fill-opacity:1;fill-rule:evenodd;stroke:none"/><text id="text3011" x="279.258" y="325.449" xml:space="preserve" style="font-size:10.05127621px;font-style:normal;font-weight:400;text-align:start;text-anchor:start;fill:#000;font-family:Verdana">map</text><text id="text3013" x="282.559" y="337.451" xml:space="preserve" style="font-size:10.05127621px;font-style:normal;font-weight:400;text-align:start;text-anchor:start;fill:#000;font-family:Verdana">(2)</text><path id="path3015" d="m 473.2726,194.25592 c 0,-13.42671 10.83887,-24.30309 24.22807,-24.30309 13.37045,0 24.20933,10.87638 24.20933,24.30309 0,13.4267 -10.83888,24.30308 -24.20933,24.30308 -13.3892,0 -24.22807,-10.87638 -24.22807,-24.30308" style="fill:#bfbfbf;fill-opacity:1;fill-rule:evenodd;stroke:none"/><text id="text3017" x="478.665" y="192.208" xml:space="preserve" style="font-size:10.05127621px;font-style:normal;font-weight:400;text-align:start;text-anchor:start;fill:#000;font-family:Verdana">window</text><text id="text3019" x="489.766" y="204.21" xml:space="preserve" style="font-size:10.05127621px;font-style:normal;font-weight:400;text-align:start;text-anchor:start;fill:#000;font-family:Verdana">(1)</text><path id="path3021" d="m 473.2726,327.47283 c 0,-13.37044 10.83887,-24.22807 24.22807,-24.22807 13.37045,0 24.20933,10.85763 24.20933,24.22807 0,13.3892 -10.83888,24.22808 -24.20933,24.22808 -13.3892,0 -24.22807,-10.83888 -24.22807,-24.22808" style="fill:#bfbfbf;fill-opacity:1;fill-rule:evenodd;stroke:none"/><text id="text3023" x="478.665" y="325.449" xml:space="preserve" style="font-size:10.05127621px;font-style:normal;font-weight:400;text-align:start;text-anchor:start;fill:#000;font-family:Verdana">window</text><text id="text3025" x="489.766" y="337.451" xml:space="preserve" style="font-size:10.05127621px;font-style:normal;font-weight:400;text-align:start;text-anchor:start;fill:#000;font-family:Verdana">(2)</text><path id="path3027" d="m 159.32023,167.68379 c 0,-1.67834 1.36892,-3.04726 3.04726,-3.04726 l 12.18905,0 c 1.68771,0 3.04726,1.36892 3.04726,3.04726 l 0,12.18905 c 0,1.68771 -1.35955,3.04726 -3.04726,3.04726 l -12.18905,0 c -1.67834,0 -3.04726,-1.35955 -3.04726,-3.04726 z" style="fill:#ffd966;fill-opacity:1;fill-rule:evenodd;stroke:none"/><text id="text3029" x="161.924" y="177.717" xml:space="preserve" style="font-size:10.05127621px;font-style:normal;font-weight:400;text-align:start;text-anchor:start;fill:#000;font-family:Verdana">33</text><path id="path3031" d="m 159.32023,302.70094 c 0,-1.66896 1.36892,-3.03789 3.05664,-3.03789 l 12.18905,0 c 1.68771,0 3.03788,1.36893 3.03788,3.03789 l 0,12.18905 c 0,1.68771 -1.35017,3.05663 -3.03788,3.05663 l -12.18905,0 c -1.68772,0 -3.05664,-1.36892 -3.05664,-3.05663 z" style="fill:#ffd966;fill-opacity:1;fill-rule:evenodd;stroke:none"/><text id="text3033" x="161.924" y="312.734" xml:space="preserve" style="font-size:10.05127621px;font-style:normal;font-weight:400;text-align:start;text-anchor:start;fill:#000;font-family:Verdana">17</text><path id="path3035" d="m 184.95474,189.95225 64.2269,0 0,-4.21929 8.43857,8.43857 -8.43857,8.43857 0,-4.21928 -64.2269,0 z" style="fill:#d9d9d9;fill-opacity:1;fill-rule:evenodd;stroke:none"/><path id="path3037" d="m 321.22829,189.96162 137.19242,0 0,-4.21928 8.43857,8.43857 -8.43857,8.43857 0,-4.21929 -137.19242,0 z" style="fill:#d9d9d9;fill-opacity:1;fill-rule:evenodd;stroke:none"/><path id="path3039" d="m 184.95474,322.16591 64.2269,0 0,-4.21929 8.43857,8.43857 -8.43857,8.43858 0,-4.21929 -64.2269,0 z" style="fill:#d9d9d9;fill-opacity:1;fill-rule:evenodd;stroke:none"/><path id="path3041" d="m 321.22829,322.16591 137.19242,0 0,-4.21929 8.43857,8.43857 -8.43857,8.43858 0,-4.21929 -137.19242,0 z" style="fill:#d9d9d9;fill-opacity:1;fill-rule:evenodd;stroke:none"/><path id="path3043" d="m 324.97877,206.16368 136.91113,94.32448 2.40031,-3.48795 2.15652,11.73899 -11.73899,2.15653 2.4003,-3.46919 -136.91113,-94.32448 z" style="fill:#d9d9d9;fill-opacity:1;fill-rule:evenodd;stroke:none"/><path id="path3045" d="m 325.99139,314.43993 136.89239,-94.32448 2.4003,3.46919 2.15653,-11.73899 -11.73899,-2.15652 2.4003,3.46919 -136.91113,94.32447 z" style="fill:#d9d9d9;fill-opacity:1;fill-rule:evenodd;stroke:none"/><path id="path3047" d="m 302.62593,167.68379 c 0,-1.66896 1.36892,-3.03788 3.05664,-3.03788 l 12.18904,0 c 1.66897,0 3.03789,1.36892 3.03789,3.03788 l 0,12.18905 c 0,1.68771 -1.36892,3.05664 -3.03789,3.05664 l -12.18904,0 c -1.68772,0 -3.05664,-1.36893 -3.05664,-3.05664 z" style="fill:#ffd966;fill-opacity:1;fill-rule:evenodd;stroke:none"/><text id="text3049" x="305.318" y="177.717" xml:space="preserve" style="font-size:10.05127621px;font-style:normal;font-weight:400;text-align:start;text-anchor:start;fill:#000;font-family:Verdana">29</text><path id="path3051" d="m 448.57571,176.59117 c 0,-1.66896 1.36892,-3.03788 3.05664,-3.03788 l 12.18905,0 c 1.68771,0 3.03788,1.36892 3.03788,3.03788 l 0,12.18905 c 0,1.68772 -1.35017,3.05664 -3.03788,3.05664 l -12.18905,0 c -1.68772,0 -3.05664,-1.36892 -3.05664,-3.05664 z" style="fill:#ffd966;fill-opacity:1;fill-rule:evenodd;stroke:none"/><text id="text3053" x="451.242" y="186.674" xml:space="preserve" style="font-size:10.05127621px;font-style:normal;font-weight:400;text-align:start;text-anchor:start;fill:#000;font-family:Verdana">29</text><path id="path3055" d="m 302.77595,302.70094 c 0,-1.66896 1.36892,-3.03789 3.05664,-3.03789 l 12.18904,0 c 1.68772,0 3.03789,1.36893 3.03789,3.03789 l 0,12.18905 c 0,1.68771 -1.35017,3.05663 -3.03789,3.05663 l -12.18904,0 c -1.68772,0 -3.05664,-1.36892 -3.05664,-3.05663 z" style="fill:#ffd966;fill-opacity:1;fill-rule:evenodd;stroke:none"/><text id="text3057" x="305.419" y="312.734" xml:space="preserve" style="font-size:10.05127621px;font-style:normal;font-weight:400;text-align:start;text-anchor:start;fill:#000;font-family:Verdana">17</text><path id="path3059" d="m 454.98903,216.43998 c 0,-1.66896 1.36892,-3.03788 3.05663,-3.03788 l 12.18905,0 c 1.66896,0 3.03789,1.36892 3.03789,3.03788 l 0,12.18905 c 0,1.68772 -1.36893,3.05664 -3.03789,3.05664 l -12.18905,0 c -1.68771,0 -3.05663,-1.36892 -3.05663,-3.05664 z" style="fill:#ffd966;fill-opacity:1;fill-rule:evenodd;stroke:none"/><text id="text3061" x="457.608" y="226.436" xml:space="preserve" style="font-size:10.05127621px;font-style:normal;font-weight:400;text-align:start;text-anchor:start;fill:#000;font-family:Verdana">14</text><path id="path3063" d="m 454.98903,334.42997 c 0,-1.68772 1.36892,-3.05664 3.05663,-3.05664 l 12.18905,0 c 1.66896,0 3.03789,1.36892 3.03789,3.05664 l 0,12.18904 c 0,1.68772 -1.36893,3.03789 -3.03789,3.03789 l -12.18905,0 c -1.68771,0 -3.05663,-1.35017 -3.05663,-3.03789 z" style="fill:#ffd966;fill-opacity:1;fill-rule:evenodd;stroke:none"/><text id="text3065" x="457.608" y="344.524" xml:space="preserve" style="font-size:10.05127621px;font-style:normal;font-weight:400;text-align:start;text-anchor:start;fill:#000;font-family:Verdana">14</text><path id="path3067" d="m 463.10881,287.54901 c 0,-1.68771 1.36892,-3.05663 3.05663,-3.05663 l 12.18905,0 c 1.68772,0 3.03789,1.36892 3.03789,3.05663 l 0,12.18905 c 0,1.68772 -1.35017,3.03789 -3.03789,3.03789 l -12.18905,0 c -1.68771,0 -3.05663,-1.35017 -3.05663,-3.03789 z" style="fill:#ffd966;fill-opacity:1;fill-rule:evenodd;stroke:none"/><text id="text3069" x="465.844" y="297.688" xml:space="preserve" style="font-size:10.05127621px;font-style:normal;font-weight:400;text-align:start;text-anchor:start;fill:#000;font-family:Verdana">29</text><path id="path3071" d="m 509.83974,302.70094 c 0,-1.66896 1.36892,-3.03789 3.05664,-3.03789 l 12.18905,0 c 1.66896,0 3.03788,1.36893 3.03788,3.03789 l 0,12.18905 c 0,1.68771 -1.36892,3.05663 -3.03788,3.05663 l -12.18905,0 c -1.68772,0 -3.05664,-1.36892 -3.05664,-3.05663 z" style="fill:#ffd966;fill-opacity:1;fill-rule:evenodd;stroke:none"/><text id="text3073" x="512.544" y="312.734" xml:space="preserve" style="font-size:10.05127621px;font-style:normal;font-weight:400;text-align:start;text-anchor:start;fill:#000;font-family:Verdana">14</text><path id="path3075" d="m 509.83974,167.68379 c 0,-1.66896 1.36892,-3.03788 3.05664,-3.03788 l 12.18905,0 c 1.66896,0 3.03788,1.36892 3.03788,3.03788 l 0,12.18905 c 0,1.68771 -1.36892,3.05664 -3.03788,3.05664 l -12.18905,0 c -1.68772,0 -3.05664,-1.36893 -3.05664,-3.05664 z" style="fill:#ffd966;fill-opacity:1;fill-rule:evenodd;stroke:none"/><text id="text3077" x="512.557" y="177.717" xml:space="preserve" style="font-size:10.05127621px;font-style:normal;font-weight:400;text-align:start;text-anchor:start;fill:#000;font-family:Verdana">14</text><path id="path3079" d="m 234.32976,180.73545 0,1.87524 -1.87524,0 0,-1.87524 1.87524,0 z m 0,3.75048 0,1.87523 -1.87524,0 0,-1.87523 1.87524,0 z m 0,3.75047 0,1.87524 -1.87524,0 0,-1.87524 1.87524,0 z m 0,3.75048 0,1.87524 -1.87524,0 0,-1.87524 1.87524,0 z m 0,3.75048 0,1.87523 -1.87524,0 0,-1.87523 1.87524,0 z m 0,3.75047 0,1.87524 -1.87524,0 0,-1.87524 1.87524,0 z m 0,3.75048 0,1.87524 -1.87524,0 0,-1.87524 1.87524,0 z m 0,3.75047 0,1.87524 -1.87524,0 0,-1.87524 1.87524,0 z" style="fill:#000;fill-opacity:1;fill-rule:nonzero;stroke:#000;stroke-width:.00937619px;stroke-linecap:butt;stroke-linejoin:round;stroke-opacity:1;stroke-dasharray:none"/><text id="text3081" x="219.604" y="218.167" xml:space="preserve" style="font-size:8.70110512px;font-style:italic;font-weight:400;text-align:start;text-anchor:start;fill:#000;font-family:Verdana">W(33)</text><path id="path3083" d="m 355.11384,273.31596 1.10639,1.51894 -1.51894,1.10639 -1.10639,-1.51894 1.51894,-1.10639 z m 2.21278,3.03788 1.10639,1.51894 -1.51894,1.1064 -1.10639,-1.51895 1.51894,-1.10639 z m 2.21278,3.01914 1.1064,1.51894 -1.51895,1.10639 -1.10639,-1.51894 1.51894,-1.10639 z m 2.21279,3.03788 1.10639,1.51894 -1.51895,1.10639 -1.10639,-1.51894 1.51895,-1.10639 z m 2.19402,3.03789 1.10639,1.50019 -1.50019,1.10639 -1.10639,-1.51895 1.50019,-1.08763 z m 2.21279,3.01913 1.10639,1.51894 -1.50019,1.10639 -1.1064,-1.51894 1.5002,-1.10639 z m 2.21278,3.03789 0.99387,1.35017 -1.50019,1.10639 -1.01263,-1.35017 1.51895,-1.10639 z" style="fill:#000;fill-opacity:1;fill-rule:nonzero;stroke:#000;stroke-width:.01875238px;stroke-linecap:butt;stroke-linejoin:round;stroke-opacity:1;stroke-dasharray:none"/><path id="path3085" d="m 374.8226,312.15214 0,1.87524 -1.87524,0 0,-1.87524 1.87524,0 z m 0,3.75047 0,1.87524 -1.87524,0 0,-1.87524 1.87524,0 z m 0,3.75048 0,1.87524 -1.87524,0 0,-1.87524 1.87524,0 z m 0,3.75048 0,1.87523 -1.87524,0 0,-1.87523 1.87524,0 z m 0,3.75047 0,1.87524 -1.87524,0 0,-1.87524 1.87524,0 z m 0,3.75048 0,1.87524 -1.87524,0 0,-1.87524 1.87524,0 z m 0,3.75047 0,1.87524 -1.87524,0 0,-1.87524 1.87524,0 z m 0,3.75048 0,1.87524 -1.87524,0 0,-1.87524 1.87524,0 z" style="fill:#000;fill-opacity:1;fill-rule:nonzero;stroke:#000;stroke-width:.01875238px;stroke-linecap:butt;stroke-linejoin:round;stroke-opacity:1;stroke-dasharray:none"/><text id="text3087" x="337.068" y="270.316" xml:space="preserve" style="font-size:8.70110512px;font-style:italic;font-weight:400;text-align:start;text-anchor:start;fill:#000;font-family:Verdana">W(17)</text><text id="text3089" x="359.688" y="351.434" xml:space="preserve" style="font-size:8.70110512px;font-style:italic;font-weight:400;text-align:start;text-anchor:start;fill:#000;font-family:Verdana">W(17)</text><path id="path3091" d="m 414.9902,187.14876 c 0,-1.55644 1.25641,-2.81285 2.81285,-2.81285 l 16.08955,0 c 1.55644,0 2.81285,1.25641 2.81285,2.81285 l 0,11.25143 c 0,1.55645 -1.25641,2.81286 -2.81285,2.81286 l -16.08955,0 c -1.55644,0 -2.81285,-1.25641 -2.81285,-2.81286 z" style="fill:#fff;fill-opacity:1;fill-rule:evenodd;stroke:none"/><path id="path3093" d="m 414.9902,187.14876 c 0,-1.55644 1.25641,-2.81285 2.81285,-2.81285 l 16.08955,0 c 1.55644,0 2.81285,1.25641 2.81285,2.81285 l 0,11.25143 c 0,1.55645 -1.25641,2.81286 -2.81285,2.81286 l -16.08955,0 c -1.55644,0 -2.81285,-1.25641 -2.81285,-2.81286 z" style="fill:none;stroke:#000;stroke-width:.61882859px;stroke-linecap:butt;stroke-linejoin:miter;stroke-miterlimit:4;stroke-opacity:1;stroke-dasharray:none"/><text id="text3095" x="416.827" y="195.853" xml:space="preserve" style="font-size:7.50095272px;font-style:italic;font-weight:400;text-align:start;text-anchor:start;fill:#000;font-family:Verdana">A|30</text><path id="path3097" d="m 526.8669,189.96162 19.07117,0 0,-4.21928 8.43858,8.43857 -8.43858,8.43857 0,-4.21929 -19.07117,0 z" style="fill:#d9d9d9;fill-opacity:1;fill-rule:evenodd;stroke:none"/><path id="path3099" d="m 526.8669,322.16591 19.07117,0 0,-4.21929 8.43858,8.43857 -8.43858,8.43858 0,-4.21929 -19.07117,0 z" style="fill:#d9d9d9;fill-opacity:1;fill-rule:evenodd;stroke:none"/><path id="path3101" d="m 359.82069,187.14876 c 0,-1.55644 1.25641,-2.81285 2.81286,-2.81285 l 16.08954,0 c 1.55645,0 2.81286,1.25641 2.81286,2.81285 l 0,11.25143 c 0,1.55645 -1.25641,2.81286 -2.81286,2.81286 l -16.08954,0 c -1.55645,0 -2.81286,-1.25641 -2.81286,-2.81286 z" style="fill:#fff;fill-opacity:1;fill-rule:evenodd;stroke:none"/><path id="path3103" d="m 359.82069,187.14876 c 0,-1.55644 1.25641,-2.81285 2.81286,-2.81285 l 16.08954,0 c 1.55645,0 2.81286,1.25641 2.81286,2.81285 l 0,11.25143 c 0,1.55645 -1.25641,2.81286 -2.81286,2.81286 l -16.08954,0 c -1.55645,0 -2.81286,-1.25641 -2.81286,-2.81286 z" style="fill:none;stroke:#000;stroke-width:.61882859px;stroke-linecap:butt;stroke-linejoin:miter;stroke-miterlimit:4;stroke-opacity:1;stroke-dasharray:none"/><text id="text3105" x="361.688" y="195.853" xml:space="preserve" style="font-size:7.50095272px;font-style:italic;font-weight:400;text-align:start;text-anchor:start;fill:#000;font-family:Verdana">B|31</text><path id="path3107" d="m 334.03617,219.02781 c 0,-1.55645 1.25641,-2.81285 2.81285,-2.81285 l 16.08955,0 c 1.55644,0 2.81285,1.2564 2.81285,2.81285 l 0,11.25143 c 0,1.55645 -1.25641,2.81286 -2.81285,2.81286 l -16.08955,0 c -1.55644,0 -2.81285,-1.25641 -2.81285,-2.81286 z" style="fill:#fff;fill-opacity:1;fill-rule:evenodd;stroke:none"/><path id="path3109" d="m 334.03617,219.02781 c 0,-1.55645 1.25641,-2.81285 2.81285,-2.81285 l 16.08955,0 c 1.55644,0 2.81285,1.2564 2.81285,2.81285 l 0,11.25143 c 0,1.55645 -1.25641,2.81286 -2.81285,2.81286 l -16.08955,0 c -1.55644,0 -2.81285,-1.25641 -2.81285,-2.81286 z" style="fill:none;stroke:#000;stroke-width:.61882859px;stroke-linecap:butt;stroke-linejoin:miter;stroke-miterlimit:4;stroke-opacity:1;stroke-dasharray:none"/><text id="text3111" x="335.687" y="227.659" xml:space="preserve" style="font-size:7.50095272px;font-style:italic;font-weight:400;text-align:start;text-anchor:start;fill:#000;font-family:Verdana">C|30</text><path id="path3113" d="m 402.48236,241.3619 c 0,-1.5377 1.25641,-2.81286 2.81285,-2.81286 l 16.08955,0 c 1.55645,0 2.81286,1.27516 2.81286,2.81286 l 0,11.25143 c 0,1.55644 -1.25641,2.81285 -2.81286,2.81285 l -16.08955,0 c -1.55644,0 -2.81285,-1.25641 -2.81285,-2.81285 z" style="fill:#fff;fill-opacity:1;fill-rule:evenodd;stroke:none"/><path id="path3115" d="m 402.48236,241.3619 c 0,-1.5377 1.25641,-2.81286 2.81285,-2.81286 l 16.08955,0 c 1.55645,0 2.81286,1.27516 2.81286,2.81286 l 0,11.25143 c 0,1.55644 -1.25641,2.81285 -2.81286,2.81285 l -16.08955,0 c -1.55644,0 -2.81285,-1.25641 -2.81285,-2.81285 z" style="fill:none;stroke:#000;stroke-width:.61882859px;stroke-linecap:butt;stroke-linejoin:miter;stroke-miterlimit:4;stroke-opacity:1;stroke-dasharray:none"/><text id="text3117" x="404.023" y="250.067" xml:space="preserve" style="font-size:7.50095272px;font-style:italic;font-weight:400;text-align:start;text-anchor:start;fill:#000;font-family:Verdana">D|15</text><path id="path3119" d="m 432.01736,286.06758 c 0,-1.55645 1.25641,-2.81286 2.81286,-2.81286 l 16.08954,0 c 1.55645,0 2.81286,1.25641 2.81286,2.81286 l 0,11.25142 c 0,1.55645 -1.25641,2.81286 -2.81286,2.81286 l -16.08954,0 c -1.55645,0 -2.81286,-1.25641 -2.81286,-2.81286 z" style="fill:#fff;fill-opacity:1;fill-rule:evenodd;stroke:none"/><path id="path3121" d="m 432.01736,286.06758 c 0,-1.55645 1.25641,-2.81286 2.81286,-2.81286 l 16.08954,0 c 1.55645,0 2.81286,1.25641 2.81286,2.81286 l 0,11.25142 c 0,1.55645 -1.25641,2.81286 -2.81286,2.81286 l -16.08954,0 c -1.55645,0 -2.81286,-1.25641 -2.81286,-2.81286 z" style="fill:none;stroke:#000;stroke-width:.61882859px;stroke-linecap:butt;stroke-linejoin:miter;stroke-miterlimit:4;stroke-opacity:1;stroke-dasharray:none"/><text id="text3123" x="434.042" y="294.686" xml:space="preserve" style="font-size:7.50095272px;font-style:italic;font-weight:400;text-align:start;text-anchor:start;fill:#000;font-family:Verdana">E|30</text><path id="path3125" d="m 391.69974,321.37831 c 0,-1.55645 1.25641,-2.81286 2.81286,-2.81286 l 16.08954,0 c 1.55645,0 2.81286,1.25641 2.81286,2.81286 l 0,11.25143 c 0,1.55645 -1.25641,2.81286 -2.81286,2.81286 l -16.08954,0 c -1.55645,0 -2.81286,-1.25641 -2.81286,-2.81286 z" style="fill:#fff;fill-opacity:1;fill-rule:evenodd;stroke:none"/><path id="path3127" d="m 391.69974,321.37831 c 0,-1.55645 1.25641,-2.81286 2.81286,-2.81286 l 16.08954,0 c 1.55645,0 2.81286,1.25641 2.81286,2.81286 l 0,11.25143 c 0,1.55645 -1.25641,2.81286 -2.81286,2.81286 l -16.08954,0 c -1.55645,0 -2.81286,-1.25641 -2.81286,-2.81286 z" style="fill:none;stroke:#000;stroke-width:.61882859px;stroke-linecap:butt;stroke-linejoin:miter;stroke-miterlimit:4;stroke-opacity:1;stroke-dasharray:none"/><text id="text3129" x="393.758" y="330.108" xml:space="preserve" style="font-size:7.50095272px;font-style:italic;font-weight:400;text-align:start;text-anchor:start;fill:#000;font-family:Verdana">F|30</text><path id="path3131" d="m 325.74761,321.37831 c 0,-1.55645 1.27517,-2.81286 2.81286,-2.81286 l 16.1083,0 c 1.55644,0 2.81285,1.25641 2.81285,2.81286 l 0,11.25143 c 0,1.55645 -1.25641,2.81286 -2.81285,2.81286 l -16.1083,0 c -1.53769,0 -2.81286,-1.25641 -2.81286,-2.81286 z" style="fill:#fff;fill-opacity:1;fill-rule:evenodd;stroke:none"/><path id="path3133" d="m 325.74761,321.37831 c 0,-1.55645 1.27517,-2.81286 2.81286,-2.81286 l 16.1083,0 c 1.55644,0 2.81285,1.25641 2.81285,2.81286 l 0,11.25143 c 0,1.55645 -1.25641,2.81286 -2.81285,2.81286 l -16.1083,0 c -1.53769,0 -2.81286,-1.25641 -2.81286,-2.81286 z" style="fill:none;stroke:#000;stroke-width:.61882859px;stroke-linecap:butt;stroke-linejoin:miter;stroke-miterlimit:4;stroke-opacity:1;stroke-dasharray:none"/><text id="text3135" x="327.102" y="330.108" xml:space="preserve" style="font-size:7.50095272px;font-style:italic;font-weight:400;text-align:start;text-anchor:start;fill:#000;font-family:Verdana">G|18</text><path id="path3137" d="m 204.02591,321.37831 c 0,-1.55645 1.25641,-2.81286 2.81285,-2.81286 l 16.08955,0 c 1.55645,0 2.81285,1.25641 2.81285,2.81286 l 0,11.25143 c 0,1.55645 -1.2564,2.81286 -2.81285,2.81286 l -16.08955,0 c -1.55644,0 -2.81285,-1.25641 -2.81285,-2.81286 z" style="fill:#fff;fill-opacity:1;fill-rule:evenodd;stroke:none"/><path id="path3139" d="m 204.02591,321.37831 c 0,-1.55645 1.25641,-2.81286 2.81285,-2.81286 l 16.08955,0 c 1.55645,0 2.81285,1.25641 2.81285,2.81286 l 0,11.25143 c 0,1.55645 -1.2564,2.81286 -2.81285,2.81286 l -16.08955,0 c -1.55644,0 -2.81285,-1.25641 -2.81285,-2.81286 z" style="fill:none;stroke:#000;stroke-width:.61882859px;stroke-linecap:butt;stroke-linejoin:miter;stroke-miterlimit:4;stroke-opacity:1;stroke-dasharray:none"/><text id="text3141" x="205.556" y="330.108" xml:space="preserve" style="font-size:7.50095272px;font-style:italic;font-weight:400;text-align:start;text-anchor:start;fill:#000;font-family:Verdana">H|20</text><path id="path3143" d="m 189.79285,187.13939 c 0,-1.55645 1.26579,-2.81286 2.81286,-2.81286 l 16.09892,0 c 1.55644,0 2.81285,1.25641 2.81285,2.81286 l 0,11.25143 c 0,1.55644 -1.25641,2.81285 -2.81285,2.81285 l -16.09892,0 c -1.54707,0 -2.81286,-1.25641 -2.81286,-2.81285 z" style="fill:#fff;fill-opacity:1;fill-rule:evenodd;stroke:none"/><path id="path3145" d="m 189.79285,187.13939 c 0,-1.55645 1.26579,-2.81286 2.81286,-2.81286 l 16.09892,0 c 1.55644,0 2.81285,1.25641 2.81285,2.81286 l 0,11.25143 c 0,1.55644 -1.25641,2.81285 -2.81285,2.81285 l -16.09892,0 c -1.54707,0 -2.81286,-1.25641 -2.81286,-2.81285 z" style="fill:none;stroke:#000;stroke-width:.62820476px;stroke-linecap:butt;stroke-linejoin:miter;stroke-miterlimit:4;stroke-opacity:1;stroke-dasharray:none"/><text id="text3147" x="191.566" y="195.853" xml:space="preserve" style="font-size:7.50095272px;font-style:italic;font-weight:400;text-align:start;text-anchor:start;fill:#000;font-family:Verdana">I|35</text><text id="text3149" x="195.191" y="151.277" xml:space="preserve" style="font-size:11.2514286px;font-style:italic;font-weight:400;text-align:start;text-anchor:start;fill:#000;font-family:Verdana">Watermark</text><path id="path3151" d="m 227.26948,158.18571 5.54133,16.22081 -1.1814,0.40318 -5.54133,-16.22081 1.1814,-0.40318 z m 6.91026,14.42996 -0.7501,5.54133 -3.98488,-3.92863 4.73498,-1.6127 z" style="fill:#000;fill-opacity:1;fill-rule:nonzero;stroke:#000;stroke-width:.00937619px;stroke-linecap:butt;stroke-linejoin:round;stroke-opacity:1;stroke-dasharray:none"/><text id="text3153" x="517.869" y="400.082" xml:space="preserve" style="font-size:11.2514286px;font-style:italic;font-weight:400;text-align:start;text-anchor:start;fill:#000;font-family:Verdana">Event Time</text><text id="text3155" x="506.917" y="413.583" xml:space="preserve" style="font-size:11.2514286px;font-style:italic;font-weight:400;text-align:start;text-anchor:start;fill:#000;font-family:Verdana">at the operator</text><text id="text3157" x="375.689" y="140.829" xml:space="preserve" style="font-size:11.2514286px;font-style:italic;font-weight:400;text-align:start;text-anchor:start;fill:#000;font-family:Verdana">Event</text><text id="text3159" x="353.636" y="153.131" xml:space="preserve" style="font-size:10.05127621px;font-style:normal;font-weight:400;text-align:start;text-anchor:start;fill:#000;font-family:Verdana">[</text><text id="text3161" x="358.137" y="153.131" xml:space="preserve" style="font-size:10.05127621px;font-style:normal;font-weight:400;text-align:start;text-anchor:start;fill:#000;font-family:Verdana">id|timestamp</text><text id="text3163" x="425.195" y="153.131" xml:space="preserve" style="font-size:10.05127621px;font-style:normal;font-weight:400;text-align:start;text-anchor:start;fill:#000;font-family:Verdana">]</text><path id="path3165" d="m 375.29141,161.458 -1.65021,16.40834 1.23765,0.13126 1.65021,-16.42708 -1.23765,-0.11252 z m -3.39419,14.98315 1.98776,5.21317 2.98163,-4.7256 -4.96939,-0.48757 z" style="fill:#000;fill-opacity:1;fill-rule:nonzero;stroke:#000;stroke-width:.01875238px;stroke-linecap:butt;stroke-linejoin:round;stroke-opacity:1;stroke-dasharray:none"/><path id="path3167" d="m 549.12598,384.68635 -22.37159,-63.15802 1.1814,-0.41255 22.37159,63.13926 -1.1814,0.43131 z m -23.72176,-61.35779 0.69383,-5.55071 4.03177,3.88174 -4.7256,1.66897 z" style="fill:#000;fill-opacity:1;fill-rule:nonzero;stroke:#000;stroke-width:.01875238px;stroke-linecap:butt;stroke-linejoin:round;stroke-opacity:1;stroke-dasharray:none"/><path id="path3169" d="m 505.15164,404.65763 -180.37915,-49.78757 -8.96364,-33.77304 1.20015,-0.31879 8.88863,33.41675 -0.45005,-0.45006 180.02286,49.69381 -0.3188,1.2189 z m -190.84298,-81.87289 1.12514,-5.4757 3.71298,4.20054 -4.83812,1.27516 z" style="fill:#000;fill-opacity:1;fill-rule:nonzero;stroke:#000;stroke-width:.01875238px;stroke-linecap:butt;stroke-linejoin:round;stroke-opacity:1;stroke-dasharray:none"/><text id="text3171" x="502.021" y="254.948" xml:space="preserve" style="font-size:11.2514286px;font-style:italic;font-weight:400;text-align:start;text-anchor:start;fill:#000;font-family:Verdana">Event Time</text><text id="text3173" x="487.319" y="268.45" xml:space="preserve" style="font-size:11.2514286px;font-style:italic;font-weight:400;text-align:start;text-anchor:start;fill:#000;font-family:Verdana">at input streams</text><path id="path3175" d="m 513.4777,274.59112 -39.69879,53.01298 0.99388,0.75009 39.69879,-53.01298 -0.99388,-0.75009 z m -40.44888,50.87521 -1.01263,5.5132 5.00688,-2.51282 -3.99425,-3.00038 z" style="fill:#000;fill-opacity:1;fill-rule:nonzero;stroke:#000;stroke-width:.01875238px;stroke-linecap:butt;stroke-linejoin:round;stroke-opacity:1;stroke-dasharray:none"/><path id="path3177" d="m 510.42106,270.05304 -26.85341,15.3207 0.61883,1.08764 26.85341,-15.3207 -0.61883,-1.08764 z m -26.70339,13.07041 -3.09414,4.65059 5.56946,-0.30004 -2.47532,-4.35055 z" style="fill:#000;fill-opacity:1;fill-rule:nonzero;stroke:#000;stroke-width:.01875238px;stroke-linecap:butt;stroke-linejoin:round;stroke-opacity:1;stroke-dasharray:none"/></g></g></svg>