<svg xmlns="http://www.w3.org/2000/svg" xmlns:xlink="http://www.w3.org/1999/xlink" width="1000" height="350" version="1.1" viewBox="0 0 1000 350" style="background:#fff"><title>Session Window Join</title><desc>Created with Sketch.</desc><defs><rect id="path-1" width="37" height="113" x="386" y="52"/><rect id="path-2" width="37" height="113" x="701" y="52"/></defs><g id="Page-1" fill="none" fill-rule="evenodd" stroke="none" stroke-width="1"><g id="Session-Window-Join"><path id="Line" stroke="#979797" stroke-linecap="square" d="M58.5,196.5 L941.5,196.5"/><path id="Line-decoration-1" stroke="#979797" stroke-linecap="square" d="M941.5,196.5 L930.7,193.5 L930.7,199.5 L941.5,196.5 Z"/><text id="time" fill="#34323B" font-family="Roboto-Regular, Roboto" font-size="16" font-weight="normal"><tspan x="926" y="227">time</tspan></text><g id="StreamRecord" transform="translate(307.000000, 138.000000)"><circle id="Oval" cx="12.5" cy="12.5" r="12.5" fill="#F5A623" stroke="#979797"/><text id="2" fill="#34323B" font-family="Roboto-Regular, Roboto" font-size="16" font-weight="normal"><tspan x="8" y="18">2</tspan></text></g><g id="StreamRecord-Copy-3" transform="translate(547.000000, 138.000000)"><circle id="Oval" cx="12.5" cy="12.5" r="12.5" fill="#F5A623" stroke="#979797"/><text id="5" fill="#34323B" font-family="Roboto-Regular, Roboto" font-size="16" font-weight="normal"><tspan x="8" y="18">5</tspan></text></g><g id="StreamRecord-Copy-4" transform="translate(627.000000, 138.000000)"><circle id="Oval" cx="12.5" cy="12.5" r="12.5" fill="#F5A623" stroke="#979797"/><text id="6" fill="#34323B" font-family="Roboto-Regular, Roboto" font-size="16" font-weight="normal"><tspan x="8" y="18">6</tspan></text></g><g id="StreamRecord-Copy-4" transform="translate(787.000000, 138.000000)"><circle id="Oval" cx="12.5" cy="12.5" r="12.5" fill="#F5A623" stroke="#979797"/><text id="6" fill="#34323B" font-family="Roboto-Regular, Roboto" font-size="16" font-weight="normal"><tspan x="8" y="18">6</tspan></text></g><g id="StreamRecord-Copy-10" transform="translate(787.000000, 138.000000)"><circle id="Oval" cx="12.5" cy="12.5" r="12.5" fill="#F5A623" stroke="#979797"/><text id="8" fill="#34323B" font-family="Roboto-Regular, Roboto" font-size="16" font-weight="normal"><tspan x="8" y="18">8</tspan></text></g><g id="StreamRecord-Copy-9" transform="translate(867.000000, 138.000000)"><circle id="Oval" cx="12.5" cy="12.5" r="12.5" fill="#F5A623" stroke="#979797"/><text id="9" fill="#34323B" font-family="Roboto-Regular, Roboto" font-size="16" font-weight="normal"><tspan x="8" y="18">9</tspan></text></g><g id="StreamRecord-Copy-7" transform="translate(227.000000, 138.000000)"><circle id="Oval" cx="12.5" cy="12.5" r="12.5" fill="#F5A623" stroke="#979797"/><text id="1" fill="#34323B" font-family="Roboto-Regular, Roboto" font-size="16" font-weight="normal"><tspan x="8" y="18">1</tspan></text></g><g id="StreamRecord-Copy" transform="translate(547.000000, 68.000000)"><circle id="Oval" cx="12.5" cy="12.5" r="12.5" fill="#7ED321" stroke="#979797"/><text id="5" fill="#34323B" font-family="Roboto-Regular, Roboto" font-size="16" font-weight="normal"><tspan x="8" y="18">5</tspan></text></g><g id="StreamRecord-Copy-2" transform="translate(467.000000, 68.000000)"><circle id="Oval" cx="12.5" cy="12.5" r="12.5" fill="#7ED321" stroke="#979797"/><text id="4" fill="#34323B" font-family="Roboto-Regular, Roboto" font-size="16" font-weight="normal"><tspan x="8" y="18">4</tspan></text></g><g id="StreamRecord-Copy-6" transform="translate(148.000000, 68.000000)"><circle id="Oval" cx="12.5" cy="12.5" r="12.5" fill="#7ED321" stroke="#979797"/><text id="0" fill="#34323B" font-family="Roboto-Regular, Roboto" font-size="16" font-weight="normal"><tspan x="8" y="18">0</tspan></text></g><polyline id="Path-2" stroke="#979797" points="133 163 133 50 361 50 361 163"/><polyline id="Path-2" stroke="#979797" points="449 163 449 50 677 50 677 163"/><polyline id="Path-2" stroke="#979797" points="758 163 758 50 926 50 926 163"/><g id="Rectangle-3"><use fill="#D8D8D8" fill-rule="evenodd" xlink:href="#path-1"/><rect width="36" height="112" x="386.5" y="52.5" stroke="#979797" stroke-width="1"/></g><g id="Rectangle-3"><use fill="#D8D8D8" fill-rule="evenodd" xlink:href="#path-2"/><rect width="36" height="112" x="701.5" y="52.5" stroke="#979797" stroke-width="1"/></g><text id="GAP" fill="#000" font-family="AndaleMono, Andale Mono" font-size="18" font-weight="normal" transform="translate(406.000000, 108.500000) rotate(-90.000000) translate(-406.000000, -108.500000)"><tspan x="389.5" y="114.5">GAP</tspan></text><text id="GAP" fill="#000" font-family="AndaleMono, Andale Mono" font-size="18" font-weight="normal" transform="translate(719.000000, 108.500000) rotate(-90.000000) translate(-719.000000, -108.500000)"><tspan x="702.5" y="114.5">GAP</tspan></text><text id="1,0-2,0" fill="#34323B" font-family="AndaleMono, Andale Mono" font-size="20" font-weight="normal"><tspan x="227" y="234">1,0</tspan> <tspan x="227" y="256">2,0</tspan></text><text id="5,4-5,5-6,4-6,5" fill="#34323B" font-family="AndaleMono, Andale Mono" font-size="20" font-weight="normal"><tspan x="545" y="230">5,4</tspan> <tspan x="545" y="252">5,5</tspan> <tspan x="545" y="274">6,4</tspan> <tspan x="545" y="296">6,5</tspan></text></g></g></svg>