<svg xmlns="http://www.w3.org/2000/svg" xmlns:xlink="http://www.w3.org/1999/xlink" width="1000" height="350" version="1.1" viewBox="0 0 1000 350" style="background:#fff"><title>Sliding Window Join</title><desc>Created with Sketch.</desc><g id="Page-1" fill="none" fill-rule="evenodd" stroke="none" stroke-width="1"><g id="Sliding-Window-Join"><path id="Line" stroke="#979797" stroke-linecap="square" d="M101.5,215.5 L882.5,215.5"/><path id="Line-decoration-1" stroke="#979797" stroke-linecap="square" d="M882.5,215.5 L871.7,212.5 L871.7,218.5 L882.5,215.5 Z"/><text id="time" fill="#34323B" font-family="Roboto-Regular, Roboto" font-size="16" font-weight="normal"><tspan x="867" y="242">time</tspan></text><path id="Rectangle-Copy" stroke="#BD10E0" stroke-width="2" d="M544,53 L544,163.8 L650.44697,163.8 L650.44697,53 L544,53 Z"/><path id="Rectangle-Copy-2" stroke="#3F8FAE" stroke-width="2" d="M490,46 L490,170.9 L596.44697,170.9 L596.44697,46 L490,46 Z"/><path id="Rectangle-Copy-3" stroke="#50E3C2" stroke-width="2" d="M381,46 L381,170.9 L487.44697,170.9 L487.44697,46 L381,46 Z"/><path id="Rectangle-Copy-4" stroke="#F5A623" stroke-width="2" d="M327,53 L327,163.8 L433.44697,163.8 L433.44697,53 L327,53 Z"/><path id="Rectangle-Copy-5" stroke="#417505" stroke-width="2" d="M435,39 L435,178 L541.44697,178 L541.44697,39 L435,39 Z"/><path id="Rectangle" stroke="#D0021B" stroke-width="2" d="M273.98992,60 L273.010183,156.7 L379.44697,156.7 L379.44697,60 L273.98992,60 Z"/><rect id="Rectangle-2" width="409" height="78.96" x="257" y="70" fill="#FFF"/><g id="StreamRecord" transform="translate(463.000000, 124.000000)"><ellipse id="Oval" cx="9.683" cy="9.5" fill="#F5A623" stroke="#979797" rx="9.683" ry="9.5"/><text id="2" fill="#34323B" font-family="Roboto-Regular, Roboto" font-size="16" font-weight="normal"><tspan x="6.197" y="15">2</tspan></text></g><g id="StreamRecord-Copy" transform="translate(510.000000, 124.000000)"><ellipse id="Oval" cx="9.683" cy="9.5" fill="#F5A623" stroke="#979797" rx="9.683" ry="9.5"/><text id="3" fill="#34323B" font-family="Roboto-Regular, Roboto" font-size="16" font-weight="normal"><tspan x="6.197" y="15">3</tspan></text></g><g id="StreamRecord-Copy-2" transform="translate(564.000000, 124.000000)"><ellipse id="Oval" cx="9.683" cy="9.5" fill="#F5A623" stroke="#979797" rx="9.683" ry="9.5"/><text id="4" fill="#34323B" font-family="Roboto-Regular, Roboto" font-size="16" font-weight="normal"><tspan x="6.197" y="15">4</tspan></text></g><g id="StreamRecord-Copy-7" transform="translate(401.000000, 124.000000)"><ellipse id="Oval" cx="9.683" cy="9.5" fill="#F5A623" stroke="#979797" rx="9.683" ry="9.5"/><text id="1" fill="#34323B" font-family="Roboto-Regular, Roboto" font-size="16" font-weight="normal"><tspan x="6.197" y="15">1</tspan></text></g><g id="StreamRecord-Copy" transform="translate(507.000000, 75.000000)"><ellipse id="Oval" cx="9.683" cy="9.5" fill="#7ED321" stroke="#979797" rx="9.683" ry="9.5"/><text id="3" fill="#34323B" font-family="Roboto-Regular, Roboto" font-size="16" font-weight="normal"><tspan x="6.197" y="15">3</tspan></text></g><g id="StreamRecord-Copy-2" transform="translate(563.000000, 75.000000)"><ellipse id="Oval" cx="9.683" cy="9.5" fill="#7ED321" stroke="#979797" rx="9.683" ry="9.5"/><text id="4" fill="#34323B" font-family="Roboto-Regular, Roboto" font-size="16" font-weight="normal"><tspan x="6.197" y="15">4</tspan></text></g><g id="StreamRecord-Copy-6" transform="translate(340.000000, 124.000000)"><ellipse id="Oval" cx="9.683" cy="9.5" fill="#F5A623" stroke="#979797" rx="9.683" ry="9.5"/><text id="0" fill="#34323B" font-family="Roboto-Regular, Roboto" font-size="16" font-weight="normal"><tspan x="6.197" y="15">0</tspan></text></g><g id="StreamRecord-Copy-6" transform="translate(340.000000, 75.000000)"><ellipse id="Oval" cx="9.683" cy="9.5" fill="#7ED321" stroke="#979797" rx="9.683" ry="9.5"/><text id="0" fill="#34323B" font-family="Roboto-Regular, Roboto" font-size="16" font-weight="normal"><tspan x="6.197" y="15">0</tspan></text></g><text id="0,0" fill="#D0021B" font-family="AndaleMono, Andale Mono" font-size="20" font-weight="normal"><tspan x="307" y="242">0,0</tspan></text><text id="0,0-1,0" fill="#F5A623" font-family="AndaleMono, Andale Mono" font-size="20" font-weight="normal"><tspan x="362" y="242">0,0</tspan> <tspan x="362" y="264">1,0</tspan></text><text id="2,3-3,3" fill="#417505" font-family="AndaleMono, Andale Mono" font-size="20" font-weight="normal"><tspan x="470" y="242">2,3</tspan> <tspan x="470" y="264">3,3</tspan></text><text id="3,3-3,4-4,3-4,4" fill="#3F8FAE" font-family="AndaleMono, Andale Mono" font-size="20" font-weight="normal"><tspan x="524" y="242">3,3</tspan> <tspan x="524" y="264">3,4</tspan> <tspan x="524" y="286">4,3</tspan> <tspan x="524" y="308">4,4</tspan></text><text id="4,4" fill="#9013FE" font-family="AndaleMono, Andale Mono" font-size="20" font-weight="normal"><tspan x="579" y="242">4,4</tspan></text><text id="-" fill="#50E3C2" font-family="AndaleMono, Andale Mono" font-size="20" font-weight="normal"><tspan x="428" y="242">-</tspan></text></g></g></svg>