<svg xmlns="http://www.w3.org/2000/svg" xmlns:svg="http://www.w3.org/2000/svg" id="svg2" width="831.19" height="364.599" version="1.1"><metadata id="metadata7"/><g id="layer1" transform="translate(139.76354,-243.79437)"><path style="opacity:1;fill:#afabab;fill-opacity:1;fill-rule:evenodd;stroke:none;stop-opacity:1" id="path3140" d="m 449.93572,268.72148 c 0,-6.97673 5.66391,-12.67815 12.67816,-12.67815 h 148.1244 c 7.01425,0 12.67816,5.70142 12.67816,12.67815 v 50.75015 c 0,7.01425 -5.66391,12.67816 -12.67816,12.67816 h -148.1244 c -7.01425,0 -12.67816,-5.66391 -12.67816,-12.67816 z"/><text style="font-style:normal;font-weight:400;font-size:22.5056px;line-height:0%;font-family:Verdana;text-align:start;text-anchor:start;opacity:1;fill:#000;stop-opacity:1" id="text3142" x="511.769" y="289.532" xml:space="preserve">Task</text><text style="font-style:normal;font-weight:400;font-size:22.5056px;line-height:0%;font-family:Verdana;text-align:start;text-anchor:start;opacity:1;fill:#000;stop-opacity:1" id="text3144" x="488.063" y="316.539" xml:space="preserve">Manager</text><path style="opacity:1;fill:#afabab;fill-opacity:1;fill-rule:evenodd;stroke:none;stop-opacity:1" id="path3146" d="m 449.93572,401.27951 c 0,-7.01425 5.66391,-12.71567 12.67816,-12.71567 h 148.1244 c 7.01425,0 12.67816,5.70142 12.67816,12.71567 v 50.71263 c 0,7.01425 -5.66391,12.71567 -12.67816,12.71567 h -148.1244 c -7.01425,0 -12.67816,-5.70142 -12.67816,-12.71567 z"/><text style="font-style:normal;font-weight:400;font-size:22.5056px;line-height:0%;font-family:Verdana;text-align:start;text-anchor:start;opacity:1;fill:#000;stop-opacity:1" id="text3148" x="511.769" y="422.111" xml:space="preserve">Task</text><text style="font-style:normal;font-weight:400;font-size:22.5056px;line-height:0%;font-family:Verdana;text-align:start;text-anchor:start;opacity:1;fill:#000;stop-opacity:1" id="text3150" x="488.063" y="449.118" xml:space="preserve">Manager</text><path style="opacity:1;fill:#afabab;fill-opacity:1;fill-rule:evenodd;stroke:none;stop-opacity:1" id="path3152" d="m 449.93572,533.95006 c 0,-7.01425 5.66391,-12.67816 12.67816,-12.67816 h 148.1244 c 7.01425,0 12.67816,5.66391 12.67816,12.67816 v 50.75014 c 0,7.01425 -5.66391,12.67816 -12.67816,12.67816 h -148.1244 c -7.01425,0 -12.67816,-5.66391 -12.67816,-12.67816 z"/><text style="font-style:normal;font-weight:400;font-size:22.5056px;line-height:0%;font-family:Verdana;text-align:start;text-anchor:start;opacity:1;fill:#000;stop-opacity:1" id="text3154" x="511.769" y="554.689" xml:space="preserve">Task</text><text style="font-style:normal;font-weight:400;font-size:22.5056px;line-height:0%;font-family:Verdana;text-align:start;text-anchor:start;opacity:1;fill:#000;stop-opacity:1" id="text3156" x="488.063" y="581.696" xml:space="preserve">Manager</text><path style="opacity:1;fill:#afabab;fill-opacity:1;fill-rule:evenodd;stroke:none;stop-opacity:1" id="path3158" d="m 131.08754,476.59827 c 0,-6.15153 4.98874,-11.14027 11.14028,-11.14027 h 126.68781 c 6.15153,0 11.12152,4.98874 11.12152,11.14027 v 44.48608 c 0,6.13278 -4.96999,11.12153 -11.12152,11.12153 H 142.22782 c -6.15154,0 -11.14028,-4.98875 -11.14028,-11.12153 z"/><text style="font-style:normal;font-weight:400;font-size:19.955px;line-height:0%;font-family:Verdana;text-align:start;text-anchor:start;opacity:1;fill:#000;stop-opacity:1" id="text3160" x="160.099" y="494.705" xml:space="preserve">Resource</text><text style="font-style:normal;font-weight:400;font-size:19.955px;line-height:0%;font-family:Verdana;text-align:start;text-anchor:start;opacity:1;fill:#000;stop-opacity:1" id="text3162" x="162.5" y="518.711" xml:space="preserve">Manager</text><path style="opacity:1;fill:#afabab;fill-opacity:1;fill-rule:evenodd;stroke:none;stop-opacity:1" id="path3164" d="m 131.08754,329.67417 c 0,-6.13278 4.98874,-11.12152 11.14028,-11.12152 h 126.68781 c 6.15153,0 11.12152,4.98874 11.12152,11.12152 v 44.48608 c 0,6.15153 -4.96999,11.12152 -11.12152,11.12152 H 142.22782 c -6.15154,0 -11.14028,-4.96999 -11.14028,-11.12152 z"/><text style="font-style:normal;font-weight:400;font-size:19.955px;line-height:0%;font-family:Verdana;text-align:start;text-anchor:start;opacity:1;fill:#000;stop-opacity:1" id="text3166" x="188.753" y="347.806" xml:space="preserve">Job</text><text style="font-style:normal;font-weight:400;font-size:19.955px;line-height:0%;font-family:Verdana;text-align:start;text-anchor:start;opacity:1;fill:#000;stop-opacity:1" id="text3168" x="162.497" y="371.812" xml:space="preserve">Manager</text><path style="opacity:1;fill:none;stroke:#000;stroke-width:1.25656px;stroke-linecap:butt;stroke-linejoin:miter;stroke-miterlimit:4;stroke-dasharray:none;stroke-opacity:1;stop-opacity:1" id="path3170" d="M 115.61494,309.32535 H 289.09565 V 540.00782 H 115.61494 Z"/><text style="font-style:italic;font-weight:400;font-size:19.955px;line-height:0%;font-family:Verdana;text-align:start;text-anchor:start;opacity:1;fill:#000;stop-opacity:1" id="text3172" x="135.019" y="563.15" xml:space="preserve">Master Process</text><path style="opacity:1;fill:#000;fill-opacity:1;fill-rule:nonzero;stroke:#000;stroke-width:.0375093px;stroke-linecap:butt;stroke-linejoin:round;stroke-dasharray:none;stroke-opacity:1;stop-opacity:1" id="path3174" d="m 531.03093,339.20154 v 39.87244 h -1.87547 v -39.87244 z m 4.27606,32.85819 -5.2138,8.88971 -5.17629,-8.88971 c -0.26256,-0.45011 -0.11253,-1.05026 0.33759,-1.31283 0.45011,-0.26256 1.01275,-0.075 1.27531,0.33759 l 4.3886,7.50187 h -1.6129 l 4.38859,-7.50187 c 0.22506,-0.41261 0.8252,-0.60015 1.27532,-0.33759 0.45011,0.26257 0.60015,0.86272 0.33758,1.31283 z"/><path style="opacity:1;fill:#000;fill-opacity:1;fill-rule:nonzero;stroke:#000;stroke-width:.0375093px;stroke-linecap:butt;stroke-linejoin:round;stroke-dasharray:none;stroke-opacity:1;stop-opacity:1" id="path3176" d="m 544.1592,341.0395 v 39.90994 h -1.87547 V 341.0395 Z m -6.11403,7.05176 5.17629,-8.88972 5.2138,8.88972 c 0.26257,0.45011 0.11253,1.01275 -0.33758,1.27532 -0.45011,0.26256 -1.05026,0.11252 -1.27532,-0.33759 l -4.38859,-7.50187 h 1.6129 l -4.38859,7.50187 c -0.26257,0.45011 -0.82521,0.60015 -1.27532,0.33759 -0.45011,-0.26257 -0.60015,-0.82521 -0.33759,-1.27532 z"/><path style="opacity:1;fill:#000;fill-opacity:1;fill-rule:nonzero;stroke:#000;stroke-width:.0375093px;stroke-linecap:butt;stroke-linejoin:round;stroke-dasharray:none;stroke-opacity:1;stop-opacity:1" id="path3178" d="m 531.03093,471.72206 v 39.87243 h -1.87547 v -39.87243 z m 4.27606,32.85818 -5.2138,8.88972 -5.17629,-8.88972 c -0.26256,-0.45011 -0.11253,-1.01275 0.33759,-1.27531 0.45011,-0.26257 1.01275,-0.11253 1.27531,0.33758 l 4.3886,7.50187 h -1.6129 l 4.38859,-7.50187 c 0.22506,-0.45011 0.8252,-0.60015 1.27532,-0.33758 0.45011,0.26256 0.60015,0.8252 0.33758,1.27531 z"/><path style="opacity:1;fill:#000;fill-opacity:1;fill-rule:nonzero;stroke:#000;stroke-width:.0375093px;stroke-linecap:butt;stroke-linejoin:round;stroke-dasharray:none;stroke-opacity:1;stop-opacity:1" id="path3180" d="m 544.1592,473.59752 v 39.87244 h -1.87547 v -39.87244 z m -6.11403,7.01425 5.17629,-8.88971 5.2138,8.88971 c 0.26257,0.45011 0.11253,1.01275 -0.33758,1.27532 -0.45011,0.26257 -1.05026,0.11253 -1.27532,-0.33758 l -4.38859,-7.50187 h 1.6129 l -4.38859,7.50187 c -0.26257,0.45011 -0.82521,0.60015 -1.27532,0.33758 -0.45011,-0.26257 -0.60015,-0.82521 -0.33759,-1.27532 z"/><path style="opacity:1;fill:#000;fill-opacity:1;fill-rule:nonzero;stroke:#000;stroke-width:.0375093px;stroke-linecap:butt;stroke-linejoin:round;stroke-dasharray:none;stroke-opacity:1;stop-opacity:1" id="path3182" d="m 414.9395,296.81598 -103.30073,62.04046 -0.93773,-1.6129 103.26322,-62.04046 z m -95.08618,62.07797 -10.27756,0.11253 4.95123,-9.03975 c 0.26256,-0.45012 0.8252,-0.60015 1.27532,-0.33759 0.45011,0.22506 0.60015,0.7877 0.37509,1.27532 v 0 l -4.20105,7.6144 -0.8252,-1.38785 8.70217,-0.11253 c 0.48762,-0.0375 0.93773,0.3751 0.93773,0.90023 0,0.52513 -0.4126,0.93773 -0.93773,0.97524 z"/><path style="opacity:1;fill:#000;fill-opacity:1;fill-rule:nonzero;stroke:#000;stroke-width:.0375093px;stroke-linecap:butt;stroke-linejoin:round;stroke-dasharray:none;stroke-opacity:1;stop-opacity:1" id="path3184" d="m 421.3536,311.06953 -103.30073,62.07797 -0.93774,-1.6129 103.26323,-62.04046 z m -9.18979,-1.6129 10.31507,-0.15003 -4.95123,9.03975 c -0.26257,0.45011 -0.82521,0.63766 -1.27532,0.37509 -0.45011,-0.26256 -0.63766,-0.8252 -0.37509,-1.27532 l 4.16354,-7.61439 0.8252,1.38784 -8.66466,0.11253 c -0.52513,0 -0.93773,-0.4126 -0.93773,-0.93773 -0.0375,-0.48762 0.37509,-0.93774 0.90022,-0.93774 z"/><path style="opacity:1;fill:#000;fill-opacity:1;fill-rule:nonzero;stroke:#000;stroke-width:.0375093px;stroke-linecap:butt;stroke-linejoin:round;stroke-dasharray:none;stroke-opacity:1;stop-opacity:1" id="path3186" d="M 429.90573,418.1212 H 309.42572 v -1.87546 h 120.48001 z m -113.46576,4.23856 -8.88972,-5.17629 8.88972,-5.17629 c 0.45011,-0.26256 1.01275,-0.11253 1.27531,0.33759 0.26257,0.45011 0.11253,1.01275 -0.33758,1.27531 v 0 l -7.50187,4.3886 v -1.65042 l 7.50187,4.3886 c 0.45011,0.26256 0.60015,0.8252 0.33758,1.27532 -0.26256,0.45011 -0.8252,0.60015 -1.27531,0.33758 z"/><path style="opacity:1;fill:#000;fill-opacity:1;fill-rule:nonzero;stroke:#000;stroke-width:.0375093px;stroke-linecap:butt;stroke-linejoin:round;stroke-dasharray:none;stroke-opacity:1;stop-opacity:1" id="path3188" d="M 428.03027,433.7626 H 307.55025 v -1.87547 h 120.48002 z m -7.01425,-6.15153 8.88971,5.2138 -8.88971,5.17629 c -0.45011,0.26256 -1.01275,0.11252 -1.27532,-0.33759 -0.26256,-0.45011 -0.11253,-1.01275 0.33758,-1.27532 l 7.50187,-4.38859 v 1.6129 l -7.50187,-4.35108 c -0.45011,-0.26257 -0.60014,-0.86272 -0.33758,-1.31283 0.26257,-0.45011 0.82521,-0.60015 1.27532,-0.33758 z"/><path style="opacity:1;fill:#000;fill-opacity:1;fill-rule:nonzero;stroke:#000;stroke-width:.0375093px;stroke-linecap:butt;stroke-linejoin:round;stroke-dasharray:none;stroke-opacity:1;stop-opacity:1" id="path3190" d="m 420.86598,538.1136 -104.351,-60.24001 0.93774,-1.6129 104.35099,60.24001 z m -100.375,-53.03822 -5.13879,-8.92722 10.31507,-0.075 c 0.52514,0 0.93774,0.4126 0.93774,0.93774 0,0.52513 -0.4126,0.93773 -0.93774,0.93773 v 0 l -8.66465,0.0375 0.78769,-1.38785 4.31358,7.53938 c 0.26256,0.45011 0.11252,1.01275 -0.33759,1.27532 -0.45011,0.26256 -1.05026,0.11253 -1.27531,-0.33759 z"/><path style="opacity:1;fill:#000;fill-opacity:1;fill-rule:nonzero;stroke:#000;stroke-width:.0375093px;stroke-linecap:butt;stroke-linejoin:round;stroke-dasharray:none;stroke-opacity:1;stop-opacity:1" id="path3192" d="m 411.48864,550.64172 -104.35099,-60.24001 0.93773,-1.6129 104.351,60.24001 z m -3.03825,-8.8147 5.10127,8.96474 -10.27756,0.0375 c -0.52513,0 -0.93774,-0.41261 -0.93774,-0.93774 0,-0.52513 0.41261,-0.93773 0.93774,-0.93773 l 8.66466,-0.0375 -0.7877,1.38784 -4.31357,-7.53937 c -0.26257,-0.45012 -0.11253,-1.01276 0.33758,-1.27532 0.45011,-0.26257 1.01275,-0.11253 1.27532,0.33758 z"/><text style="font-style:italic;font-weight:400;font-size:19.955px;line-height:0%;font-family:Verdana;text-align:start;text-anchor:start;opacity:1;fill:#000;stop-opacity:1" id="text3194" x="307.515" y="398.856" xml:space="preserve">RPC / BLOB</text><text style="font-style:italic;font-weight:400;font-size:19.955px;line-height:0%;font-family:Verdana;text-align:start;text-anchor:start;opacity:1;fill:#000;stop-opacity:1" id="text3196" x="572.891" y="367.763" xml:space="preserve">Data Plane</text><text style="font-style:italic;font-weight:400;font-size:19.955px;line-height:0%;font-family:Verdana;text-align:start;text-anchor:start;opacity:1;fill:#000;stop-opacity:1" id="text3198" x="572.891" y="500.283" xml:space="preserve">Data Plane</text><path style="opacity:1;fill:#000;fill-opacity:1;fill-rule:nonzero;stroke:#000;stroke-width:.0375093px;stroke-linecap:butt;stroke-linejoin:round;stroke-dasharray:none;stroke-opacity:1;stop-opacity:1" id="path3200" d="m 101.54893,607.69343 v -3.75093 h 1.27532 v 3.75093 z m 0,-4.98874 v -3.75094 h 1.27532 v 3.75094 z m 0,-5.02625 v -3.75094 h 1.27532 v 3.75094 z m 0,-4.98875 v -3.75093 h 1.27532 v 3.75093 z m 0,-4.98874 v -3.75093 h 1.27532 v 3.75093 z m 0,-5.02625 v -3.75094 h 1.27532 v 3.75094 z m 0,-4.98874 v -3.75094 h 1.27532 v 3.75094 z m 0,-4.98875 v -3.75093 h 1.27532 v 3.75093 z m 0,-5.02625 v -3.75093 h 1.27532 v 3.75093 z m 0,-4.98874 v -3.75094 h 1.27532 v 3.75094 z m 0,-4.98874 v -3.75094 h 1.27532 v 3.75094 z m 0,-5.02626 v -3.75093 h 1.27532 v 3.75093 z m 0,-4.98874 v -3.75093 h 1.27532 v 3.75093 z m 0,-4.98874 v -3.75094 h 1.27532 v 3.75094 z m 0,-5.02625 v -3.75094 h 1.27532 v 3.75094 z m 0,-4.98875 v -3.75093 h 1.27532 v 3.75093 z m 0,-4.98874 v -3.75093 h 1.27532 v 3.75093 z m 0,-5.02625 v -3.75094 h 1.27532 v 3.75094 z m 0,-4.98875 v -3.75093 h 1.27532 v 3.75093 z m 0,-4.98874 v -3.75093 h 1.27532 v 3.75093 z m 0,-5.02625 v -3.75093 h 1.27532 v 3.75093 z m 0,-4.98874 v -3.75094 h 1.27532 v 3.75094 z m 0,-4.98875 v -3.75093 h 1.27532 v 3.75093 z m 0,-5.02625 v -3.75093 h 1.27532 v 3.75093 z m 0,-4.98874 v -3.75094 h 1.27532 v 3.75094 z m 0,-4.98874 v -3.75094 h 1.27532 v 3.75094 z m 0,-5.02626 v -3.75093 h 1.27532 v 3.75093 z m 0,-4.98874 v -3.75093 h 1.27532 v 3.75093 z m 0,-4.98874 v -3.75094 h 1.27532 v 3.75094 z m 0,-5.02625 v -3.75094 h 1.27532 v 3.75094 z m 0,-4.98875 v -3.75093 h 1.27532 v 3.75093 z m 0,-4.98874 v -3.75093 h 1.27532 v 3.75093 z m 0,-5.02625 v -3.75094 h 1.27532 v 3.75094 z m 0,-4.98874 v -3.75094 h 1.27532 v 3.75094 z m 0,-4.98875 v -3.75093 h 1.27532 v 3.75093 z m 0,-5.02625 v -3.75093 h 1.27532 v 3.75093 z m 0,-4.98874 v -3.75094 h 1.27532 v 3.75094 z m 0,-4.98875 v -3.75093 h 1.27532 v 3.75093 z m 0,-5.02625 v -3.75093 h 1.27532 v 3.75093 z m 0,-4.98874 v -3.75093 h 1.27532 v 3.75093 z m 0,-4.98874 v -3.75094 h 1.27532 v 3.75094 z m 0,-5.02626 v -3.75093 h 1.27532 v 3.75093 z m 0,-4.98874 v -3.75093 h 1.27532 v 3.75093 z m 0,-4.98874 v -3.75094 h 1.27532 v 3.75094 z m 0,-5.02625 v -3.75094 h 1.27532 v 3.75094 z m 0,-4.98875 v -3.75093 h 1.27532 v 3.75093 z m 0,-4.98874 v -3.75093 h 1.27532 v 3.75093 z m 0,-5.02625 v -3.75094 h 1.27532 v 3.75094 z m 0,-4.98874 v -3.75094 h 1.27532 v 3.75094 z m 0,-4.98875 v -3.75093 h 1.27532 v 3.75093 z m 0,-5.02625 v -3.75093 h 1.27532 v 3.75093 z m 0,-4.98874 v -3.75094 h 1.27532 v 3.75094 z m 0,-4.98874 v -3.75094 h 1.27532 v 3.75094 z m 0,-5.02626 v -3.75093 h 1.27532 v 3.75093 z m 0,-4.98874 v -3.75093 h 1.27532 v 3.75093 z m 0,-4.98874 v -3.75094 h 1.27532 v 3.75094 z m 0,-5.02625 v -3.75094 h 1.27532 v 3.75094 z m 0,-4.98875 v -3.75093 h 1.27532 v 3.75093 z m 0,-4.98874 v -3.75093 h 1.27532 v 3.75093 z m 0,-5.02625 v -3.75094 h 1.27532 v 3.75094 z m 0,-4.98874 v -3.75094 h 1.27532 v 3.75094 z m 0,-4.98875 V 298.879 h 1.27532 v 3.75093 z m 0,-5.02625 v -3.75093 h 1.27532 v 3.75093 z m 0,-4.98874 V 288.864 h 1.27532 v 3.75094 z m 0,-4.98875 v -3.75093 h 1.27532 v 3.75093 z m 0,-5.02625 v -3.75093 h 1.27532 v 3.75093 z m 0,-4.98874 v -3.75093 h 1.27532 v 3.75093 z m 0,-4.98874 v -3.75094 h 1.27532 v 3.75094 z m 0,-5.02626 v -3.75093 h 1.27532 v 3.75093 z m 0,-4.98874 v -3.75093 h 1.27532 v 3.75093 z m 0,-4.98874 v -3.75094 h 1.27532 v 3.75094 z m 0,-5.02625 v -3.75094 h 1.27532 v 3.75094 z m 0,-4.98875 v -3.75093 h 1.27532 v 1.23781 h -0.63766 l 0.63766,-0.60015 v 3.11327 z m 2.51313,-3.75093 h 3.75093 v 1.23781 h -3.75093 z m 4.98874,0 h 3.75093 v 1.23781 h -3.75093 z m 5.02625,0 h 3.75094 v 1.23781 h -3.75094 z m 4.98874,0 h 3.75094 v 1.23781 h -3.75094 z m 4.98875,0 h 3.75093 v 1.23781 h -3.75093 z m 5.02625,0 h 3.75093 v 1.23781 h -3.75093 z m 4.98874,0 h 3.75094 v 1.23781 h -3.75094 z m 4.98875,0 h 3.75093 v 1.23781 h -3.75093 z m 5.02625,0 h 3.75093 v 1.23781 h -3.75093 z m 4.98874,0 h 3.75094 v 1.23781 h -3.75094 z m 4.98874,0 h 3.75094 v 1.23781 h -3.75094 z m 5.02626,0 h 3.75093 v 1.23781 h -3.75093 z m 4.98874,0 h 3.75093 v 1.23781 h -3.75093 z m 4.98874,0 h 3.75094 v 1.23781 h -3.75094 z m 5.02625,0 h 3.75094 v 1.23781 H 174.092 Z m 4.98875,0 h 3.75093 v 1.23781 h -3.75093 z m 4.98874,0 h 3.75093 v 1.23781 h -3.75093 z m 5.02625,0 h 3.75094 v 1.23781 h -3.75094 z m 4.98874,0 h 3.75094 v 1.23781 h -3.75094 z m 4.98875,0 h 3.75093 v 1.23781 h -3.75093 z m 5.02625,0 h 3.75093 v 1.23781 h -3.75093 z m 4.98874,0 h 3.75094 v 1.23781 h -3.75094 z m 4.98874,0 h 3.75094 v 1.23781 h -3.75094 z m 5.02626,0 h 3.75093 v 1.23781 h -3.75093 z m 4.98874,0 h 3.75093 v 1.23781 h -3.75093 z m 4.98874,0 h 3.75094 v 1.23781 h -3.75094 z m 5.02625,0 h 3.75094 v 1.23781 h -3.75094 z m 4.98875,0 h 3.75093 v 1.23781 h -3.75093 z m 4.98874,0 h 3.75093 v 1.23781 h -3.75093 z m 5.02625,0 h 3.75094 v 1.23781 h -3.75094 z m 4.98875,0 h 3.75093 v 1.23781 h -3.75093 z m 4.98874,0 h 3.75093 v 1.23781 h -3.75093 z m 5.02625,0 h 3.75093 v 1.23781 h -3.75093 z m 4.98874,0 h 3.75094 v 1.23781 h -3.75094 z m 4.98875,0 h 3.75093 v 1.23781 h -3.75093 z m 5.02625,0 h 3.75093 v 1.23781 h -3.75093 z m 4.98874,0 h 3.75094 v 1.23781 h -3.75094 z m 4.98874,0 h 3.75094 v 1.23781 h -3.75094 z m 5.02626,0 h 3.75093 v 1.23781 h -3.75093 z m 4.98874,0 h 3.75093 v 1.23781 h -3.75093 z m 4.98874,0 h 3.75094 v 1.23781 h -3.75094 z m 5.02625,0 h 3.75094 v 1.23781 h -3.75094 z m 4.98875,0 h 3.75093 v 1.23781 h -3.75093 z m 4.98874,0 h 3.75093 v 1.23781 h -3.75093 z m 5.02625,0 h 3.75094 v 1.23781 h -3.75094 z m 4.98874,0 h 3.75094 v 1.23781 h -3.75094 z m 4.98875,0 h 3.75093 v 1.23781 h -3.75093 z m 5.02625,0 h 3.75093 v 1.23781 h -3.75093 z m 4.98874,0 h 3.75094 v 1.23781 h -3.75094 z m 4.98874,0 h 3.75094 v 1.23781 h -3.75094 z m 5.02626,0 h 3.75093 v 1.23781 h -3.75093 z m 4.98874,0 h 3.75093 v 1.23781 h -3.75093 z m 4.98874,0 h 3.75094 v 1.23781 h -3.75094 z m 5.02625,0 h 3.75094 v 1.23781 h -3.75094 z m 4.98875,0 h 3.75093 v 1.23781 h -3.75093 z m 4.98874,0 h 3.75093 v 1.23781 h -3.75093 z m 5.02625,0 h 3.75094 v 1.23781 h -3.75094 z m 4.98875,0 h 3.75093 v 1.23781 h -3.75093 z m 4.98874,0 h 3.75093 v 1.23781 h -3.75093 z m 5.02625,0 h 3.75093 v 1.23781 h -3.75093 z m 4.98874,0 h 3.75094 v 1.23781 h -3.75094 z m 4.98875,0 h 3.75093 v 1.23781 h -3.75093 z m 5.02625,0 h 3.75093 v 1.23781 h -3.75093 z m 4.98874,0 h 3.75094 v 1.23781 h -3.75094 z m 4.98874,0 h 3.75094 v 1.23781 h -3.75094 z m 5.02626,0 h 3.75093 v 1.23781 h -3.75093 z m 4.98874,0 h 3.75093 v 1.23781 h -3.75093 z m 4.98874,0 h 3.75094 v 1.23781 h -3.75094 z m 5.02625,0 h 3.75094 v 1.23781 h -3.75094 z m 4.98875,0 h 3.75093 v 1.23781 h -3.75093 z m 4.98874,0 h 3.75093 v 1.23781 h -3.75093 z m 5.02625,0 h 3.75094 v 1.23781 h -3.75094 z m 4.98874,0 h 3.75094 v 1.23781 h -3.75094 z m 4.98875,0 h 3.75093 v 1.23781 h -3.75093 z m 5.02625,0 h 3.75093 v 1.23781 h -3.75093 z m 4.98874,0 h 3.75094 v 1.23781 h -3.75094 z m 4.98875,0 h 3.75093 v 1.23781 h -3.75093 z m 5.02625,0 h 3.75093 v 1.23781 h -3.75093 z m 4.98874,0 h 3.75093 v 1.23781 h -3.75093 z m 4.98874,0 h 3.75094 v 1.23781 h -3.75094 z m 5.02626,0 h 3.75093 v 1.23781 h -3.75093 z m 4.98874,0 h 3.75093 v 1.23781 h -3.75093 z m 4.98874,0 h 3.75094 v 1.23781 h -3.75094 z m 5.02625,0 h 3.75094 v 1.23781 h -3.75094 z m 4.98875,0 h 3.75093 v 1.23781 h -3.75093 z m 4.98874,0 h 3.75093 v 1.23781 h -3.75093 z m 5.02625,0 h 3.75094 v 1.23781 h -3.75094 z m 4.98874,0 h 3.75094 v 1.23781 h -3.75094 z m 4.98875,0 h 3.75093 v 1.23781 h -3.75093 z m 5.02625,0 h 3.75093 v 1.23781 h -3.75093 z m 4.98874,0 h 3.75094 v 1.23781 h -3.75094 z m 4.98874,0 h 3.75094 v 1.23781 h -3.75094 z m 5.02626,0 h 3.75093 v 1.23781 h -3.75093 z m 4.98874,0 h 3.75093 v 1.23781 h -3.75093 z m 4.98874,0 h 3.75094 v 1.23781 h -3.75094 z m 5.02625,0 h 3.75094 v 1.23781 h -3.75094 z m 4.98875,0 h 3.75093 v 1.23781 h -3.75093 z m 4.98874,0 h 3.75093 v 1.23781 h -3.75093 z m 5.02625,0 h 3.75094 v 1.23781 h -3.75094 z m 4.98874,0 h 3.75094 v 1.23781 h -3.75094 z m 4.98875,0 h 3.75093 v 1.23781 h -3.75093 z m 5.02625,0 h 3.75093 v 1.23781 h -3.75093 z m 4.98874,0 h 3.75094 v 1.23781 h -3.75094 z m 4.98875,0 h 3.75093 v 1.23781 h -3.75093 z m 5.02625,0 h 3.75093 v 1.23781 h -3.75093 z m 4.98874,0 h 3.75093 v 1.23781 h -3.75093 z m 4.98874,0 h 3.75094 v 1.23781 h -3.75094 z m 5.02626,0 h 3.75093 v 1.23781 h -3.75093 z m 4.98874,0 h 3.75093 v 1.23781 h -3.75093 z m 4.98874,0 h 3.75094 v 1.23781 h -3.75094 z m 5.02625,0 h 3.75094 v 1.23781 h -3.75094 z m 4.98875,0 h 3.75093 v 1.23781 h -3.75093 z m 4.98874,0 h 3.75093 v 1.23781 h -3.75093 z m 5.02625,0 h 3.75094 v 1.23781 h -3.75094 z m 4.98874,0 h 3.75094 v 1.23781 h -3.75094 z m 4.98875,0 h 3.75093 v 1.23781 h -3.75093 z m 5.02625,0 h 3.75093 v 1.23781 h -3.75093 z m 4.98874,0 h 2.17554 v 2.8132 h -1.2378 v -2.17554 l 0.63765,0.60015 h -1.57539 z m 2.17554,4.05101 v 3.75093 h -1.2378 v -3.75093 z m 0,5.02625 v 3.75094 h -1.2378 v -3.75094 z m 0,4.98874 v 3.75094 h -1.2378 v -3.75094 z m 0,4.98875 v 3.75093 h -1.2378 v -3.75093 z m 0,5.02625 v 3.75093 h -1.2378 v -3.75093 z m 0,4.98874 v 3.75094 h -1.2378 v -3.75094 z m 0,4.98874 v 3.75094 h -1.2378 v -3.75094 z m 0,5.02626 v 3.75093 h -1.2378 v -3.75093 z m 0,4.98874 v 3.75093 h -1.2378 v -3.75093 z m 0,4.98874 v 3.75094 h -1.2378 v -3.75094 z m 0,5.02625 v 3.75094 h -1.2378 v -3.75094 z m 0,4.98875 v 3.75093 h -1.2378 v -3.75093 z m 0,4.98874 v 3.75093 h -1.2378 v -3.75093 z m 0,5.02625 v 3.75094 h -1.2378 V 312.945 Z m 0,4.98874 v 3.75094 h -1.2378 v -3.75094 z m 0,4.98875 v 3.75093 h -1.2378 v -3.75093 z m 0,5.02625 v 3.75093 h -1.2378 v -3.75093 z m 0,4.98874 v 3.75094 h -1.2378 v -3.75094 z m 0,4.98875 v 3.75093 h -1.2378 v -3.75093 z m 0,5.02625 v 3.75093 h -1.2378 v -3.75093 z m 0,4.98874 v 3.75094 h -1.2378 v -3.75094 z m 0,4.98874 v 3.75094 h -1.2378 v -3.75094 z m 0,5.02626 v 3.75093 h -1.2378 v -3.75093 z m 0,4.98874 v 3.75093 h -1.2378 v -3.75093 z m 0,4.98874 v 3.75094 h -1.2378 v -3.75094 z m 0,5.02625 v 3.75094 h -1.2378 v -3.75094 z m 0,4.98875 v 3.75093 h -1.2378 v -3.75093 z m 0,4.98874 v 3.75093 h -1.2378 v -3.75093 z m 0,5.02625 v 3.75094 h -1.2378 v -3.75094 z m 0,4.98874 v 3.75094 h -1.2378 v -3.75094 z m 0,4.98875 v 3.75093 h -1.2378 v -3.75093 z m 0,5.02625 v 3.75093 h -1.2378 v -3.75093 z m 0,4.98874 v 3.75094 h -1.2378 v -3.75094 z m 0,4.98874 v 3.75094 h -1.2378 v -3.75094 z m 0,5.02626 v 3.75093 h -1.2378 v -3.75093 z m 0,4.98874 v 3.75093 h -1.2378 v -3.75093 z m 0,4.98874 v 3.75094 h -1.2378 v -3.75094 z m 0,5.02625 v 3.75094 h -1.2378 v -3.75094 z m 0,4.98875 v 3.75093 h -1.2378 v -3.75093 z m 0,4.98874 v 3.75093 h -1.2378 v -3.75093 z m 0,5.02625 v 3.75094 h -1.2378 v -3.75094 z m 0,4.98875 v 3.75093 h -1.2378 v -3.75093 z m 0,4.98874 v 3.75093 h -1.2378 v -3.75093 z m 0,5.02625 v 3.75093 h -1.2378 v -3.75093 z m 0,4.98874 v 3.75094 h -1.2378 v -3.75094 z m 0,4.98875 v 3.75093 h -1.2378 v -3.75093 z m 0,5.02625 v 3.75093 h -1.2378 v -3.75093 z m 0,4.98874 v 3.75094 h -1.2378 v -3.75094 z m 0,4.98874 v 3.75094 h -1.2378 v -3.75094 z m 0,5.02626 v 3.75093 h -1.2378 v -3.75093 z m 0,4.98874 v 3.75093 h -1.2378 v -3.75093 z m 0,4.98874 v 3.75094 h -1.2378 v -3.75094 z m 0,5.02625 v 3.75094 h -1.2378 v -3.75094 z m 0,4.98875 v 3.75093 h -1.2378 v -3.75093 z m 0,4.98874 v 3.75093 h -1.2378 v -3.75093 z m 0,5.02625 v 3.75094 h -1.2378 v -3.75094 z m 0,4.98874 v 3.75094 h -1.2378 v -3.75094 z m 0,4.98875 v 3.75093 h -1.2378 v -3.75093 z m 0,5.02625 v 3.75093 h -1.2378 v -3.75093 z m 0,4.98874 v 3.75094 h -1.2378 v -3.75094 z m 0,4.98874 v 3.75094 h -1.2378 v -3.75094 z m 0,5.02626 v 3.75093 h -1.2378 v -3.75093 z m 0,4.98874 v 3.75093 h -1.2378 v -3.75093 z m 0,4.98874 v 3.75094 h -1.2378 v -3.75094 z m 0,5.02625 v 3.75094 h -1.2378 v -3.75094 z m 0,4.98875 v 3.75093 h -1.2378 v -3.75093 z m 0,4.98874 v 3.75093 h -1.2378 v -3.75093 z m 0,5.02625 v 3.75094 h -1.2378 v -3.75094 z m 0,4.98875 v 3.75093 h -1.2378 v -3.75093 z m 0,4.98874 v 3.75093 h -1.2378 v -3.75093 z m 0,5.02625 v 3.75093 h -1.2378 v -3.75093 z m 0,4.98874 v 3.75094 h -1.2378 v -3.75094 z m -0.93773,5.32633 h -3.75093 v -1.27532 h 3.75093 z m -4.98874,0 h -3.75094 v -1.27532 h 3.75094 z m -4.98875,0 h -3.75093 v -1.27532 h 3.75093 z m -5.02625,0 h -3.75093 v -1.27532 h 3.75093 z m -4.98874,0 h -3.75094 v -1.27532 h 3.75094 z m -4.98874,0 h -3.75094 v -1.27532 h 3.75094 z m -5.02626,0 h -3.75093 v -1.27532 h 3.75093 z m -4.98874,0 h -3.75093 v -1.27532 h 3.75093 z m -4.98874,0 h -3.75094 v -1.27532 h 3.75094 z m -5.02625,0 h -3.75094 v -1.27532 h 3.75094 z m -4.98875,0 h -3.75093 v -1.27532 h 3.75093 z m -4.98874,0 h -3.75093 v -1.27532 h 3.75093 z m -5.02625,0 h -3.75094 v -1.27532 h 3.75094 z m -4.98874,0 h -3.75094 v -1.27532 h 3.75094 z m -4.98875,0 h -3.75093 v -1.27532 h 3.75093 z m -5.02625,0 h -3.75093 v -1.27532 h 3.75093 z m -4.98874,0 h -3.75094 v -1.27532 h 3.75094 z m -4.98874,0 h -3.75094 v -1.27532 h 3.75094 z m -5.02626,0 h -3.75093 v -1.27532 h 3.75093 z m -4.98874,0 h -3.75093 v -1.27532 h 3.75093 z m -4.98874,0 h -3.75094 v -1.27532 h 3.75094 z m -5.02625,0 h -3.75094 v -1.27532 h 3.75094 z m -4.98875,0 h -3.75093 v -1.27532 h 3.75093 z m -4.98874,0 h -3.75093 v -1.27532 h 3.75093 z m -5.02625,0 h -3.75094 v -1.27532 h 3.75094 z m -4.98875,0 h -3.75093 v -1.27532 h 3.75093 z m -4.98874,0 h -3.75093 v -1.27532 h 3.75093 z m -5.02625,0 h -3.75093 v -1.27532 h 3.75093 z m -4.98874,0 h -3.75094 v -1.27532 h 3.75094 z m -4.98875,0 h -3.75093 v -1.27532 h 3.75093 z m -5.02625,0 h -3.75093 v -1.27532 h 3.75093 z m -4.98874,0 h -3.75094 v -1.27532 h 3.75094 z m -4.98874,0 h -3.75094 v -1.27532 h 3.75094 z m -5.02626,0 h -3.75093 v -1.27532 h 3.75093 z m -4.98874,0 h -3.75093 v -1.27532 h 3.75093 z m -4.98874,0 h -3.75094 v -1.27532 h 3.75094 z m -5.02625,0 h -3.75094 v -1.27532 h 3.75094 z m -4.98875,0 h -3.75093 v -1.27532 h 3.75093 z m -4.98874,0 h -3.75093 v -1.27532 h 3.75093 z m -5.02625,0 h -3.75094 v -1.27532 h 3.75094 z m -4.98874,0 h -3.75094 v -1.27532 h 3.75094 z m -4.98875,0 h -3.75093 v -1.27532 h 3.75093 z m -5.02625,0 h -3.75093 v -1.27532 h 3.75093 z m -4.98874,0 h -3.75094 v -1.27532 h 3.75094 z m -4.98874,0 h -3.75094 v -1.27532 h 3.75094 z m -5.02626,0 h -3.75093 v -1.27532 h 3.75093 z m -4.98874,0 h -3.75093 v -1.27532 h 3.75093 z m -4.98874,0 h -3.75094 v -1.27532 h 3.75094 z m -5.02625,0 h -3.75094 v -1.27532 h 3.75094 z m -4.98875,0 h -3.75093 v -1.27532 h 3.75093 z m -4.98874,0 h -3.75094 v -1.27532 h 3.75094 z m -5.02625,0 h -3.75094 v -1.27532 h 3.75094 z m -4.98875,0 h -3.75093 v -1.27532 h 3.75093 z m -4.98874,0 h -3.75093 v -1.27532 h 3.75093 z m -5.02625,0 h -3.75093 v -1.27532 h 3.75093 z m -4.98874,0 h -3.75094 v -1.27532 h 3.75094 z m -4.98875,0 h -3.75093 v -1.27532 h 3.75093 z m -5.02625,0 h -3.75093 v -1.27532 h 3.75093 z m -4.98874,0 h -3.75094 v -1.27532 h 3.75094 z m -4.98874,0 h -3.75094 v -1.27532 h 3.75094 z m -5.02626,0 h -3.75093 v -1.27532 h 3.75093 z m -4.98874,0 h -3.75093 v -1.27532 h 3.75093 z m -4.98874,0 h -3.75094 v -1.27532 h 3.75094 z m -5.02625,0 h -3.75094 v -1.27532 h 3.75094 z m -4.98875,0 h -3.75093 v -1.27532 h 3.75093 z m -4.98874,0 h -3.75093 v -1.27532 h 3.75093 z m -5.02625,0 h -3.75094 v -1.27532 h 3.75094 z m -4.98874,0 h -3.75094 v -1.27532 h 3.75094 z m -4.98875,0 h -3.75093 v -1.27532 h 3.75093 z m -5.02625,0 h -3.75093 v -1.27532 h 3.75093 z m -4.98874,0 h -3.75094 v -1.27532 h 3.75094 z m -4.98875,0 h -3.75093 v -1.27532 h 3.75093 z m -5.02625,0 H 326.605 v -1.27532 h 3.75093 z m -4.98874,0 h -3.75093 v -1.27532 h 3.75093 z m -4.98874,0 h -3.75094 v -1.27532 h 3.75094 z m -5.02626,0 h -3.75093 v -1.27532 h 3.75093 z m -4.98874,0 h -3.75093 v -1.27532 h 3.75093 z m -4.98874,0 h -3.75094 v -1.27532 h 3.75094 z m -5.02625,0 h -3.75094 v -1.27532 h 3.75094 z m -4.98875,0 h -3.75093 v -1.27532 h 3.75093 z m -4.98874,0 h -3.75093 v -1.27532 h 3.75093 z m -5.02625,0 h -3.75094 v -1.27532 h 3.75094 z m -4.98874,0 h -3.75094 v -1.27532 h 3.75094 z m -4.98875,0 h -3.75093 v -1.27532 h 3.75093 z m -5.02625,0 h -3.75093 v -1.27532 h 3.75093 z m -4.98874,0 h -3.75094 v -1.27532 h 3.75094 z m -4.98874,0 h -3.75094 v -1.27532 h 3.75094 z m -5.02626,0 h -3.75093 v -1.27532 h 3.75093 z m -4.98874,0 h -3.75093 v -1.27532 h 3.75093 z m -4.98874,0 h -3.75094 v -1.27532 h 3.75094 z m -5.02625,0 h -3.75094 v -1.27532 h 3.75094 z m -4.98875,0 h -3.75093 v -1.27532 h 3.75093 z m -4.98874,0 h -3.75093 v -1.27532 h 3.75093 z m -5.02625,0 h -3.75094 v -1.27532 h 3.75094 z m -4.98874,0 h -3.75094 v -1.27532 h 3.75094 z m -4.98875,0 h -3.75093 v -1.27532 h 3.75093 z m -5.02625,0 h -3.75093 v -1.27532 h 3.75093 z m -4.98874,0 h -3.75094 v -1.27532 h 3.75094 z m -4.98875,0 h -3.75093 v -1.27532 h 3.75093 z m -5.02625,0 h -3.75093 v -1.27532 h 3.75093 z m -4.98874,0 h -3.75093 v -1.27532 h 3.75093 z m -4.98874,0 h -3.75094 v -1.27532 h 3.75094 z m -5.02626,0 h -3.75093 v -1.27532 h 3.75093 z m -4.98874,0 h -3.75093 v -1.27532 h 3.75093 z m -4.98874,0 h -3.75094 v -1.27532 h 3.75094 z m -5.02625,0 h -3.75094 v -1.27532 h 3.75094 z m -4.98875,0 h -3.75093 v -1.27532 h 3.75093 z m -4.98874,0 h -3.75093 v -1.27532 h 3.75093 z m -5.02625,0 h -3.75094 v -1.27532 h 3.75094 z m -4.98874,0 h -3.75094 v -1.27532 h 3.75094 z m -4.98875,0 h -3.75093 v -1.27532 h 3.75093 z m -5.02625,0 h -3.75093 v -1.27532 h 3.75093 z m -4.98874,0 h -3.75094 v -1.27532 h 3.75094 z m -4.98874,0 h -3.75094 v -1.27532 h 3.75094 z m -5.02626,0 h -3.75093 v -1.27532 h 3.75093 z m -4.98874,0 h -3.75093 v -1.27532 h 3.75093 z m -4.98874,0 h -3.75094 v -1.27532 h 3.75094 z m -5.02625,0 h -3.11328 v -1.27532 h 3.11328 z"/><path style="opacity:1;fill:#fff;fill-opacity:1;fill-rule:evenodd;stroke:none;stop-opacity:1" id="path3202" d="m 93.74699,374.02897 v 101.91289 h 29.68864 V 374.02897 Z"/><path style="opacity:1;fill:none;stroke:#000;stroke-width:1.25656px;stroke-linecap:butt;stroke-linejoin:miter;stroke-miterlimit:4;stroke-dasharray:none;stroke-opacity:1;stop-opacity:1" id="path3204" d="m 93.74699,374.02897 h 29.68864 V 475.94186 H 93.74699 Z"/><text style="font-style:normal;font-variant:normal;font-weight:400;font-stretch:normal;font-size:22.5056px;line-height:0%;font-family:Verdana;-inkscape-font-specification:'Verdana Normal';font-variant-ligatures:normal;font-variant-caps:normal;font-variant-numeric:normal;font-variant-east-asian:normal;text-align:start;text-anchor:start;opacity:1;fill:#000;stop-opacity:1" id="text3206" x="396.837" y="-100.87" transform="rotate(90)" xml:space="preserve">REST</text><text style="font-style:italic;font-weight:400;font-size:19.955px;line-height:0%;font-family:Verdana;text-align:start;text-anchor:start;opacity:1;fill:#000;stop-opacity:1" id="text3208" x="116.746" y="274.937" xml:space="preserve">Internal</text><text style="font-style:italic;font-weight:400;font-size:19.955px;line-height:0%;font-family:Verdana;text-align:start;text-anchor:start;opacity:1;fill:#000;stop-opacity:1" id="text3210" x="1.058" y="274.937" xml:space="preserve">External</text><path style="opacity:1;fill:none;stroke:#7f7f7f;stroke-width:1.24719px;stroke-linecap:butt;stroke-linejoin:miter;stroke-miterlimit:4;stroke-dasharray:none;stroke-opacity:1;stop-opacity:1" id="path3212" d="m -139.12978,342.33357 c 0,-4.50112 3.64779,-8.15828 8.14891,-8.15828 h 119.66418 c 4.5105,0 8.15829,3.65716 8.15829,8.15828 v 32.61438 c 0,4.50112 -3.64779,8.1489 -8.15829,8.1489 h -119.66418 c -4.50112,0 -8.14891,-3.64778 -8.14891,-8.1489 z"/><text style="font-style:normal;font-weight:400;font-size:19.955px;line-height:0%;font-family:Verdana;text-align:start;text-anchor:start;opacity:1;fill:#000;stop-opacity:1" id="text3214" x="-111.813" y="366.522" xml:space="preserve">Browser</text><path style="opacity:1;fill:none;stroke:#7f7f7f;stroke-width:1.24719px;stroke-linecap:butt;stroke-linejoin:miter;stroke-miterlimit:4;stroke-dasharray:none;stroke-opacity:1;stop-opacity:1" id="path3216" d="m -139.12978,405.3399 c 0,-4.5105 3.65716,-8.17704 8.17704,-8.17704 h 119.6173 c 4.5105,0 8.17704,3.66654 8.17704,8.17704 v 32.71752 c 0,4.51988 -3.66654,8.17704 -8.17704,8.17704 h -119.6173 c -4.51988,0 -8.17704,-3.65716 -8.17704,-8.17704 z"/><text style="font-style:normal;font-weight:400;font-size:19.955px;line-height:0%;font-family:Verdana;text-align:start;text-anchor:start;opacity:1;fill:#000;stop-opacity:1" id="text3218" x="-87.807" y="429.557" xml:space="preserve">CLI</text><path style="opacity:1;fill:none;stroke:#7f7f7f;stroke-width:1.25656px;stroke-linecap:butt;stroke-linejoin:miter;stroke-miterlimit:4;stroke-dasharray:none;stroke-opacity:1;stop-opacity:1" id="path3220" d="m -139.12978,468.32746 c 0,-4.51987 3.65716,-8.17704 8.17704,-8.17704 h 119.6173 c 4.51987,0 8.17704,3.65717 8.17704,8.17704 v 32.7269 c 0,4.51988 -3.65717,8.17704 -8.17704,8.17704 h -119.6173 c -4.51988,0 -8.17704,-3.65716 -8.17704,-8.17704 z"/><text style="font-style:normal;font-weight:400;font-size:19.955px;line-height:0%;font-family:Verdana;text-align:start;text-anchor:start;opacity:1;fill:#000;stop-opacity:1" id="text3222" x="-96.213" y="492.592" xml:space="preserve">Tools</text><path style="opacity:1;fill:#000;fill-opacity:1;fill-rule:nonzero;stroke:#000;stroke-width:.00937734px;stroke-linecap:butt;stroke-linejoin:round;stroke-dasharray:none;stroke-opacity:1;stop-opacity:1" id="path3224" d="M 74.58909,410.91941 H 14.63978 v -1.87547 h 59.94931 z m -52.92569,4.24793 -8.88971,-5.18566 8.88971,-5.18567 c 0.45012,-0.26257 1.02213,-0.11253 1.2847,0.33758 0.26257,0.44074 0.11253,1.02213 -0.33758,1.2847 l -7.50187,4.36984 v -1.62228 l 7.50187,4.37921 c 0.45011,0.26257 0.60015,0.83459 0.33758,1.2847 -0.26257,0.45011 -0.83458,0.60015 -1.2847,0.33758 z"/><path style="opacity:1;fill:#000;fill-opacity:1;fill-rule:nonzero;stroke:#000;stroke-width:.0187547px;stroke-linecap:butt;stroke-linejoin:round;stroke-dasharray:none;stroke-opacity:1;stop-opacity:1" id="path3226" d="M 72.74175,440.77685 H 12.78307 v -1.87547 h 59.95868 z m -7.033,-6.13278 8.88972,5.19504 -8.88972,5.17629 c -0.45011,0.26257 -1.0315,0.11253 -1.29407,-0.33758 -0.24381,-0.45011 -0.0938,-1.01275 0.33758,-1.27532 l 7.50187,-4.36984 v 1.61291 l -7.50187,-4.36984 c -0.43135,-0.26257 -0.58139,-0.84396 -0.33758,-1.29408 0.26257,-0.45011 0.84396,-0.60014 1.29407,-0.33758 z"/><text style="font-style:italic;font-weight:400;font-size:19.955px;line-height:0%;font-family:Verdana;text-align:start;text-anchor:start;opacity:1;fill:#000;stop-opacity:1" id="text3228" x="19.481" y="433.789" xml:space="preserve">HTTP</text><path style="opacity:1;fill:#afabab;fill-opacity:1;fill-rule:evenodd;stroke:none;stop-opacity:1" id="path3230" d="m 131.08754,403.13622 c 0,-6.15153 4.98874,-11.12152 11.14028,-11.12152 h 126.68781 c 6.15153,0 11.12152,4.96999 11.12152,11.12152 v 44.48608 c 0,6.15154 -4.96999,11.12152 -11.12152,11.12152 H 142.22782 c -6.15154,0 -11.14028,-4.96998 -11.14028,-11.12152 z"/><text style="font-style:normal;font-weight:400;font-size:19.955px;line-height:0%;font-family:Verdana;text-align:start;text-anchor:start;opacity:1;fill:#000;stop-opacity:1" id="text3232" x="152.297" y="433.258" xml:space="preserve">Dispatcher</text></g></svg>