<svg xmlns="http://www.w3.org/2000/svg" xmlns:svg="http://www.w3.org/2000/svg" id="svg2" width="553.302" height="200.417" version="1.1"><metadata id="metadata7"/><g id="layer1" transform="translate(-171.92045,-446.43917)"><g id="g2989" transform="translate(159.32943,438.33836)"><path id="path2991" d="m 52.756893,47.918188 0,50.787652 474.493207,0 0,-50.787652 -474.493207,0 z" style="fill:#e4eaf4;fill-opacity:1;fill-rule:evenodd;stroke:none"/><path id="path2993" d="m 356.26375,50.731388 0,44.542347 5.47637,0 0,-44.542347 -5.47637,0 z" style="fill:#6e7277;fill-opacity:1;fill-rule:evenodd;stroke:none"/><text id="text2995" x="327.348" y="116.35" xml:space="preserve" style="font-size:13.80343914px;font-style:normal;font-weight:400;text-align:start;text-anchor:start;fill:#000;font-family:Verdana">c</text><text id="text2997" x="334.55" y="116.35" xml:space="preserve" style="font-size:13.80343914px;font-style:normal;font-weight:400;text-align:start;text-anchor:start;fill:#000;font-family:Verdana">heckpoint</text><text id="text2999" x="326.748" y="132.855" xml:space="preserve" style="font-size:13.80343914px;font-style:normal;font-weight:400;text-align:start;text-anchor:start;fill:#000;font-family:Verdana">barrier</text><text id="text3001" x="378.211" y="132.855" xml:space="preserve" style="font-size:13.80343914px;font-style:italic;font-weight:400;text-align:start;text-anchor:start;fill:#000;font-family:Verdana">n</text><text id="text3003" x="386.913" y="132.855" xml:space="preserve" style="font-size:13.80343914px;font-style:italic;font-weight:400;text-align:start;text-anchor:start;fill:#000;font-family:Verdana">-</text><text id="text3005" x="393.215" y="132.855" xml:space="preserve" style="font-size:13.80343914px;font-style:italic;font-weight:400;text-align:start;text-anchor:start;fill:#000;font-family:Verdana">1</text><text id="text3007" x="234.581" y="21.438" xml:space="preserve" style="font-size:17.55437279px;font-style:normal;font-weight:400;text-align:start;text-anchor:start;fill:#000;font-family:Verdana">data stream</text><text id="text3009" x="477.59" y="118.18" xml:space="preserve" style="font-size:12.45310211px;font-style:italic;font-weight:400;text-align:start;text-anchor:start;fill:#000;font-family:Verdana">stream record</text><text id="text3011" x="498.445" y="133.184" xml:space="preserve" style="font-size:12.45310211px;font-style:italic;font-weight:400;text-align:start;text-anchor:start;fill:#000;font-family:Verdana">(event)</text><text id="text3013" x="83.66" y="116.35" xml:space="preserve" style="font-size:13.80343914px;font-style:normal;font-weight:400;text-align:start;text-anchor:start;fill:#000;font-family:Verdana">c</text><text id="text3015" x="90.862" y="116.35" xml:space="preserve" style="font-size:13.80343914px;font-style:normal;font-weight:400;text-align:start;text-anchor:start;fill:#000;font-family:Verdana">heckpoint</text><text id="text3017" x="90.562" y="132.855" xml:space="preserve" style="font-size:13.80343914px;font-style:normal;font-weight:400;text-align:start;text-anchor:start;fill:#000;font-family:Verdana">barrier</text><text id="text3019" x="142.025" y="132.855" xml:space="preserve" style="font-size:13.80343914px;font-style:italic;font-weight:400;text-align:start;text-anchor:start;fill:#000;font-family:Verdana">n</text><path id="path3021" d="m 532.40764,65.22875 10.09001,0 0,-7.783189 10.07126,15.547623 -10.07126,15.547624 0,-7.764435 -10.09001,0 z" style="fill:#898c92;fill-opacity:1;fill-rule:evenodd;stroke:none"/><path id="path3023" d="m 532.40764,65.22875 10.09001,0 0,-7.783189 10.07126,15.547623 -10.07126,15.547624 0,-7.764435 -10.09001,0 z" style="fill:none;stroke:#535353;stroke-width:1.25656307px;stroke-linecap:butt;stroke-linejoin:miter;stroke-miterlimit:4;stroke-opacity:1;stroke-dasharray:none"/><path id="path3025" d="m 26.969219,65.219373 10.080636,0 0,-7.773812 10.080636,15.547623 -10.080636,15.547624 0,-7.773812 -10.080636,0 z" style="fill:#898c92;fill-opacity:1;fill-rule:evenodd;stroke:none"/><path id="path3027" d="m 26.969219,65.219373 10.080636,0 0,-7.773812 10.080636,15.547623 -10.080636,15.547624 0,-7.773812 -10.080636,0 z" style="fill:none;stroke:#535353;stroke-width:1.24718571px;stroke-linecap:butt;stroke-linejoin:miter;stroke-miterlimit:4;stroke-opacity:1;stroke-dasharray:none"/><path id="path3029" d="m 485.52096,34.32105 22.5056,0 0,2.813201 -22.5056,0 0,-2.813201 z m 21.099,-2.813201 8.4396,4.219802 -8.4396,4.219801 0,-8.439603 z" style="fill:#000;fill-opacity:1;fill-rule:nonzero;stroke:#000;stroke-width:.01875467px;stroke-linecap:butt;stroke-linejoin:round;stroke-opacity:1;stroke-dasharray:none"/><text id="text3031" x="101.466" y="40.631" xml:space="preserve" style="font-size:12.45310211px;font-style:italic;font-weight:400;text-align:start;text-anchor:start;fill:#000;font-family:Verdana">newer records</text><path id="path3033" d="m 96.314619,34.311673 -23.555868,0 0,2.813201 23.555868,0 0,-2.813201 z m -22.149268,-2.813201 -8.439602,4.219801 8.439602,4.219802 0,-8.439603 z" style="fill:#000;fill-opacity:1;fill-rule:nonzero;stroke:#000;stroke-width:.00937734px;stroke-linecap:butt;stroke-linejoin:round;stroke-opacity:1;stroke-dasharray:none"/><path id="path3035" d="m 359.07696,150.43123 c 0,4.53863 -0.60015,8.21454 -1.35034,8.21454 l -115.1912,0 c -0.75019,0 -1.36909,3.67592 -1.36909,8.19579 0,-4.51987 -0.6189,-8.19579 -1.36909,-8.19579 l -115.1912,0 c -0.75018,0 -1.36909,-3.67591 -1.36909,-8.21454" style="fill:none;stroke:#5b9bd5;stroke-width:.61890417px;stroke-linecap:butt;stroke-linejoin:miter;stroke-miterlimit:4;stroke-opacity:1;stroke-dasharray:none"/><path id="path3037" d="m 521.6237,150.43123 c 0,4.53863 -0.6189,8.21454 -1.36909,8.21454 l -75.88141,0 c -0.75018,0 -1.36909,3.67592 -1.36909,8.19579 0,-4.51987 -0.60015,-8.19579 -1.35033,-8.19579 l -75.88141,0 c -0.76894,0 -1.36909,-3.67591 -1.36909,-8.21454" style="fill:none;stroke:#5b9bd5;stroke-width:.61890417px;stroke-linecap:butt;stroke-linejoin:miter;stroke-miterlimit:4;stroke-opacity:1;stroke-dasharray:none"/><path id="path3039" d="m 117.92938,150.43123 c 0,4.53863 -0.60953,8.20517 -1.36909,8.20517 l -29.848063,0 c -0.759564,0 -1.369091,3.67591 -1.369091,8.20516 0,-4.52925 -0.609527,-8.20516 -1.369091,-8.20516 l -29.848061,0 c -0.759564,0 -1.369091,-3.66654 -1.369091,-8.20517" style="fill:none;stroke:#5b9bd5;stroke-width:.62828153px;stroke-linecap:butt;stroke-linejoin:miter;stroke-miterlimit:4;stroke-opacity:1;stroke-dasharray:none"/><text id="text3041" x="419.864" y="189.237" xml:space="preserve" style="font-size:13.80343914px;font-style:normal;font-weight:400;text-align:start;text-anchor:start;fill:#000;font-family:Verdana">part of</text><text id="text3043" x="391.657" y="205.741" xml:space="preserve" style="font-size:13.80343914px;font-style:normal;font-weight:400;text-align:start;text-anchor:start;fill:#000;font-family:Verdana">checkpoint</text><text id="text3045" x="470.727" y="205.741" xml:space="preserve" style="font-size:13.80343914px;font-style:italic;font-weight:400;text-align:start;text-anchor:start;fill:#000;font-family:Verdana">n</text><text id="text3047" x="479.429" y="205.741" xml:space="preserve" style="font-size:13.80343914px;font-style:italic;font-weight:400;text-align:start;text-anchor:start;fill:#000;font-family:Verdana">-</text><text id="text3049" x="485.731" y="205.741" xml:space="preserve" style="font-size:13.80343914px;font-style:italic;font-weight:400;text-align:start;text-anchor:start;fill:#000;font-family:Verdana">1</text><text id="text3051" x="218.009" y="189.237" xml:space="preserve" style="font-size:13.80343914px;font-style:normal;font-weight:400;text-align:start;text-anchor:start;fill:#000;font-family:Verdana">part of</text><text id="text3053" x="197.304" y="205.741" xml:space="preserve" style="font-size:13.80343914px;font-style:normal;font-weight:400;text-align:start;text-anchor:start;fill:#000;font-family:Verdana">checkpoint</text><text id="text3055" x="276.374" y="205.741" xml:space="preserve" style="font-size:13.80343914px;font-style:italic;font-weight:400;text-align:start;text-anchor:start;fill:#000;font-family:Verdana">n</text><text id="text3057" x="42.491" y="189.237" xml:space="preserve" style="font-size:13.80343914px;font-style:normal;font-weight:400;text-align:start;text-anchor:start;fill:#000;font-family:Verdana">part of</text><text id="text3059" x="11.883" y="205.741" xml:space="preserve" style="font-size:13.80343914px;font-style:normal;font-weight:400;text-align:start;text-anchor:start;fill:#000;font-family:Verdana">checkpoint</text><text id="text3061" x="90.953" y="205.741" xml:space="preserve" style="font-size:13.80343914px;font-style:italic;font-weight:400;text-align:start;text-anchor:start;fill:#000;font-family:Verdana">n+1</text><path id="path3063" d="m 495.21712,63.071963 0,19.842443 17.49811,0 0,-19.842443 -17.49811,0 z" style="fill:#f5a030;fill-opacity:1;fill-rule:evenodd;stroke:none"/><path id="path3065" d="m 472.71151,63.071963 0,19.842443 17.34808,0 0,-19.842443 -17.34808,0 z" style="fill:#f5a030;fill-opacity:1;fill-rule:evenodd;stroke:none"/><path id="path3067" d="m 412.37773,63.071963 0,19.842443 17.49811,0 0,-19.842443 -17.49811,0 z" style="fill:#f5a030;fill-opacity:1;fill-rule:evenodd;stroke:none"/><path id="path3069" d="m 368.45429,63.071963 0,19.842443 17.34807,0 0,-19.842443 -17.34807,0 z" style="fill:#f5a030;fill-opacity:1;fill-rule:evenodd;stroke:none"/><path id="path3071" d="m 323.76191,63.071963 0,19.842443 17.34807,0 0,-19.842443 -17.34807,0 z" style="fill:#f5a030;fill-opacity:1;fill-rule:evenodd;stroke:none"/><path id="path3073" d="m 250.61869,63.071963 0,19.842443 17.4981,0 0,-19.842443 -17.4981,0 z" style="fill:#f5a030;fill-opacity:1;fill-rule:evenodd;stroke:none"/><path id="path3075" d="m 273.27433,63.071963 0,19.842443 17.34807,0 0,-19.842443 -17.34807,0 z" style="fill:#f5a030;fill-opacity:1;fill-rule:evenodd;stroke:none"/><path id="path3077" d="m 228.11308,63.071963 0,19.842443 17.34807,0 0,-19.842443 -17.34807,0 z" style="fill:#f5a030;fill-opacity:1;fill-rule:evenodd;stroke:none"/><path id="path3079" d="m 190.75377,63.071963 0,19.842443 17.34807,0 0,-19.842443 -17.34807,0 z" style="fill:#f5a030;fill-opacity:1;fill-rule:evenodd;stroke:none"/><path id="path3081" d="m 141.2133,63.071963 0,19.842443 17.34808,0 0,-19.842443 -17.34808,0 z" style="fill:#f5a030;fill-opacity:1;fill-rule:evenodd;stroke:none"/><path id="path3083" d="m 85.887022,63.071963 0,19.842443 17.348068,0 0,-19.842443 -17.348068,0 z" style="fill:#f5a030;fill-opacity:1;fill-rule:evenodd;stroke:none"/><path id="path3085" d="m 61.8154,63.071963 0,19.842443 17.348072,0 0,-19.842443 -17.348072,0 z" style="fill:#f5a030;fill-opacity:1;fill-rule:evenodd;stroke:none"/><path id="path3087" d="m 119.80485,50.722011 0,44.542347 5.6264,0 0,-44.542347 -5.6264,0 z" style="fill:#6e7277;fill-opacity:1;fill-rule:evenodd;stroke:none"/><path id="path3089" d="m 509.26437,103.05692 -5.13878,-30.663885 1.23781,-0.206301 5.13878,30.663886 z m -6.97674,-30.345056 c -0.24381,-1.369091 0.69393,-2.663163 2.04426,-2.888219 1.36909,-0.225056 2.64441,0.693923 2.88822,2.063014 0.22506,1.350336 -0.69392,2.644409 -2.06301,2.869465 -1.35034,0.225056 -2.64441,-0.693923 -2.86947,-2.04426 z" style="fill:#000;fill-opacity:1;fill-rule:nonzero;stroke:#000;stroke-width:.01875467px;stroke-linecap:butt;stroke-linejoin:round;stroke-opacity:1;stroke-dasharray:none"/><text id="text3091" x="395.35" y="40.631" xml:space="preserve" style="font-size:12.45310211px;font-style:italic;font-weight:400;text-align:start;text-anchor:start;fill:#000;font-family:Verdana">older records</text></g></g></svg>