<svg xmlns="http://www.w3.org/2000/svg" xmlns:svg="http://www.w3.org/2000/svg" id="svg2" width="534.42" height="157.25" version="1.1"><metadata id="metadata7"/><g id="layer1" transform="translate(-276.19474,-304.69235)"><g id="g3282" transform="translate(234.9412,-56.421315)"><path id="path3284" d="m 81.029039,395.76901 0,40.78642 454.276431,0 0,-40.78642 -454.276431,0 z" style="fill:#f2f2f2;fill-opacity:1;fill-rule:evenodd;stroke:none"/><path id="path3286" d="m 41.967829,408.78316 15.714496,0 0,-7.85725 15.695743,15.69574 -15.695743,15.7145 0,-7.85725 -15.714496,0 z" style="fill:#a6a6a6;fill-opacity:1;fill-rule:evenodd;stroke:none"/><path id="path3288" d="m 542.9752,408.78316 15.69574,0 0,-7.85725 15.7145,15.69574 -15.7145,15.7145 0,-7.85725 -15.69574,0 z" style="fill:#a6a6a6;fill-opacity:1;fill-rule:evenodd;stroke:none"/><text id="text3290" x="232.961" y="372.955" xml:space="preserve" style="font-size:13.80175209px;font-style:normal;font-weight:400;text-align:start;text-anchor:start;fill:#000;font-family:Verdana">Stream</text><text id="text3292" x="288.468" y="372.955" xml:space="preserve" style="font-size:13.80175209px;font-style:italic;font-weight:400;text-align:start;text-anchor:start;fill:#000;font-family:Verdana">(out of order)</text><path id="path3294" d="m 371.54093,395.76901 0,7.50095 -1.87524,0 0,-7.50095 1.87524,0 z m 0,13.12666 0,7.50095 -1.87524,0 0,-7.50095 1.87524,0 z m 0,13.12667 0,7.50095 -1.87524,0 0,-7.50095 1.87524,0 z m 0,13.12667 0,2.66283 -1.87524,0 0,-2.66283 1.87524,0 z" style="fill:#000;fill-opacity:1;fill-rule:nonzero;stroke:#000;stroke-width:.01875238px;stroke-linecap:butt;stroke-linejoin:round;stroke-opacity:1;stroke-dasharray:none"/><path id="path3296" d="m 503.5952,407.02043 0,20.15881 23.74051,0 0,-20.15881 -23.74051,0 z" style="fill:#fff;fill-opacity:1;fill-rule:evenodd;stroke:none"/><path id="path3298" d="m 503.5952,407.02043 23.74051,0 0,20.15881 -23.74051,0 z" style="fill:none;stroke:#000;stroke-width:.61882859px;stroke-linecap:butt;stroke-linejoin:miter;stroke-miterlimit:4;stroke-opacity:1;stroke-dasharray:none"/><text id="text3300" x="511.93" y="421.501" xml:space="preserve" style="font-size:11.2514286px;font-style:normal;font-weight:400;text-align:start;text-anchor:start;fill:#000;font-family:Verdana">7</text><path id="path3302" d="m 161.98307,395.76901 0,7.50095 -1.87524,0 0,-7.50095 1.87524,0 z m 0,13.12666 0,7.50095 -1.87524,0 0,-7.50095 1.87524,0 z m 0,13.12667 0,7.50095 -1.87524,0 0,-7.50095 1.87524,0 z m 0,13.12667 0,2.66283 -1.87524,0 0,-2.66283 1.87524,0 z" style="fill:#000;fill-opacity:1;fill-rule:nonzero;stroke:#000;stroke-width:.01875238px;stroke-linecap:butt;stroke-linejoin:round;stroke-opacity:1;stroke-dasharray:none"/><text id="text3304" x="356.539" y="455.683" xml:space="preserve" style="font-size:10.05127621px;font-style:italic;font-weight:400;text-align:start;text-anchor:start;fill:#000;font-family:Verdana">W(11)</text><text id="text3306" x="145.13" y="455.683" xml:space="preserve" style="font-size:10.05127621px;font-style:italic;font-weight:400;text-align:start;text-anchor:start;fill:#000;font-family:Verdana">W(17)</text><path id="path3308" d="m 476.40424,407.02043 0,20.15881 23.5905,0 0,-20.15881 -23.5905,0 z" style="fill:#fff;fill-opacity:1;fill-rule:evenodd;stroke:none"/><path id="path3310" d="m 476.40424,407.02043 23.5905,0 0,20.15881 -23.5905,0 z" style="fill:none;stroke:#000;stroke-width:.61882859px;stroke-linecap:butt;stroke-linejoin:miter;stroke-miterlimit:4;stroke-opacity:1;stroke-dasharray:none"/><text id="text3312" x="481.089" y="421.501" xml:space="preserve" style="font-size:11.2514286px;font-style:normal;font-weight:400;text-align:start;text-anchor:start;fill:#000;font-family:Verdana">11</text><path id="path3314" d="m 434.51142,407.02043 0,20.15881 23.75927,0 0,-20.15881 -23.75927,0 z" style="fill:#fff;fill-opacity:1;fill-rule:evenodd;stroke:none"/><path id="path3316" d="m 434.51142,407.02043 23.75927,0 0,20.15881 -23.75927,0 z" style="fill:none;stroke:#000;stroke-width:.61882859px;stroke-linecap:butt;stroke-linejoin:miter;stroke-miterlimit:4;stroke-opacity:1;stroke-dasharray:none"/><text id="text3318" x="439.341" y="421.501" xml:space="preserve" style="font-size:11.2514286px;font-style:normal;font-weight:400;text-align:start;text-anchor:start;fill:#000;font-family:Verdana">15</text><path id="path3320" d="m 409.19571,407.02043 0,20.15881 23.60925,0 0,-20.15881 -23.60925,0 z" style="fill:#fff;fill-opacity:1;fill-rule:evenodd;stroke:none"/><path id="path3322" d="m 409.19571,407.02043 23.60925,0 0,20.15881 -23.60925,0 z" style="fill:none;stroke:#000;stroke-width:.61882859px;stroke-linecap:butt;stroke-linejoin:miter;stroke-miterlimit:4;stroke-opacity:1;stroke-dasharray:none"/><text id="text3324" x="417.477" y="421.501" xml:space="preserve" style="font-size:11.2514286px;font-style:normal;font-weight:400;text-align:start;text-anchor:start;fill:#000;font-family:Verdana">9</text><path id="path3326" d="m 374.50381,407.02043 0,20.15881 23.60924,0 0,-20.15881 -23.60924,0 z" style="fill:#fff;fill-opacity:1;fill-rule:evenodd;stroke:none"/><path id="path3328" d="m 374.50381,407.02043 23.60924,0 0,20.15881 -23.60924,0 z" style="fill:none;stroke:#000;stroke-width:.61882859px;stroke-linecap:butt;stroke-linejoin:miter;stroke-miterlimit:4;stroke-opacity:1;stroke-dasharray:none"/><text id="text3330" x="379.234" y="421.501" xml:space="preserve" style="font-size:11.2514286px;font-style:normal;font-weight:400;text-align:start;text-anchor:start;fill:#000;font-family:Verdana">12</text><path id="path3332" d="m 340.13069,407.02043 0,20.15881 23.5905,0 0,-20.15881 -23.5905,0 z" style="fill:#fff;fill-opacity:1;fill-rule:evenodd;stroke:none"/><path id="path3334" d="m 340.13069,407.02043 23.5905,0 0,20.15881 -23.5905,0 z" style="fill:none;stroke:#000;stroke-width:.61882859px;stroke-linecap:butt;stroke-linejoin:miter;stroke-miterlimit:4;stroke-opacity:1;stroke-dasharray:none"/><text id="text3336" x="344.814" y="421.501" xml:space="preserve" style="font-size:11.2514286px;font-style:normal;font-weight:400;text-align:start;text-anchor:start;fill:#000;font-family:Verdana">14</text><path id="path3338" d="m 306.99523,407.02043 0,20.15881 23.60925,0 0,-20.15881 -23.60925,0 z" style="fill:#fff;fill-opacity:1;fill-rule:evenodd;stroke:none"/><path id="path3340" d="m 306.99523,407.02043 23.60925,0 0,20.15881 -23.60925,0 z" style="fill:none;stroke:#000;stroke-width:.61882859px;stroke-linecap:butt;stroke-linejoin:miter;stroke-miterlimit:4;stroke-opacity:1;stroke-dasharray:none"/><text id="text3342" x="311.714" y="421.501" xml:space="preserve" style="font-size:11.2514286px;font-style:normal;font-weight:400;text-align:start;text-anchor:start;fill:#000;font-family:Verdana">17</text><path id="path3344" d="m 279.65426,407.02043 0,20.15881 23.75927,0 0,-20.15881 -23.75927,0 z" style="fill:#fff;fill-opacity:1;fill-rule:evenodd;stroke:none"/><path id="path3346" d="m 279.65426,407.02043 23.75927,0 0,20.15881 -23.75927,0 z" style="fill:none;stroke:#000;stroke-width:.61882859px;stroke-linecap:butt;stroke-linejoin:miter;stroke-miterlimit:4;stroke-opacity:1;stroke-dasharray:none"/><text id="text3348" x="284.412" y="421.501" xml:space="preserve" style="font-size:11.2514286px;font-style:normal;font-weight:400;text-align:start;text-anchor:start;fill:#000;font-family:Verdana">12</text><path id="path3350" d="m 253.08214,407.02043 0,20.15881 23.75926,0 0,-20.15881 -23.75926,0 z" style="fill:#fff;fill-opacity:1;fill-rule:evenodd;stroke:none"/><path id="path3352" d="m 253.08214,407.02043 23.75926,0 0,20.15881 -23.75926,0 z" style="fill:none;stroke:#000;stroke-width:.61882859px;stroke-linecap:butt;stroke-linejoin:miter;stroke-miterlimit:4;stroke-opacity:1;stroke-dasharray:none"/><text id="text3354" x="257.912" y="421.501" xml:space="preserve" style="font-size:11.2514286px;font-style:normal;font-weight:400;text-align:start;text-anchor:start;fill:#000;font-family:Verdana">22</text><path id="path3356" d="m 178.86021,407.02043 0,20.15881 23.75927,0 0,-20.15881 -23.75927,0 z" style="fill:#fff;fill-opacity:1;fill-rule:evenodd;stroke:none"/><path id="path3358" d="m 178.86021,407.02043 23.75927,0 0,20.15881 -23.75927,0 z" style="fill:none;stroke:#000;stroke-width:.61882859px;stroke-linecap:butt;stroke-linejoin:miter;stroke-miterlimit:4;stroke-opacity:1;stroke-dasharray:none"/><text id="text3360" x="183.667" y="421.501" xml:space="preserve" style="font-size:11.2514286px;font-style:normal;font-weight:400;text-align:start;text-anchor:start;fill:#000;font-family:Verdana">20</text><path id="path3362" d="m 209.18281,407.02043 0,20.15881 23.5905,0 0,-20.15881 -23.5905,0 z" style="fill:#fff;fill-opacity:1;fill-rule:evenodd;stroke:none"/><path id="path3364" d="m 209.18281,407.02043 23.5905,0 0,20.15881 -23.5905,0 z" style="fill:none;stroke:#000;stroke-width:.61882859px;stroke-linecap:butt;stroke-linejoin:miter;stroke-miterlimit:4;stroke-opacity:1;stroke-dasharray:none"/><text id="text3366" x="213.868" y="421.501" xml:space="preserve" style="font-size:11.2514286px;font-style:normal;font-weight:400;text-align:start;text-anchor:start;fill:#000;font-family:Verdana">17</text><path id="path3368" d="m 129.78523,407.02043 0,20.15881 23.75927,0 0,-20.15881 -23.75927,0 z" style="fill:#fff;fill-opacity:1;fill-rule:evenodd;stroke:none"/><path id="path3370" d="m 129.78523,407.02043 23.75927,0 0,20.15881 -23.75927,0 z" style="fill:none;stroke:#000;stroke-width:.61882859px;stroke-linecap:butt;stroke-linejoin:miter;stroke-miterlimit:4;stroke-opacity:1;stroke-dasharray:none"/><text id="text3372" x="134.547" y="421.501" xml:space="preserve" style="font-size:11.2514286px;font-style:normal;font-weight:400;text-align:start;text-anchor:start;fill:#000;font-family:Verdana">19</text><path id="path3374" d="m 93.386858,407.02043 0,20.15881 23.590492,0 0,-20.15881 -23.590492,0 z" style="fill:#fff;fill-opacity:1;fill-rule:evenodd;stroke:none"/><path id="path3376" d="m 93.386858,407.02043 23.590492,0 0,20.15881 -23.590492,0 z" style="fill:none;stroke:#000;stroke-width:.61882859px;stroke-linecap:butt;stroke-linejoin:miter;stroke-miterlimit:4;stroke-opacity:1;stroke-dasharray:none"/><text id="text3378" x="98.097" y="421.501" xml:space="preserve" style="font-size:11.2514286px;font-style:normal;font-weight:400;text-align:start;text-anchor:start;fill:#000;font-family:Verdana">21</text><text id="text3380" x="207.485" y="493.103" xml:space="preserve" style="font-size:12.451581px;font-style:italic;font-weight:400;text-align:start;text-anchor:start;fill:#000;font-family:Verdana">Watermark</text><path id="path3382" d="m 209.22032,476.64803 -26.92842,-13.59548 0.56257,-1.10639 26.92842,13.57672 -0.56257,1.12515 z m -27.22846,-10.2388 -5.00689,-6.73211 8.38232,0.0375 -3.37543,6.6946 z" style="fill:#000;fill-opacity:1;fill-rule:nonzero;stroke:#000;stroke-width:.01875238px;stroke-linecap:butt;stroke-linejoin:round;stroke-opacity:1;stroke-dasharray:none"/><path id="path3384" d="m 280.91067,479.77967 65.22078,-18.28357 -0.33754,-1.20015 -65.22078,18.28357 0.33754,1.20015 z m 64.86449,-14.92689 6.20704,-5.64447 -8.2323,-1.5752 2.02526,7.21967 z" style="fill:#000;fill-opacity:1;fill-rule:nonzero;stroke:#000;stroke-width:.01875238px;stroke-linecap:butt;stroke-linejoin:round;stroke-opacity:1;stroke-dasharray:none"/><text id="text3386" x="497.43" y="481.363" xml:space="preserve" style="font-size:12.451581px;font-style:italic;font-weight:400;text-align:start;text-anchor:start;fill:#000;font-family:Verdana">Event</text><text id="text3388" x="396.064" y="515.144" xml:space="preserve" style="font-size:12.451581px;font-style:italic;font-weight:400;text-align:start;text-anchor:start;fill:#000;font-family:Verdana">Event timestamp</text><path id="path3390" d="m 516.90939,464.79652 -1.72522,-31.03519 1.25641,-0.075 1.72522,31.05394 -1.25641,0.0563 z m -4.76311,-29.61001 3.31917,-7.70723 4.16303,7.29468 -7.4822,0.41255 z" style="fill:#000;fill-opacity:1;fill-rule:nonzero;stroke:#000;stroke-width:.01875238px;stroke-linecap:butt;stroke-linejoin:round;stroke-opacity:1;stroke-dasharray:none"/><path id="path3392" d="m 450.01964,498.56956 56.76346,-72.94676 -0.99387,-0.76885 -56.76346,72.94676 0.99387,0.76885 z m 58.45118,-70.04014 1.65021,-8.2323 -7.55721,3.61921 5.907,4.61309 z" style="fill:#000;fill-opacity:1;fill-rule:nonzero;stroke:#000;stroke-width:.01875238px;stroke-linecap:butt;stroke-linejoin:round;stroke-opacity:1;stroke-dasharray:none"/></g></g></svg>