<svg xmlns="http://www.w3.org/2000/svg" xmlns:svg="http://www.w3.org/2000/svg" id="svg2" width="534.42" height="157.25" version="1.1"><metadata id="metadata7"/><g id="layer1" transform="translate(-276.19474,-304.69235)"><g id="g3458" transform="translate(235.51811,294.2736)"><path id="path3460" d="m 81.029039,44.630667 0,40.786429 454.276431,0 0,-40.786429 -454.276431,0 z" style="fill:#f2f2f2;fill-opacity:1;fill-rule:evenodd;stroke:none"/><path id="path3462" d="m 41.967829,57.635444 15.705119,0 0,-7.857248 15.70512,15.705119 -15.70512,15.705119 0,-7.847871 -15.705119,0 z" style="fill:#a6a6a6;fill-opacity:1;fill-rule:evenodd;stroke:none"/><path id="path3464" d="m 542.9752,57.64482 15.69574,0 0,-7.857248 15.7145,15.695743 -15.7145,15.714496 0,-7.857248 -15.69574,0 z" style="fill:#a6a6a6;fill-opacity:1;fill-rule:evenodd;stroke:none"/><text id="text3466" x="247.104" y="21.845" xml:space="preserve" style="font-size:13.80175209px;font-style:normal;font-weight:400;text-align:start;text-anchor:start;fill:#000;font-family:Verdana">Stream</text><text id="text3468" x="302.611" y="21.845" xml:space="preserve" style="font-size:13.80175209px;font-style:italic;font-weight:400;text-align:start;text-anchor:start;fill:#000;font-family:Verdana">(in order)</text><path id="path3470" d="m 371.54093,44.630667 0,7.500953 -1.87524,0 0,-7.500953 1.87524,0 z m 0,13.126667 0,7.500953 -1.87524,0 0,-7.500953 1.87524,0 z m 0,13.126667 0,7.500952 -1.87524,0 0,-7.500952 1.87524,0 z m 0,13.126667 0,2.662838 -1.87524,0 0,-2.662838 1.87524,0 z" style="fill:#000;fill-opacity:1;fill-rule:nonzero;stroke:#000;stroke-width:.01875238px;stroke-linecap:butt;stroke-linejoin:round;stroke-opacity:1;stroke-dasharray:none"/><path id="path3472" d="m 503.5952,55.882096 0,20.15881 23.74051,0 0,-20.15881 -23.74051,0 z" style="fill:#fff;fill-opacity:1;fill-rule:evenodd;stroke:none"/><path id="path3474" d="m 503.5952,55.882096 23.74051,0 0,20.15881 -23.74051,0 z" style="fill:none;stroke:#000;stroke-width:.61882859px;stroke-linecap:butt;stroke-linejoin:miter;stroke-miterlimit:4;stroke-opacity:1;stroke-dasharray:none"/><text id="text3476" x="511.93" y="70.391" xml:space="preserve" style="font-size:11.2514286px;font-style:normal;font-weight:400;text-align:start;text-anchor:start;fill:#000;font-family:Verdana">7</text><path id="path3478" d="m 161.98307,44.621291 0,7.500953 -1.87524,0 0,-7.500953 1.87524,0 z m 0,13.126667 0,7.500952 -1.87524,0 0,-7.500952 1.87524,0 z m 0,13.126667 0,7.500952 -1.87524,0 0,-7.500952 1.87524,0 z m 0,13.126667 0,2.662838 -1.87524,0 0,-2.662838 1.87524,0 z" style="fill:#000;fill-opacity:1;fill-rule:nonzero;stroke:#000;stroke-width:.00937619px;stroke-linecap:butt;stroke-linejoin:round;stroke-opacity:1;stroke-dasharray:none"/><text id="text3480" x="356.539" y="104.574" xml:space="preserve" style="font-size:10.05127621px;font-style:italic;font-weight:400;text-align:start;text-anchor:start;fill:#000;font-family:Verdana">W(11)</text><text id="text3482" x="145.13" y="104.574" xml:space="preserve" style="font-size:10.05127621px;font-style:italic;font-weight:400;text-align:start;text-anchor:start;fill:#000;font-family:Verdana">W(20)</text><text id="text3484" x="207.485" y="141.575" xml:space="preserve" style="font-size:12.451581px;font-style:italic;font-weight:400;text-align:start;text-anchor:start;fill:#000;font-family:Verdana">Watermark</text><path id="path3486" d="m 209.21094,125.0315 -26.92842,-13.5861 0.56257,-1.11577 26.92842,13.58611 -0.56257,1.11576 z m -27.21908,-10.2388 -5.00689,-6.72273 8.38232,0.0281 -3.37543,6.6946 z" style="fill:#000;fill-opacity:1;fill-rule:nonzero;stroke:#000;stroke-width:.00937619px;stroke-linecap:butt;stroke-linejoin:round;stroke-opacity:1;stroke-dasharray:none"/><path id="path3488" d="m 280.91067,128.3413 65.22078,-18.28357 -0.33754,-1.21891 -65.22078,18.28357 0.33754,1.21891 z m 64.86449,-14.94565 6.20704,-5.64447 -8.2323,-1.5752 2.02526,7.21967 z" style="fill:#000;fill-opacity:1;fill-rule:nonzero;stroke:#000;stroke-width:.01875238px;stroke-linecap:butt;stroke-linejoin:round;stroke-opacity:1;stroke-dasharray:none"/><path id="path3490" d="m 476.40424,55.882096 0,20.15881 23.5905,0 0,-20.15881 -23.5905,0 z" style="fill:#fff;fill-opacity:1;fill-rule:evenodd;stroke:none"/><path id="path3492" d="m 476.40424,55.882096 23.5905,0 0,20.15881 -23.5905,0 z" style="fill:none;stroke:#000;stroke-width:.61882859px;stroke-linecap:butt;stroke-linejoin:miter;stroke-miterlimit:4;stroke-opacity:1;stroke-dasharray:none"/><text id="text3494" x="484.69" y="70.391" xml:space="preserve" style="font-size:11.2514286px;font-style:normal;font-weight:400;text-align:start;text-anchor:start;fill:#000;font-family:Verdana">9</text><path id="path3496" d="m 434.51142,55.882096 0,20.15881 23.75927,0 0,-20.15881 -23.75927,0 z" style="fill:#fff;fill-opacity:1;fill-rule:evenodd;stroke:none"/><path id="path3498" d="m 434.51142,55.882096 23.75927,0 0,20.15881 -23.75927,0 z" style="fill:none;stroke:#000;stroke-width:.61882859px;stroke-linecap:butt;stroke-linejoin:miter;stroke-miterlimit:4;stroke-opacity:1;stroke-dasharray:none"/><text id="text3500" x="442.941" y="70.391" xml:space="preserve" style="font-size:11.2514286px;font-style:normal;font-weight:400;text-align:start;text-anchor:start;fill:#000;font-family:Verdana">9</text><path id="path3502" d="m 409.19571,55.882096 0,20.15881 23.60925,0 0,-20.15881 -23.60925,0 z" style="fill:#fff;fill-opacity:1;fill-rule:evenodd;stroke:none"/><path id="path3504" d="m 409.19571,55.882096 23.60925,0 0,20.15881 -23.60925,0 z" style="fill:none;stroke:#000;stroke-width:.61882859px;stroke-linecap:butt;stroke-linejoin:miter;stroke-miterlimit:4;stroke-opacity:1;stroke-dasharray:none"/><text id="text3506" x="413.877" y="70.391" xml:space="preserve" style="font-size:11.2514286px;font-style:normal;font-weight:400;text-align:start;text-anchor:start;fill:#000;font-family:Verdana">10</text><path id="path3508" d="m 374.50381,55.882096 0,20.15881 23.60924,0 0,-20.15881 -23.60924,0 z" style="fill:#fff;fill-opacity:1;fill-rule:evenodd;stroke:none"/><path id="path3510" d="m 374.50381,55.882096 23.60924,0 0,20.15881 -23.60924,0 z" style="fill:none;stroke:#000;stroke-width:.61882859px;stroke-linecap:butt;stroke-linejoin:miter;stroke-miterlimit:4;stroke-opacity:1;stroke-dasharray:none"/><text id="text3512" x="379.234" y="70.391" xml:space="preserve" style="font-size:11.2514286px;font-style:normal;font-weight:400;text-align:start;text-anchor:start;fill:#000;font-family:Verdana">11</text><path id="path3514" d="m 340.13069,55.882096 0,20.15881 23.5905,0 0,-20.15881 -23.5905,0 z" style="fill:#fff;fill-opacity:1;fill-rule:evenodd;stroke:none"/><path id="path3516" d="m 340.13069,55.882096 23.5905,0 0,20.15881 -23.5905,0 z" style="fill:none;stroke:#000;stroke-width:.61882859px;stroke-linecap:butt;stroke-linejoin:miter;stroke-miterlimit:4;stroke-opacity:1;stroke-dasharray:none"/><text id="text3518" x="344.814" y="70.391" xml:space="preserve" style="font-size:11.2514286px;font-style:normal;font-weight:400;text-align:start;text-anchor:start;fill:#000;font-family:Verdana">14</text><path id="path3520" d="m 306.99523,55.882096 0,20.15881 23.60925,0 0,-20.15881 -23.60925,0 z" style="fill:#fff;fill-opacity:1;fill-rule:evenodd;stroke:none"/><path id="path3522" d="m 306.99523,55.882096 23.60925,0 0,20.15881 -23.60925,0 z" style="fill:none;stroke:#000;stroke-width:.61882859px;stroke-linecap:butt;stroke-linejoin:miter;stroke-miterlimit:4;stroke-opacity:1;stroke-dasharray:none"/><text id="text3524" x="311.714" y="70.391" xml:space="preserve" style="font-size:11.2514286px;font-style:normal;font-weight:400;text-align:start;text-anchor:start;fill:#000;font-family:Verdana">15</text><path id="path3526" d="m 279.65426,55.87272 0,20.15881 23.74989,0 0,-20.15881 -23.74989,0 z" style="fill:#fff;fill-opacity:1;fill-rule:evenodd;stroke:none"/><path id="path3528" d="m 279.65426,55.87272 23.74989,0 0,20.15881 -23.74989,0 z" style="fill:none;stroke:#000;stroke-width:.62820476px;stroke-linecap:butt;stroke-linejoin:miter;stroke-miterlimit:4;stroke-opacity:1;stroke-dasharray:none"/><text id="text3530" x="284.412" y="70.391" xml:space="preserve" style="font-size:11.2514286px;font-style:normal;font-weight:400;text-align:start;text-anchor:start;fill:#000;font-family:Verdana">17</text><text id="text3532" x="497.43" y="129.835" xml:space="preserve" style="font-size:12.451581px;font-style:italic;font-weight:400;text-align:start;text-anchor:start;fill:#000;font-family:Verdana">Event</text><text id="text3534" x="396.064" y="163.616" xml:space="preserve" style="font-size:12.451581px;font-style:italic;font-weight:400;text-align:start;text-anchor:start;fill:#000;font-family:Verdana">Event timestamp</text><path id="path3536" d="m 516.90939,113.35814 -1.72522,-31.053939 1.25641,-0.05626 1.72522,31.035189 -1.25641,0.075 z m -4.76311,-29.628758 3.31917,-7.688476 4.16303,7.275924 -7.4822,0.412552 z" style="fill:#000;fill-opacity:1;fill-rule:nonzero;stroke:#000;stroke-width:.01875238px;stroke-linecap:butt;stroke-linejoin:round;stroke-opacity:1;stroke-dasharray:none"/><path id="path3538" d="m 450.01964,146.96241 56.76346,-72.946761 -0.99387,-0.768848 -56.76346,72.946759 0.99387,0.76885 z m 58.45118,-70.040142 1.65021,-8.232296 -7.55721,3.61921 5.907,4.613086 z" style="fill:#000;fill-opacity:1;fill-rule:nonzero;stroke:#000;stroke-width:.01875238px;stroke-linecap:butt;stroke-linejoin:round;stroke-opacity:1;stroke-dasharray:none"/><path id="path3540" d="m 253.08214,55.87272 0,20.15881 23.75926,0 0,-20.15881 -23.75926,0 z" style="fill:#fff;fill-opacity:1;fill-rule:evenodd;stroke:none"/><path id="path3542" d="m 253.08214,55.87272 23.75926,0 0,20.15881 -23.75926,0 z" style="fill:none;stroke:#000;stroke-width:.62820476px;stroke-linecap:butt;stroke-linejoin:miter;stroke-miterlimit:4;stroke-opacity:1;stroke-dasharray:none"/><text id="text3544" x="257.912" y="70.391" xml:space="preserve" style="font-size:11.2514286px;font-style:normal;font-weight:400;text-align:start;text-anchor:start;fill:#000;font-family:Verdana">18</text><path id="path3546" d="m 178.86021,55.87272 0,20.15881 23.74989,0 0,-20.15881 -23.74989,0 z" style="fill:#fff;fill-opacity:1;fill-rule:evenodd;stroke:none"/><path id="path3548" d="m 178.86021,55.87272 23.74989,0 0,20.15881 -23.74989,0 z" style="fill:none;stroke:#000;stroke-width:.62820476px;stroke-linecap:butt;stroke-linejoin:miter;stroke-miterlimit:4;stroke-opacity:1;stroke-dasharray:none"/><text id="text3550" x="183.667" y="70.391" xml:space="preserve" style="font-size:11.2514286px;font-style:normal;font-weight:400;text-align:start;text-anchor:start;fill:#000;font-family:Verdana">20</text><path id="path3552" d="m 209.17344,55.87272 0,20.15881 23.59987,0 0,-20.15881 -23.59987,0 z" style="fill:#fff;fill-opacity:1;fill-rule:evenodd;stroke:none"/><path id="path3554" d="m 209.17344,55.87272 23.59987,0 0,20.15881 -23.59987,0 z" style="fill:none;stroke:#000;stroke-width:.62820476px;stroke-linecap:butt;stroke-linejoin:miter;stroke-miterlimit:4;stroke-opacity:1;stroke-dasharray:none"/><text id="text3556" x="213.868" y="70.391" xml:space="preserve" style="font-size:11.2514286px;font-style:normal;font-weight:400;text-align:start;text-anchor:start;fill:#000;font-family:Verdana">19</text><path id="path3558" d="m 129.78523,55.87272 0,20.15881 23.75927,0 0,-20.15881 -23.75927,0 z" style="fill:#fff;fill-opacity:1;fill-rule:evenodd;stroke:none"/><path id="path3560" d="m 129.78523,55.87272 23.75927,0 0,20.15881 -23.75927,0 z" style="fill:none;stroke:#000;stroke-width:.62820476px;stroke-linecap:butt;stroke-linejoin:miter;stroke-miterlimit:4;stroke-opacity:1;stroke-dasharray:none"/><text id="text3562" x="134.547" y="70.391" xml:space="preserve" style="font-size:11.2514286px;font-style:normal;font-weight:400;text-align:start;text-anchor:start;fill:#000;font-family:Verdana">21</text><path id="path3564" d="m 93.377482,55.87272 0,20.15881 23.599868,0 0,-20.15881 -23.599868,0 z" style="fill:#fff;fill-opacity:1;fill-rule:evenodd;stroke:none"/><path id="path3566" d="m 93.377482,55.87272 23.599868,0 0,20.15881 -23.599868,0 z" style="fill:none;stroke:#000;stroke-width:.62820476px;stroke-linecap:butt;stroke-linejoin:miter;stroke-miterlimit:4;stroke-opacity:1;stroke-dasharray:none"/><text id="text3568" x="98.097" y="70.391" xml:space="preserve" style="font-size:11.2514286px;font-style:normal;font-weight:400;text-align:start;text-anchor:start;fill:#000;font-family:Verdana">23</text></g></g></svg>