<svg xmlns="http://www.w3.org/2000/svg" xmlns:svg="http://www.w3.org/2000/svg" id="svg2" width="675.982" height="115.616" version="1.1"><metadata id="metadata7"/><g id="layer1" transform="translate(77.741049,-445.98269)"><g id="g2989" transform="translate(-106.28566,414.06236)"><path id="path2991" d="m 28.544611,75.993932 570.142039,0 0,-16.504112 32.97071,32.970714 -32.97071,32.970716 0,-16.4666 -570.142039,0 z" style="fill:#ffd966;fill-opacity:1;fill-rule:evenodd;stroke:none"/><text id="text2993" x="629.147" y="114.285" xml:space="preserve" style="font-size:11.2528038px;font-style:italic;font-weight:400;text-align:start;text-anchor:start;fill:#000;font-family:Verdana">Event stream</text><text id="text2995" x="282.096" y="40.47" xml:space="preserve" style="font-size:11.2528038px;font-style:italic;font-weight:400;text-align:start;text-anchor:start;fill:#000;font-family:Verdana">Time windows</text><path id="path2997" d="m 626.29353,105.28873 -12.30307,-4.8012 0.45011,-1.162786 12.30307,4.801196 -0.45011,1.16279 z m -11.81545,-2.58814 -3.75093,-4.126033 5.55138,-0.52513 -1.80045,4.651163 z" style="fill:#000;fill-opacity:1;fill-rule:nonzero;stroke:#000;stroke-width:.03750934px;stroke-linecap:butt;stroke-linejoin:round;stroke-opacity:1;stroke-dasharray:none"/><path id="path2999" d="m 591.48485,70.892661 c 0,-3.150785 -2.06301,-5.70142 -4.59489,-5.70142 l -43.47333,0 c -2.53188,0 -4.5949,-2.56939 -4.5949,-5.720175 0,3.150785 -2.06301,5.720175 -4.61365,5.720175 l -43.45457,0 c -2.55064,0 -4.61365,2.550635 -4.61365,5.70142" style="fill:none;stroke:#000;stroke-width:1.25656307px;stroke-linecap:butt;stroke-linejoin:miter;stroke-miterlimit:4;stroke-opacity:1;stroke-dasharray:none"/><path id="path3001" d="m 567.72268,85.652588 c 0,-1.856712 1.51913,-3.357086 3.37584,-3.357086 l 17.02925,0 c 1.85671,0 3.35708,1.500374 3.35708,3.357086 l 0,13.4471 c 0,1.856712 -1.50037,3.357082 -3.35708,3.357082 l -17.02925,0 c -1.85671,0 -3.37584,-1.50037 -3.37584,-3.357082 z" style="fill:#a6a6a6;fill-opacity:1;fill-rule:evenodd;stroke:none"/><path id="path3003" d="m 535.6897,85.652588 c 0,-1.856712 1.50038,-3.357086 3.35709,-3.357086 l 17.048,0 c 1.85671,0 3.35708,1.500374 3.35708,3.357086 l 0,13.4471 c 0,1.856712 -1.50037,3.357082 -3.35708,3.357082 l -17.048,0 c -1.85671,0 -3.35709,-1.50037 -3.35709,-3.357082 z" style="fill:#a6a6a6;fill-opacity:1;fill-rule:evenodd;stroke:none"/><path id="path3005" d="m 451.61251,85.652588 c 0,-1.856712 1.50037,-3.357086 3.35708,-3.357086 l 17.02925,0 c 1.85671,0 3.35708,1.500374 3.35708,3.357086 l 0,13.4471 c 0,1.856712 -1.50037,3.357082 -3.35708,3.357082 l -17.02925,0 c -1.85671,0 -3.35708,-1.50037 -3.35708,-3.357082 z" style="fill:#a6a6a6;fill-opacity:1;fill-rule:evenodd;stroke:none"/><path id="path3007" d="m 414.2532,85.652588 c 0,-1.856712 1.50037,-3.357086 3.35709,-3.357086 l 17.04799,0 c 1.85672,0 3.35709,1.500374 3.35709,3.357086 l 0,13.4471 c 0,1.856712 -1.50037,3.357082 -3.35709,3.357082 l -17.04799,0 c -1.85672,0 -3.35709,-1.50037 -3.35709,-3.357082 z" style="fill:#a6a6a6;fill-opacity:1;fill-rule:evenodd;stroke:none"/><path id="path3009" d="m 323.143,85.652588 c 0,-1.856712 1.50038,-3.357086 3.35709,-3.357086 l 16.8792,0 c 1.85672,0 3.35709,1.500374 3.35709,3.357086 l 0,13.4471 c 0,1.856712 -1.50037,3.357082 -3.35709,3.357082 l -16.8792,0 c -1.85671,0 -3.35709,-1.50037 -3.35709,-3.357082 z" style="fill:#a6a6a6;fill-opacity:1;fill-rule:evenodd;stroke:none"/><path id="path3011" d="m 297.18654,85.652588 c 0,-1.856712 1.51913,-3.357086 3.37584,-3.357086 l 17.02924,0 c 1.85671,0 3.35709,1.500374 3.35709,3.357086 l 0,13.4471 c 0,1.856712 -1.50038,3.357082 -3.35709,3.357082 l -17.02924,0 c -1.85671,0 -3.37584,-1.50037 -3.37584,-3.357082 z" style="fill:#a6a6a6;fill-opacity:1;fill-rule:evenodd;stroke:none"/><path id="path3013" d="m 271.24882,85.652588 c 0,-1.856712 1.50038,-3.357086 3.35709,-3.357086 l 17.03862,0 c 1.85671,0 3.35709,1.500374 3.35709,3.357086 l 0,13.437723 c 0,1.856709 -1.50038,3.366459 -3.35709,3.366459 l -17.03862,0 c -1.85671,0 -3.35709,-1.50975 -3.35709,-3.366459 z" style="fill:#a6a6a6;fill-opacity:1;fill-rule:evenodd;stroke:none"/><path id="path3015" d="m 242.48853,85.652588 c 0,-1.856712 1.50976,-3.357086 3.35709,-3.357086 l 17.03862,0 c 1.85671,0 3.35709,1.500374 3.35709,3.357086 l 0,13.437723 c 0,1.856709 -1.50038,3.366459 -3.35709,3.366459 l -17.03862,0 c -1.84733,0 -3.35709,-1.50975 -3.35709,-3.366459 z" style="fill:#a6a6a6;fill-opacity:1;fill-rule:evenodd;stroke:none"/><path id="path3017" d="m 215.13485,85.652588 c 0,-1.856712 1.50975,-3.357086 3.36646,-3.357086 l 16.8792,0 c 1.85672,0 3.35709,1.500374 3.35709,3.357086 l 0,13.437723 c 0,1.856709 -1.50037,3.366459 -3.35709,3.366459 l -16.8792,0 c -1.85671,0 -3.36646,-1.50975 -3.36646,-3.366459 z" style="fill:#a6a6a6;fill-opacity:1;fill-rule:evenodd;stroke:none"/><path id="path3019" d="m 348.93068,85.652588 c 0,-1.856712 1.50037,-3.357086 3.35708,-3.357086 l 17.02925,0 c 1.85671,0 3.35708,1.500374 3.35708,3.357086 l 0,13.4471 c 0,1.856712 -1.50037,3.357082 -3.35708,3.357082 l -17.02925,0 c -1.85671,0 -3.35708,-1.50037 -3.35708,-3.357082 z" style="fill:#a6a6a6;fill-opacity:1;fill-rule:evenodd;stroke:none"/><path id="path3021" d="m 114.95676,85.652588 c 0,-1.856712 1.50975,-3.357086 3.35709,-3.357086 l 16.8792,0 c 1.85672,0 3.36647,1.500374 3.36647,3.357086 l 0,13.437723 c 0,1.856709 -1.50975,3.366459 -3.36647,3.366459 l -16.8792,0 c -1.84734,0 -3.35709,-1.50975 -3.35709,-3.366459 z" style="fill:#a6a6a6;fill-opacity:1;fill-rule:evenodd;stroke:none"/><path id="path3023" d="m 64.628601,85.652588 c 0,-1.856712 1.509751,-3.357086 3.366463,-3.357086 l 16.879205,0 c 1.856713,0 3.357087,1.500374 3.357087,3.357086 l 0,13.437723 c 0,1.856709 -1.500374,3.366459 -3.357087,3.366459 l -16.879205,0 c -1.856712,0 -3.366463,-1.50975 -3.366463,-3.366459 z" style="fill:#a6a6a6;fill-opacity:1;fill-rule:evenodd;stroke:none"/><path id="path3025" d="m 483.17662,70.892661 c 0,-3.150785 -2.06301,-5.70142 -4.59489,-5.70142 l -43.47333,0 c -2.53188,0 -4.5949,-2.56939 -4.5949,-5.720175 0,3.150785 -2.06301,5.720175 -4.61365,5.720175 l -43.45457,0 c -2.55064,0 -4.61365,2.550635 -4.61365,5.70142" style="fill:none;stroke:#000;stroke-width:1.25656307px;stroke-linecap:butt;stroke-linejoin:miter;stroke-miterlimit:4;stroke-opacity:1;stroke-dasharray:none"/><path id="path3027" d="m 374.71835,70.892661 c 0,-3.150785 -2.06301,-5.70142 -4.61365,-5.70142 l -43.45457,0 c -2.55064,0 -4.61365,-2.56939 -4.61365,-5.720175 0,3.150785 -2.04426,5.720175 -4.5949,5.720175 l -43.47333,0 c -2.53188,0 -4.59489,2.550635 -4.59489,5.70142" style="fill:none;stroke:#000;stroke-width:1.25656307px;stroke-linecap:butt;stroke-linejoin:miter;stroke-miterlimit:4;stroke-opacity:1;stroke-dasharray:none"/><path id="path3029" d="m 267.64793,70.883284 c 0,-3.150785 -2.05364,-5.701421 -4.5949,-5.701421 l -43.38893,0 c -2.54126,0 -4.60427,-2.560012 -4.60427,-5.710797 0,3.150785 -2.06302,5.710797 -4.60428,5.710797 l -43.37955,0 c -2.55064,0 -4.60427,2.550636 -4.60427,5.701421" style="fill:none;stroke:#000;stroke-width:1.24718571px;stroke-linecap:butt;stroke-linejoin:miter;stroke-miterlimit:4;stroke-opacity:1;stroke-dasharray:none"/><path id="path3031" d="m 160.59626,70.883284 c 0,-3.150785 -2.06302,-5.701421 -4.60427,-5.701421 l -43.46396,0 c -2.54125,0 -4.60427,-2.560012 -4.60427,-5.710797 0,3.150785 -2.06301,5.710797 -4.60427,5.710797 l -43.463953,0 c -2.541259,0 -4.604273,2.550636 -4.604273,5.701421" style="fill:none;stroke:#000;stroke-width:1.24718571px;stroke-linecap:butt;stroke-linejoin:miter;stroke-miterlimit:4;stroke-opacity:1;stroke-dasharray:none"/><path id="path3033" d="m 591.48485,105.5888 c 0,3.15079 -2.06301,5.70143 -4.59489,5.70143 l -63.09072,0 c -2.53188,0 -4.59489,2.55063 -4.59489,5.70142 0,-3.15079 -2.06302,-5.70142 -4.5949,-5.70142 l -63.09072,0 c -2.53188,0 -4.59489,-2.55064 -4.59489,-5.70143" style="fill:none;stroke:#000;stroke-width:1.25656307px;stroke-linecap:butt;stroke-linejoin:miter;stroke-miterlimit:4;stroke-opacity:1;stroke-dasharray:none"/><path id="path3035" d="m 441.29744,105.5888 c 0,3.15079 -2.06302,5.70143 -4.61365,5.70143 l -49.86867,0 c -2.53189,0 -4.5949,2.55063 -4.5949,5.70142 0,-3.15079 -2.06301,-5.70142 -4.61365,-5.70142 l -49.86867,0 c -2.53188,0 -4.5949,-2.55064 -4.5949,-5.70143" style="fill:none;stroke:#000;stroke-width:1.25656307px;stroke-linecap:butt;stroke-linejoin:miter;stroke-miterlimit:4;stroke-opacity:1;stroke-dasharray:none"/><path id="path3037" d="m 320.94871,105.5888 c 0,3.35709 -2.1943,6.09527 -4.91373,6.09527 l -29.38857,0 c -2.71943,0 -4.93248,2.71943 -4.93248,6.09527 0,-3.37584 -2.19429,-6.09527 -4.91372,-6.09527 l -29.38857,0 c -2.71943,0 -4.91373,-2.73818 -4.91373,-6.09527" style="fill:none;stroke:#000;stroke-width:1.25656307px;stroke-linecap:butt;stroke-linejoin:miter;stroke-miterlimit:4;stroke-opacity:1;stroke-dasharray:none"/><path id="path3039" d="m 238.89702,105.57943 c 0,3.36646 -2.20368,6.09527 -4.92311,6.09527 l -77.29738,0 c -2.71005,0 -4.91372,2.7288 -4.91372,6.09526 0,-3.36646 -2.20368,-6.09526 -4.91373,-6.09526 l -77.297378,0 c -2.719427,0 -4.923101,-2.72881 -4.923101,-6.09527" style="fill:none;stroke:#000;stroke-width:1.24718571px;stroke-linecap:butt;stroke-linejoin:miter;stroke-miterlimit:4;stroke-opacity:1;stroke-dasharray:none"/><path id="path3041" d="m 55.879546,75.103085 0,1.247186 -1.247186,0 0,-1.247186 1.247186,0 z m 0,2.503749 0,1.247186 -1.247186,0 0,-1.247186 1.247186,0 z m 0,2.494371 0,1.256563 -1.247186,0 0,-1.256563 1.247186,0 z m 0,2.503749 0,1.247186 -1.247186,0 0,-1.247186 1.247186,0 z m 0,2.503749 0,1.247185 -1.247186,0 0,-1.247185 1.247186,0 z m 0,2.494371 0,1.256563 -1.247186,0 0,-1.256563 1.247186,0 z m 0,2.503749 0,1.247186 -1.247186,0 0,-1.247186 1.247186,0 z m 0,2.503749 0,1.247185 -1.247186,0 0,-1.247185 1.247186,0 z m 0,2.494371 0,1.256563 -1.247186,0 0,-1.256563 1.247186,0 z m 0,2.503749 0,1.247185 -1.247186,0 0,-1.247185 1.247186,0 z m 0,2.503748 0,1.24719 -1.247186,0 0,-1.24719 1.247186,0 z m 0,2.49437 0,1.25656 -1.247186,0 0,-1.25656 1.247186,0 z m 0,2.50375 0,1.24719 -1.247186,0 0,-1.24719 1.247186,0 z m 0,2.50375 0,1.24719 -1.247186,0 0,-1.24719 1.247186,0 z" style="fill:#000;fill-opacity:1;fill-rule:nonzero;stroke:#000;stroke-width:.00937734px;stroke-linecap:butt;stroke-linejoin:round;stroke-opacity:1;stroke-dasharray:none"/><path id="path3043" d="m 163.09063,75.103085 0,1.247186 -1.24719,0 0,-1.247186 1.24719,0 z m 0,2.503749 0,1.247186 -1.24719,0 0,-1.247186 1.24719,0 z m 0,2.494371 0,1.256563 -1.24719,0 0,-1.256563 1.24719,0 z m 0,2.503749 0,1.247186 -1.24719,0 0,-1.247186 1.24719,0 z m 0,2.503749 0,1.247185 -1.24719,0 0,-1.247185 1.24719,0 z m 0,2.494371 0,1.256563 -1.24719,0 0,-1.256563 1.24719,0 z m 0,2.503749 0,1.247186 -1.24719,0 0,-1.247186 1.24719,0 z m 0,2.503749 0,1.247185 -1.24719,0 0,-1.247185 1.24719,0 z m 0,2.494371 0,1.256563 -1.24719,0 0,-1.256563 1.24719,0 z m 0,2.503749 0,1.247185 -1.24719,0 0,-1.247185 1.24719,0 z m 0,2.503748 0,1.24719 -1.24719,0 0,-1.24719 1.24719,0 z m 0,2.49437 0,1.25656 -1.24719,0 0,-1.25656 1.24719,0 z m 0,2.50375 0,1.24719 -1.24719,0 0,-1.24719 1.24719,0 z m 0,2.50375 0,1.24719 -1.24719,0 0,-1.24719 1.24719,0 z" style="fill:#000;fill-opacity:1;fill-rule:nonzero;stroke:#000;stroke-width:.00937734px;stroke-linecap:butt;stroke-linejoin:round;stroke-opacity:1;stroke-dasharray:none"/><path id="path3045" d="m 269.99226,75.103085 0,1.247186 -1.24718,0 0,-1.247186 1.24718,0 z m 0,2.503749 0,1.247186 -1.24718,0 0,-1.247186 1.24718,0 z m 0,2.494371 0,1.256563 -1.24718,0 0,-1.256563 1.24718,0 z m 0,2.503749 0,1.247186 -1.24718,0 0,-1.247186 1.24718,0 z m 0,2.503749 0,1.247185 -1.24718,0 0,-1.247185 1.24718,0 z m 0,2.494371 0,1.256563 -1.24718,0 0,-1.256563 1.24718,0 z m 0,2.503749 0,1.247186 -1.24718,0 0,-1.247186 1.24718,0 z m 0,2.503749 0,1.247185 -1.24718,0 0,-1.247185 1.24718,0 z m 0,2.494371 0,1.256563 -1.24718,0 0,-1.256563 1.24718,0 z m 0,2.503749 0,1.247185 -1.24718,0 0,-1.247185 1.24718,0 z m 0,2.503748 0,1.24719 -1.24718,0 0,-1.24719 1.24718,0 z m 0,2.49437 0,1.25656 -1.24718,0 0,-1.25656 1.24718,0 z m 0,2.50375 0,1.24719 -1.24718,0 0,-1.24719 1.24718,0 z m 0,2.50375 0,1.24719 -1.24718,0 0,-1.24719 1.24718,0 z" style="fill:#000;fill-opacity:1;fill-rule:nonzero;stroke:#000;stroke-width:.00937734px;stroke-linecap:butt;stroke-linejoin:round;stroke-opacity:1;stroke-dasharray:none"/><path id="path3047" d="m 376.27499,75.112462 0,1.237809 -1.25656,0 0,-1.237809 1.25656,0 z m 0,2.494372 0,1.256563 -1.25656,0 0,-1.256563 1.25656,0 z m 0,2.494371 0,1.256563 -1.25656,0 0,-1.256563 1.25656,0 z m 0,2.513126 0,1.237809 -1.25656,0 0,-1.237809 1.25656,0 z m 0,2.494372 0,1.256563 -1.25656,0 0,-1.256563 1.25656,0 z m 0,2.494371 0,1.256563 -1.25656,0 0,-1.256563 1.25656,0 z m 0,2.513126 0,1.237809 -1.25656,0 0,-1.237809 1.25656,0 z m 0,2.494372 0,1.256563 -1.25656,0 0,-1.256563 1.25656,0 z m 0,2.494371 0,1.256563 -1.25656,0 0,-1.256563 1.25656,0 z m 0,2.513126 0,1.237808 -1.25656,0 0,-1.237808 1.25656,0 z m 0,2.494371 0,1.25656 -1.25656,0 0,-1.25656 1.25656,0 z m 0,2.49437 0,1.25656 -1.25656,0 0,-1.25656 1.25656,0 z m 0,2.51313 0,1.23781 -1.25656,0 0,-1.23781 1.25656,0 z m 0,2.49437 0,1.25656 -1.25656,0 0,-1.25656 1.25656,0 z" style="fill:#000;fill-opacity:1;fill-rule:nonzero;stroke:#000;stroke-width:.01875467px;stroke-linecap:butt;stroke-linejoin:round;stroke-opacity:1;stroke-dasharray:none"/><path id="path3049" d="m 486.77752,75.112462 0,1.237809 -1.25656,0 0,-1.237809 1.25656,0 z m 0,2.494372 0,1.256563 -1.25656,0 0,-1.256563 1.25656,0 z m 0,2.494371 0,1.256563 -1.25656,0 0,-1.256563 1.25656,0 z m 0,2.513126 0,1.237809 -1.25656,0 0,-1.237809 1.25656,0 z m 0,2.494372 0,1.256563 -1.25656,0 0,-1.256563 1.25656,0 z m 0,2.494371 0,1.256563 -1.25656,0 0,-1.256563 1.25656,0 z m 0,2.513126 0,1.237809 -1.25656,0 0,-1.237809 1.25656,0 z m 0,2.494372 0,1.256563 -1.25656,0 0,-1.256563 1.25656,0 z m 0,2.494371 0,1.256563 -1.25656,0 0,-1.256563 1.25656,0 z m 0,2.513126 0,1.237808 -1.25656,0 0,-1.237808 1.25656,0 z m 0,2.494371 0,1.25656 -1.25656,0 0,-1.25656 1.25656,0 z m 0,2.49437 0,1.25656 -1.25656,0 0,-1.25656 1.25656,0 z m 0,2.51313 0,1.23781 -1.25656,0 0,-1.23781 1.25656,0 z m 0,2.49437 0,1.25656 -1.25656,0 0,-1.25656 1.25656,0 z" style="fill:#000;fill-opacity:1;fill-rule:nonzero;stroke:#000;stroke-width:.01875467px;stroke-linecap:butt;stroke-linejoin:round;stroke-opacity:1;stroke-dasharray:none"/><text id="text3051" x="277.448" y="145.273" xml:space="preserve" style="font-size:11.2528038px;font-style:italic;font-weight:400;text-align:start;text-anchor:start;fill:#000;font-family:Verdana">Count(3) Windows</text><text id="text3053" x="642.142" y="52.363" xml:space="preserve" style="font-size:11.2528038px;font-style:italic;font-weight:400;text-align:start;text-anchor:start;fill:#000;font-family:Verdana">Event</text><path id="path3055" d="m 643.81039,54.576096 -59.86491,35.258784 0.63765,1.087771 59.86492,-35.258784 -0.63766,-1.087771 z m -59.75239,33.008223 -3.03825,4.688669 5.58889,-0.375094 -2.55064,-4.313575 z" style="fill:#000;fill-opacity:1;fill-rule:nonzero;stroke:#000;stroke-width:.03750934px;stroke-linecap:butt;stroke-linejoin:round;stroke-opacity:1;stroke-dasharray:none"/></g></g></svg>